<svg width="420" height="236" viewBox="0 0 111.125 62.442" xmlns="http://www.w3.org/2000/svg"><defs><linearGradient id="a"><stop style="stop-color:#151b23;stop-opacity:.89999998" offset="0"/><stop style="stop-color:#151b23;stop-opacity:0" offset="1"/></linearGradient><clipPath clipPathUnits="userSpaceOnUse" id="b"><rect style="fill:#000;fill-opacity:1;stroke:none;stroke-width:1.76389;stroke-linecap:round;stroke-linejoin:round;stroke-miterlimit:4;stroke-dasharray:none;stroke-opacity:1" width="111.125" height="29.573" y="32.869" rx="0" ry="0"/></clipPath></defs><path style="fill:none;stroke:#fff;stroke-width:1.05833334;stroke-linecap:round;stroke-linejoin:miter;stroke-miterlimit:4;stroke-dasharray:none;stroke-opacity:1" d="m10.96 35.515.836 2.738"/><circle style="fill:none;fill-opacity:1;stroke:#fff;stroke-width:1.05833334;stroke-linecap:round;stroke-miterlimit:4;stroke-dasharray:none;stroke-opacity:1" cx="27.122" cy="51.05" transform="rotate(.726)" r="7.426"/><path style="fill:none;stroke:#fff;stroke-width:1.05833334;stroke-linecap:round;stroke-linejoin:miter;stroke-miterlimit:4;stroke-dasharray:none;stroke-opacity:1" d="m53.284 50.891 21.186 8.65M81.373 48.67l8.316-4.258M21.617 35.458 21 38.253M2.14 39.492 4.88 41.2M31.559 35.23l-.01 3.023M43.6 35.074l.739 3.179M66.945 34.877l.124 3.297M78.124 34.959l.124 3.294M100.248 35.652l-1.01 2.73M90.023 34.992l-.737 3.26M109.925 40.198l-2.024 2.183"/><path style="mix-blend-mode:normal;fill:none;stroke:#fff;stroke-width:.46302084;stroke-linecap:round;stroke-linejoin:miter;stroke-miterlimit:4;stroke-dasharray:none;stroke-opacity:1" d="m90.057 17.604-1.13 3.229M89.423 13.686l2.137-.378 1.402 1.644-.515 1.55M92.23 17.123l-2.138.378-1.401-1.644.515-1.55"/><path style="mix-blend-mode:normal;fill:none;stroke:#fff;stroke-width:.46302084;stroke-linecap:round;stroke-linejoin:miter;stroke-miterlimit:4;stroke-dasharray:none;stroke-opacity:1" d="m90.116 17.492 1.248 2.073-.661 1.89M90.091 17.484l-2.268.842-.66 1.89"/><path style="fill:none;stroke:#fff;stroke-width:.44979167;stroke-linecap:round;stroke-linejoin:miter;stroke-miterlimit:4;stroke-dasharray:none;stroke-opacity:1" d="m100.122 23.977-1.193 4.139M99.05 19.096l2.66-.626 1.878 1.968-.538 1.985M102.82 23.22l-2.66.625-1.878-1.968.539-1.984"/><path style="fill:none;stroke:#fff;stroke-width:.44979167;stroke-linecap:round;stroke-linejoin:miter;stroke-miterlimit:4;stroke-dasharray:none;stroke-opacity:1" d="m100.19 23.833 1.714 2.518-.698 2.422M100.158 23.823l-2.792 1.219-.699 2.422"/><g style="mix-blend-mode:normal;fill:none;stroke:#b4c1cf;stroke-width:.978296;stroke-miterlimit:4;stroke-dasharray:none;stroke-opacity:1"><path style="fill:none;stroke:#fff;stroke-width:.978296;stroke-linecap:round;stroke-linejoin:miter;stroke-miterlimit:4;stroke-dasharray:none;stroke-opacity:1" d="M44.769 18.834v7.23M40.77 11.462l3.999-2.245 3.943 2.3.055 3.45M48.767 16.36l-3.998 2.245-3.943-2.3-.055-3.45" transform="matrix(-.22582 -.12596 .12335 -.2306 115.704 18.476)"/><path style="fill:none;stroke:#fff;stroke-width:.978296;stroke-linecap:round;stroke-linejoin:miter;stroke-miterlimit:4;stroke-dasharray:none;stroke-opacity:1" d="m44.81 18.57 3.936 3.264v4.23M44.754 18.57l-3.935 3.264v4.23" transform="matrix(-.22582 -.12596 .12335 -.2306 115.704 18.476)"/></g><g style="fill:none;stroke:#b4c1cf;stroke-width:.978296;stroke-miterlimit:4;stroke-dasharray:none;stroke-opacity:1"><path style="fill:none;stroke:#fff;stroke-width:.978296;stroke-linecap:round;stroke-linejoin:miter;stroke-miterlimit:4;stroke-dasharray:none;stroke-opacity:1" d="M44.769 18.834v7.23M40.77 11.462l3.999-2.245 3.943 2.3.055 3.45M48.767 16.36l-3.998 2.245-3.943-2.3-.055-3.45" transform="rotate(-160.262 41.527 4.325) scale(.32097)"/><path style="fill:none;stroke:#fff;stroke-width:.978296;stroke-linecap:round;stroke-linejoin:miter;stroke-miterlimit:4;stroke-dasharray:none;stroke-opacity:1" d="m44.81 18.57 3.936 3.264v4.23M44.754 18.57l-3.935 3.264v4.23" transform="rotate(-160.262 41.527 4.325) scale(.32097)"/></g><g style="fill:none;stroke:#b4c1cf;stroke-width:.978296;stroke-miterlimit:4;stroke-dasharray:none;stroke-opacity:1"><path style="fill:none;stroke:#fff;stroke-width:.978296;stroke-linecap:round;stroke-linejoin:miter;stroke-miterlimit:4;stroke-dasharray:none;stroke-opacity:1" d="M44.769 18.834v7.23M40.77 11.462l3.999-2.245 3.943 2.3.055 3.45M48.767 16.36l-3.998 2.245-3.943-2.3-.055-3.45" transform="rotate(-151.355 56.512 -8.279) scale(.23306)"/><path style="fill:none;stroke:#fff;stroke-width:.978296;stroke-linecap:round;stroke-linejoin:miter;stroke-miterlimit:4;stroke-dasharray:none;stroke-opacity:1" d="m44.81 18.57 3.936 3.264v4.23M44.754 18.57l-3.935 3.264v4.23" transform="rotate(-151.355 56.512 -8.279) scale(.23306)"/></g><g style="fill:none;stroke:#b4c1cf;stroke-width:.978296;stroke-miterlimit:4;stroke-dasharray:none;stroke-opacity:1"><path style="fill:none;stroke:#fff;stroke-width:.978296;stroke-linecap:round;stroke-linejoin:miter;stroke-miterlimit:4;stroke-dasharray:none;stroke-opacity:1" d="M44.769 18.834v7.23M40.77 11.462l3.999-2.245 3.943 2.3.055 3.45M48.767 16.36l-3.998 2.245-3.943-2.3-.055-3.45" transform="rotate(-155.143 56.048 -1.837) scale(.28268)"/><path style="fill:none;stroke:#fff;stroke-width:.978296;stroke-linecap:round;stroke-linejoin:miter;stroke-miterlimit:4;stroke-dasharray:none;stroke-opacity:1" d="m44.81 18.57 3.936 3.264v4.23M44.754 18.57l-3.935 3.264v4.23" transform="rotate(-155.143 56.048 -1.837) scale(.28268)"/></g><g style="fill:none;stroke:#b4c1cf;stroke-width:.978296;stroke-miterlimit:4;stroke-dasharray:none;stroke-opacity:1"><path style="fill:none;stroke:#fff;stroke-width:.978296;stroke-linecap:round;stroke-linejoin:miter;stroke-miterlimit:4;stroke-dasharray:none;stroke-opacity:1" d="M44.769 18.834v7.23M40.77 11.462l3.999-2.245 3.943 2.3.055 3.45M48.767 16.36l-3.998 2.245-3.943-2.3-.055-3.45" transform="rotate(-151.355 50.118 -6) scale(.23306)"/><path style="fill:none;stroke:#fff;stroke-width:.978296;stroke-linecap:round;stroke-linejoin:miter;stroke-miterlimit:4;stroke-dasharray:none;stroke-opacity:1" d="m44.81 18.57 3.936 3.264v4.23M44.754 18.57l-3.935 3.264v4.23" transform="rotate(-151.355 50.118 -6) scale(.23306)"/></g><g style="fill:none;stroke:#b4c1cf;stroke-width:.978296;stroke-miterlimit:4;stroke-dasharray:none;stroke-opacity:1"><path style="fill:none;stroke:#fff;stroke-width:.978296;stroke-linecap:round;stroke-linejoin:miter;stroke-miterlimit:4;stroke-dasharray:none;stroke-opacity:1" d="M44.769 18.834v7.23M40.77 11.462l3.999-2.245 3.943 2.3.055 3.45M48.767 16.36l-3.998 2.245-3.943-2.3-.055-3.45" transform="matrix(-.26597 .00306 -.00306 -.26597 62.886 10.75)"/><path style="fill:none;stroke:#fff;stroke-width:.978296;stroke-linecap:round;stroke-linejoin:miter;stroke-miterlimit:4;stroke-dasharray:none;stroke-opacity:1" d="m44.81 18.57 3.936 3.264v4.23M44.754 18.57l-3.935 3.264v4.23" transform="matrix(-.26597 .00306 -.00306 -.26597 62.886 10.75)"/></g><g style="fill:none;stroke:#b4c1cf;stroke-width:.978296;stroke-miterlimit:4;stroke-dasharray:none;stroke-opacity:1"><path style="fill:none;stroke:#fff;stroke-width:.978296;stroke-linecap:round;stroke-linejoin:miter;stroke-miterlimit:4;stroke-dasharray:none;stroke-opacity:1" d="M44.769 18.834v7.23M40.77 11.462l3.999-2.245 3.943 2.3.055 3.45M48.767 16.36l-3.998 2.245-3.943-2.3-.055-3.45" transform="rotate(179.379 35.23 6.826) scale(.23306)"/><path style="fill:none;stroke:#fff;stroke-width:.978296;stroke-linecap:round;stroke-linejoin:miter;stroke-miterlimit:4;stroke-dasharray:none;stroke-opacity:1" d="m44.81 18.57 3.936 3.264v4.23M44.754 18.57l-3.935 3.264v4.23" transform="rotate(179.379 35.23 6.826) scale(.23306)"/></g><g style="fill:none;stroke:#b4c1cf;stroke-width:.978296;stroke-miterlimit:4;stroke-dasharray:none;stroke-opacity:1"><path style="fill:none;stroke:#fff;stroke-width:.978296;stroke-linecap:round;stroke-linejoin:miter;stroke-miterlimit:4;stroke-dasharray:none;stroke-opacity:1" d="M44.769 18.834v7.23M40.77 11.462l3.999-2.245 3.943 2.3.055 3.45M48.767 16.36l-3.998 2.245-3.943-2.3-.055-3.45" transform="rotate(-157.639 45.917 -.186) scale(.29406)"/><path style="fill:none;stroke:#fff;stroke-width:.978296;stroke-linecap:round;stroke-linejoin:miter;stroke-miterlimit:4;stroke-dasharray:none;stroke-opacity:1" d="m44.81 18.57 3.936 3.264v4.23M44.754 18.57l-3.935 3.264v4.23" transform="rotate(-157.639 45.917 -.186) scale(.29406)"/></g><g style="stroke:#b4c1cf;stroke-width:.978296;stroke-miterlimit:4;stroke-dasharray:none;stroke-opacity:1"><path style="fill:none;stroke:#fff;stroke-width:.978296;stroke-linecap:round;stroke-linejoin:miter;stroke-miterlimit:4;stroke-dasharray:none;stroke-opacity:1" d="M44.769 18.834v7.23M40.77 11.462l3.999-2.245 3.943 2.3.055 3.45M48.767 16.36l-3.998 2.245-3.943-2.3-.055-3.45" transform="scale(.2277 -.2277) rotate(28.645 89.523 -54.721)"/><path style="fill:none;stroke:#fff;stroke-width:.978296;stroke-linecap:round;stroke-linejoin:miter;stroke-miterlimit:4;stroke-dasharray:none;stroke-opacity:1" d="m44.81 18.57 3.936 3.264v4.23M44.754 18.57l-3.935 3.264v4.23" transform="scale(.2277 -.2277) rotate(28.645 89.523 -54.721)"/></g><g style="mix-blend-mode:normal;stroke:#b4c1cf;stroke-width:.978296;stroke-miterlimit:4;stroke-dasharray:none;stroke-opacity:1"><path style="fill:none;stroke:#fff;stroke-width:.978296;stroke-linecap:round;stroke-linejoin:miter;stroke-miterlimit:4;stroke-dasharray:none;stroke-opacity:1" d="M44.769 18.834v7.23M40.77 11.462l3.999-2.245 3.943 2.3.055 3.45M48.767 16.36l-3.998 2.245-3.943-2.3-.055-3.45" transform="matrix(.28814 -.1574 -.1574 -.28814 -3.471 24.882)"/><path style="fill:none;stroke:#fff;stroke-width:.978296;stroke-linecap:round;stroke-linejoin:miter;stroke-miterlimit:4;stroke-dasharray:none;stroke-opacity:1" d="m44.81 18.57 3.936 3.264v4.23M44.754 18.57l-3.935 3.264v4.23" transform="matrix(.28814 -.1574 -.1574 -.28814 -3.471 24.882)"/></g><g style="stroke:#b4c1cf;stroke-width:.978296;stroke-miterlimit:4;stroke-dasharray:none;stroke-opacity:1"><path style="fill:none;stroke:#fff;stroke-width:.978296;stroke-linecap:round;stroke-linejoin:miter;stroke-miterlimit:4;stroke-dasharray:none;stroke-opacity:1" d="M44.769 18.834v7.23M40.77 11.462l3.999-2.245 3.943 2.3.055 3.45M48.767 16.36l-3.998 2.245-3.943-2.3-.055-3.45" transform="scale(.26438 -.26438) rotate(28.645 140.703 80.347)"/><path style="fill:none;stroke:#fff;stroke-width:.978296;stroke-linecap:round;stroke-linejoin:miter;stroke-miterlimit:4;stroke-dasharray:none;stroke-opacity:1" d="m44.81 18.57 3.936 3.264v4.23M44.754 18.57l-3.935 3.264v4.23" transform="scale(.26438 -.26438) rotate(28.645 140.703 80.347)"/></g><g style="mix-blend-mode:normal;stroke:#b4c1cf;stroke-width:.978296;stroke-miterlimit:4;stroke-dasharray:none;stroke-opacity:1"><path style="fill:none;stroke:#fff;stroke-width:.978296;stroke-linecap:round;stroke-linejoin:miter;stroke-miterlimit:4;stroke-dasharray:none;stroke-opacity:1" d="M44.769 18.834v7.23M40.77 11.462l3.999-2.245 3.943 2.3.055 3.45M48.767 16.36l-3.998 2.245-3.943-2.3-.055-3.45" transform="matrix(.27146 -.15255 -.15255 -.27146 30.429 22.21)"/><path style="fill:none;stroke:#fff;stroke-width:.978296;stroke-linecap:round;stroke-linejoin:miter;stroke-miterlimit:4;stroke-dasharray:none;stroke-opacity:1" d="m44.81 18.57 3.936 3.264v4.23M44.754 18.57l-3.935 3.264v4.23" transform="matrix(.27146 -.15255 -.15255 -.27146 30.429 22.21)"/></g><g style="stroke:#b4c1cf;stroke-width:.978296;stroke-miterlimit:4;stroke-dasharray:none;stroke-opacity:1"><path style="fill:none;stroke:#fff;stroke-width:.978296;stroke-linecap:round;stroke-linejoin:miter;stroke-miterlimit:4;stroke-dasharray:none;stroke-opacity:1" d="M44.769 18.834v7.23M40.77 11.462l3.999-2.245 3.943 2.3.055 3.45M48.767 16.36l-3.998 2.245-3.943-2.3-.055-3.45" transform="matrix(-.30258 .1837 .1837 .30258 30.73 .81)"/><path style="fill:none;stroke:#fff;stroke-width:.978296;stroke-linecap:round;stroke-linejoin:miter;stroke-miterlimit:4;stroke-dasharray:none;stroke-opacity:1" d="m44.81 18.57 3.936 3.264v4.23M44.754 18.57l-3.935 3.264v4.23" transform="matrix(-.30258 .1837 .1837 .30258 30.73 .81)"/></g><g style="fill:none;stroke:#b4c1cf;stroke-width:.978296;stroke-miterlimit:4;stroke-dasharray:none;stroke-opacity:1"><path style="fill:none;stroke:#fff;stroke-width:.978296;stroke-linecap:round;stroke-linejoin:miter;stroke-miterlimit:4;stroke-dasharray:none;stroke-opacity:1" d="M44.769 18.834v7.23M40.77 11.462l3.999-2.245 3.943 2.3.055 3.45M48.767 16.36l-3.998 2.245-3.943-2.3-.055-3.45" transform="scale(.28978 -.28978) rotate(28.645 157.633 117.875)"/><path style="fill:none;stroke:#fff;stroke-width:.978296;stroke-linecap:round;stroke-linejoin:miter;stroke-miterlimit:4;stroke-dasharray:none;stroke-opacity:1" d="m44.81 18.57 3.936 3.264v4.23M44.754 18.57l-3.935 3.264v4.23" transform="scale(.28978 -.28978) rotate(28.645 157.633 117.875)"/></g><g style="fill:none;stroke:#b4c1cf;stroke-width:.978296;stroke-miterlimit:4;stroke-dasharray:none;stroke-opacity:1"><path style="fill:none;stroke:#fff;stroke-width:.978296;stroke-linecap:round;stroke-linejoin:miter;stroke-miterlimit:4;stroke-dasharray:none;stroke-opacity:1" d="M44.769 18.834v7.23M40.77 11.462l3.999-2.245 3.943 2.3.055 3.45M48.767 16.36l-3.998 2.245-3.943-2.3-.055-3.45" transform="scale(.23306 -.23306) rotate(28.645 182.262 274.647)"/><path style="fill:none;stroke:#fff;stroke-width:.978296;stroke-linecap:round;stroke-linejoin:miter;stroke-miterlimit:4;stroke-dasharray:none;stroke-opacity:1" d="m44.81 18.57 3.936 3.264v4.23M44.754 18.57l-3.935 3.264v4.23" transform="scale(.23306 -.23306) rotate(28.645 182.262 274.647)"/></g><g style="stroke:#b4c1cf;stroke-width:.978296;stroke-miterlimit:4;stroke-dasharray:none;stroke-opacity:1"><path style="fill:none;stroke:#fff;stroke-width:.978296;stroke-linecap:round;stroke-linejoin:miter;stroke-miterlimit:4;stroke-dasharray:none;stroke-opacity:1" d="M44.769 18.834v7.23M40.77 11.462l3.999-2.245 3.943 2.3.055 3.45M48.767 16.36l-3.998 2.245-3.943-2.3-.055-3.45" transform="scale(.2277 -.2277) rotate(28.645 136.133 13.818)"/><path style="fill:none;stroke:#fff;stroke-width:.978296;stroke-linecap:round;stroke-linejoin:miter;stroke-miterlimit:4;stroke-dasharray:none;stroke-opacity:1" d="m44.81 18.57 3.936 3.264v4.23M44.754 18.57l-3.935 3.264v4.23" transform="scale(.2277 -.2277) rotate(28.645 136.133 13.818)"/></g><g style="fill:none;stroke:#b4c1cf;stroke-width:.978296;stroke-miterlimit:4;stroke-dasharray:none;stroke-opacity:1"><path style="fill:none;stroke:#fff;stroke-width:.978296;stroke-linecap:round;stroke-linejoin:miter;stroke-miterlimit:4;stroke-dasharray:none;stroke-opacity:1" d="M44.769 18.834v7.23M40.77 11.462l3.999-2.245 3.943 2.3.055 3.45M48.767 16.36l-3.998 2.245-3.943-2.3-.055-3.45" transform="rotate(179.379 37.896 3.402) scale(.23306)"/><path style="fill:none;stroke:#fff;stroke-width:.978296;stroke-linecap:round;stroke-linejoin:miter;stroke-miterlimit:4;stroke-dasharray:none;stroke-opacity:1" d="m44.81 18.57 3.936 3.264v4.23M44.754 18.57l-3.935 3.264v4.23" transform="rotate(179.379 37.896 3.402) scale(.23306)"/></g><g><g transform="translate(-.94 -24.162) scale(1.12679)" style="fill:#faa;fill-opacity:1;stroke-width:1.16466"><circle style="fill:#faa;fill-opacity:1;stroke:none;stroke-width:.6988;stroke-linecap:round;stroke-linejoin:round;stroke-miterlimit:4;stroke-dasharray:1.39759,1.39759;stroke-dashoffset:0;stroke-opacity:1" cx="47.192" cy="40.221" r="1"/><circle style="fill:#faa;fill-opacity:1;stroke:none;stroke-width:.6988;stroke-linecap:round;stroke-linejoin:round;stroke-miterlimit:4;stroke-dasharray:1.39759,1.39759;stroke-dashoffset:0;stroke-opacity:1" cx="53.179" cy="40.242" r="1"/></g><path style="fill:none;stroke:#fff;stroke-width:.881944;stroke-linecap:round;stroke-linejoin:miter;stroke-miterlimit:4;stroke-dasharray:none;stroke-opacity:1" d="M55.562 27.088v9.98M50.03 16.911l5.532-3.1 5.458 3.176.076 4.763M61.096 23.672l-5.533 3.1-5.458-3.176-.076-4.763" transform="translate(0 .397)"/><path style="fill:none;stroke:#fff;stroke-width:.881944;stroke-linecap:round;stroke-linejoin:miter;stroke-miterlimit:4;stroke-dasharray:none;stroke-opacity:1" d="m55.62 26.724 5.447 4.505v5.839M55.543 26.724l-5.447 4.505v5.839" transform="translate(0 .397)"/><path style="fill:none;stroke:#fff;stroke-width:.705556;stroke-linecap:butt;stroke-linejoin:miter;stroke-miterlimit:4;stroke-dasharray:none;stroke-opacity:1" d="M56.725 18.367c1.187 1.071 1.856.567 2.505 0M51.872 18.343c1.188 1.071 1.857.567 2.505 0" transform="translate(0 .397)"/><path style="fill:none;stroke:#fff;stroke-width:.705556;stroke-linecap:round;stroke-linejoin:miter;stroke-miterlimit:4;stroke-dasharray:none;stroke-opacity:1" d="M52.539 21.89c2.409.692 4.255.671 6.137.012" transform="translate(0 .397)"/></g><path clip-path="url(#b)" style="fill:none;stroke:#fff;stroke-width:1.1422;stroke-linecap:round;stroke-linejoin:round;stroke-miterlimit:4;stroke-dasharray:none;stroke-opacity:1" transform="matrix(1.00564 0 0 .85372 -.313 9.134)" d="M14.255 34.444H96.87c7.408 0 13.373 5.573 13.373 12.495v17.41c0 6.922-5.965 12.495-13.373 12.495H14.255C6.846 76.844.882 71.271.882 64.35V46.94c0-6.922 5.964-12.495 13.373-12.495z"/><g><path style="fill:none;stroke:#fff;stroke-width:.881944;stroke-linecap:round;stroke-linejoin:miter;stroke-miterlimit:4;stroke-dasharray:none;stroke-opacity:1" d="M55.562 27.088v9.98M50.03 16.911l5.532-3.1 5.458 3.176.076 4.763M61.096 23.672l-5.533 3.1-5.458-3.176-.076-4.763" transform="matrix(.6779 .20763 -.20763 .6779 43.916 -5.396)"/><path style="fill:none;stroke:#fff;stroke-width:.881944;stroke-linecap:round;stroke-linejoin:miter;stroke-miterlimit:4;stroke-dasharray:none;stroke-opacity:1" d="m55.62 26.724 5.447 4.505v5.839M55.543 26.724l-5.447 4.505v5.839" transform="matrix(.6779 .20763 -.20763 .6779 43.916 -5.396)"/></g><g><path style="fill:none;stroke:#fff;stroke-width:.881944;stroke-linecap:round;stroke-linejoin:miter;stroke-miterlimit:4;stroke-dasharray:none;stroke-opacity:1" d="M55.562 27.088v9.98M50.03 16.911l5.532-3.1 5.458 3.176.076 4.763M61.096 23.672l-5.533 3.1-5.458-3.176-.076-4.763" transform="matrix(.5466 -.29749 .29749 .5466 -2.047 25.738)"/><path style="fill:none;stroke:#fff;stroke-width:.881944;stroke-linecap:round;stroke-linejoin:miter;stroke-miterlimit:4;stroke-dasharray:none;stroke-opacity:1" d="m55.62 26.724 5.447 4.505v5.839M55.543 26.724l-5.447 4.505v5.839" transform="matrix(.5466 -.29749 .29749 .5466 -2.047 25.738)"/></g><g><path style="fill:none;stroke:#fff;stroke-width:.881944;stroke-linecap:round;stroke-linejoin:miter;stroke-miterlimit:4;stroke-dasharray:none;stroke-opacity:1" d="M55.562 27.088v9.98M50.03 16.911l5.532-3.1 5.458 3.176.076 4.763M61.096 23.672l-5.533 3.1-5.458-3.176-.076-4.763" transform="scale(.47724) rotate(-28.557 90.377 86.834)"/><path style="fill:none;stroke:#fff;stroke-width:.881944;stroke-linecap:round;stroke-linejoin:miter;stroke-miterlimit:4;stroke-dasharray:none;stroke-opacity:1" d="m55.62 26.724 5.447 4.505v5.839M55.543 26.724l-5.447 4.505v5.839" transform="scale(.47724) rotate(-28.557 90.377 86.834)"/></g></svg>