<?xml version="1.0" encoding="UTF-8" standalone="no"?>
<!-- Created with Inkscape (http://www.inkscape.org/) -->

<svg
   width="420"
   height="236"
   viewBox="0 0 111.125 62.441668"
   version="1.1"
   id="svg5"
   xmlns:xlink="http://www.w3.org/1999/xlink"
   xmlns="http://www.w3.org/2000/svg"
   xmlns:svg="http://www.w3.org/2000/svg">
  <defs
     id="defs2">
    <linearGradient
       id="linearGradient21246">
      <stop
         style="stop-color:#b4c1cf;stop-opacity:1;"
         offset="0"
         id="stop21242" />
      <stop
         style="stop-color:#b4c1cf;stop-opacity:0.1"
         offset="1"
         id="stop21244" />
    </linearGradient>
    <linearGradient
       id="linearGradient2640">
      <stop
         style="stop-color:#151b23;stop-opacity:0.89999998"
         offset="0"
         id="stop2636" />
      <stop
         style="stop-color:#151b23;stop-opacity:0"
         offset="1"
         id="stop2638" />
    </linearGradient>
    <clipPath
       clipPathUnits="userSpaceOnUse"
       id="clipPath25958">
      <rect
         style="fill:#000000;fill-opacity:1;stroke:none;stroke-width:1.76389;stroke-linecap:round;stroke-linejoin:round;stroke-miterlimit:4;stroke-dasharray:none;stroke-opacity:1"
         id="rect25960"
         width="111.125"
         height="29.572794"
         x="0"
         y="32.868874"
         rx="0"
         ry="0" />
    </clipPath>
    <linearGradient
       xlink:href="#linearGradient2640"
       id="linearGradient2642"
       x1="51.973396"
       y1="-53.44313"
       x2="51.973396"
       y2="-15.985522"
       gradientUnits="userSpaceOnUse"
       gradientTransform="matrix(0.93392364,0,0,0.84434835,5.9013234,45.432521)" />
    <clipPath
       clipPathUnits="userSpaceOnUse"
       id="clipPath1431">
      <ellipse
         style="display:none;fill:#151b23;fill-opacity:1;stroke:none;stroke-width:1.07012;stroke-linecap:round;stroke-miterlimit:4;stroke-dasharray:none;stroke-opacity:1"
         id="circle1433"
         cx="40.584831"
         cy="49.245075"
         transform="matrix(0.99988911,0.01489206,-0.01077118,0.99994199,0,0)"
         rx="7.3981028"
         ry="8.6987038" />
    </clipPath>
    <clipPath
       clipPathUnits="userSpaceOnUse"
       id="clipPath2307">
      <ellipse
         style="display:none;fill:#ff2a2a;fill-opacity:1;stroke:none;stroke-width:1.07012;stroke-linecap:round;stroke-miterlimit:4;stroke-dasharray:none;stroke-opacity:1"
         id="circle2309"
         cx="28.291252"
         cy="49.302933"
         transform="matrix(0.99988911,0.01489206,-0.01077119,0.99994199,0,0)"
         rx="7.1384444"
         ry="8.3933964"
         d="m 35.429697,49.302933 a 7.1384444,8.3933964 0 0 1 -7.138445,8.393396 7.1384444,8.3933964 0 0 1 -7.138444,-8.393396 7.1384444,8.3933964 0 0 1 7.138444,-8.393397 7.1384444,8.3933964 0 0 1 7.138445,8.393397 z" />
    </clipPath>
    <clipPath
       clipPathUnits="userSpaceOnUse"
       id="clipath_lpe_path-effect2639">
      <ellipse
         style="display:block;fill:#ff2a2a;fill-opacity:1;stroke:none;stroke-width:1.07012;stroke-linecap:round;stroke-miterlimit:4;stroke-dasharray:none;stroke-opacity:1"
         id="ellipse2641"
         cx="28.291252"
         cy="49.302933"
         transform="matrix(0.99988911,0.01489206,-0.01077119,0.99994199,0,0)"
         rx="7.1384444"
         ry="8.3933964" />
    </clipPath>
    <linearGradient
       xlink:href="#linearGradient21246"
       id="linearGradient21248"
       x1="91.733704"
       y1="-107.1988"
       x2="90.189323"
       y2="27.076046"
       gradientUnits="userSpaceOnUse" />
  </defs>
  <g
     id="g2994"
     transform="matrix(0.89400236,0.24198019,-0.24198019,0.89400236,40.388818,-3.650472)"
     style="stroke:#b4c1cf;fill:none" />
  <g
     id="g3318"
     transform="matrix(0.44665933,0.15634918,-0.15634918,0.44665933,73.004888,2.1917503)"
     style="stroke:#b4c1cf;stroke-width:0.978296;fill:none" />
  <g
     id="g4461"
     transform="matrix(0.57258672,0.16513344,-0.16513344,0.57258672,77.598621,5.7998417)"
     style="stroke:#b4c1cf;stroke-width:0.932258;fill:none">
    <g
       id="g24076" />
  </g>
  <g
     id="g6259"
     transform="matrix(-0.22582088,-0.12596453,0.1233542,-0.23059953,115.70415,18.475824)"
     style="fill:none;stroke:#b4c1cf;stroke-width:0.978296" />
  <g
     id="g40963"
     transform="matrix(-0.30211225,-0.10840341,0.10840341,-0.30211225,79.153013,22.422013)"
     style="fill:none;stroke:#b4c1cf;stroke-width:0.978296" />
  <g
     id="g24542"
     transform="matrix(-0.2045356,-0.11172716,0.11172716,-0.2045356,110.07666,11.547635)"
     style="fill:none;stroke:#b4c1cf;stroke-width:0.978296" />
  <g
     id="g6271"
     transform="matrix(-0.25649167,-0.11882745,0.11882745,-0.25649167,107.67556,20.055706)"
     style="fill:none;stroke:#b4c1cf;stroke-width:0.978296" />
  <g
     id="g6309"
     transform="matrix(-0.2045356,-0.11172716,0.11172716,-0.2045356,96.977818,12.75959)"
     style="fill:none;stroke:#b4c1cf;stroke-width:0.978296" />
  <g
     id="g6321"
     transform="matrix(-0.26596867,0.00305908,-0.00305908,-0.26596867,62.885709,10.7509)"
     style="fill:none;stroke:#b4c1cf;stroke-width:0.978296" />
  <g
     id="g6473"
     transform="matrix(-0.23304632,0.00268042,-0.00268042,-0.23304632,70.537517,13.246495)"
     style="fill:none;stroke:#b4c1cf;stroke-width:0.978296" />
  <g
     id="g41055"
     transform="matrix(-0.2719491,-0.11187163,0.11187163,-0.2719491,88.451695,17.111253)"
     style="fill:none;stroke:#b4c1cf;stroke-width:0.978296" />
  <g
     id="g4509"
     transform="matrix(-0.60317538,0.29171058,0.29171058,0.60317538,34.729896,-0.82157738)"
     style="stroke:#b4c1cf;stroke-width:0.932258" />
  <g
     id="g24554"
     transform="matrix(0.19983724,-0.10916069,-0.10916069,-0.19983724,-3.4783241,11.297564)"
     style="stroke:#b4c1cf;stroke-width:0.978296" />
  <g
     id="g6131"
     transform="matrix(0.28814312,-0.1573976,-0.1573976,-0.28814312,-3.4712899,24.882402)"
     style="stroke:#b4c1cf;stroke-width:0.978296" />
  <g
     id="g6143"
     transform="matrix(0.23201629,-0.12673843,-0.12673843,-0.23201629,14.735987,15.232503)"
     style="stroke:#b4c1cf;stroke-width:0.978296" />
  <g
     id="g6155"
     transform="matrix(0.2714562,-0.15254746,-0.15254746,-0.2714562,30.428631,22.209484)"
     style="stroke:#b4c1cf;stroke-width:0.978296" />
  <g
     id="g6333"
     transform="matrix(-0.77274498,0.36701042,0.36701042,0.77274498,61.08654,-7.3098098)"
     style="stroke:#b4c1cf" />
  <g
     id="g6437"
     transform="matrix(-0.3025751,0.18369506,0.18369506,0.3025751,30.729086,0.80989864)"
     style="stroke:#b4c1cf;stroke-width:0.978296" />
  <g
     id="g17295"
     transform="matrix(0.25431518,-0.13891915,-0.13891915,-0.25431518,21.966118,17.717298)"
     style="fill:none;stroke:#b4c1cf;stroke-width:0.978296" />
  <g
     id="g40871"
     transform="matrix(0.2045356,-0.11172716,-0.11172716,-0.2045356,35.884788,12.529032)"
     style="fill:none;stroke:#b4c1cf;stroke-width:0.978296" />
  <g
     id="g2202"
     transform="matrix(0.19983724,-0.10916069,-0.10916069,-0.19983724,5.3025182,14.475296)"
     style="stroke:#b4c1cf;stroke-width:0.978296" />
  <g
     id="g917">
    <path
       id="path4065"
       style="fill:#4d545c;fill-opacity:1;stroke:none;stroke-width:2.30189;stroke-linecap:round;stroke-linejoin:round;stroke-opacity:1"
       d="M 14.83062,38.591961 C 6.6144779,38.591961 0,44.324548 0,51.445438 V 62.441667 H 111.125 V 51.445438 c 0,-7.12089 -6.61447,-12.853477 -14.830616,-12.853477 z m 11.688177,5.297866 a 7.4264575,7.4264575 0 0 1 0.431498,0.01809 7.4264575,7.4264575 0 0 1 0.429948,0.04289 7.4264575,7.4264575 0 0 1 0.426328,0.06821 7.4264575,7.4264575 0 0 1 0.422199,0.0925 7.4264575,7.4264575 0 0 1 0.415477,0.117305 7.4264575,7.4264575 0 0 1 0.408245,0.141079 7.4264575,7.4264575 0 0 1 0.399457,0.16433 7.4264575,7.4264575 0 0 1 0.389125,0.187584 7.4264575,7.4264575 0 0 1 0.377754,0.209807 7.4264575,7.4264575 0 0 1 0.364837,0.23151 7.4264575,7.4264575 0 0 1 0.350882,0.252183 7.4264575,7.4264575 0 0 1 0.335381,0.272333 7.4264575,7.4264575 0 0 1 0.318841,0.291457 7.4264575,7.4264575 0 0 1 0.301792,0.309025 7.4264575,7.4264575 0 0 1 0.28267,0.326594 7.4264575,7.4264575 0 0 1 0.264067,0.342098 7.4264575,7.4264575 0 0 1 0.242877,0.357084 7.4264575,7.4264575 0 0 1 0.222211,0.37052 7.4264575,7.4264575 0 0 1 0.200504,0.382405 7.4264575,7.4264575 0 0 1 0.177249,0.393774 7.4264575,7.4264575 0 0 1 0.154514,0.403593 7.4264575,7.4264575 0 0 1 0.130741,0.411861 7.4264575,7.4264575 0 0 1 0.106453,0.418582 7.4264575,7.4264575 0 0 1 0.08217,0.424262 7.4264575,7.4264575 0 0 1 0.05684,0.427881 7.4264575,7.4264575 0 0 1 0.03256,0.430983 7.4264575,7.4264575 0 0 1 0.0067,0.432014 7.4264575,7.4264575 0 0 1 -0.128675,1.287777 7.4264575,7.4264575 0 0 1 -0.350882,1.246434 7.4264575,7.4264575 0 0 1 -0.56224,1.166339 7.4264575,7.4264575 0 0 1 -0.75551,1.050581 7.4264575,7.4264575 0 0 1 -0.927076,0.903819 7.4264575,7.4264575 0 0 1 -1.0697,0.729155 7.4264575,7.4264575 0 0 1 -1.18029,0.531752 7.4264575,7.4264575 0 0 1 -1.254189,0.31936 7.4264575,7.4264575 0 0 1 -1.291393,0.09663 7.4264575,7.4264575 0 0 1 -1.287776,-0.12919 7.4264575,7.4264575 0 0 1 -1.245919,-0.350883 7.4264575,7.4264575 0 0 1 -1.166337,-0.561724 7.4264575,7.4264575 0 0 1 -1.051099,-0.756025 7.4264575,7.4264575 0 0 1 -0.903304,-0.927074 7.4264575,7.4264575 0 0 1 -0.729154,-1.069702 7.4264575,7.4264575 0 0 1 -0.532268,-1.179775 7.4264575,7.4264575 0 0 1 -0.31936,-1.254702 7.4264575,7.4264575 0 0 1 -0.09612,-1.290878 7.4264575,7.4264575 0 0 1 0.128674,-1.288293 7.4264575,7.4264575 0 0 1 0.350883,-1.245921 7.4264575,7.4264575 0 0 1 0.56224,-1.166336 7.4264575,7.4264575 0 0 1 0.755509,-1.050581 7.4264575,7.4264575 0 0 1 0.927075,-0.903822 7.4264575,7.4264575 0 0 1 1.069702,-0.729155 7.4264575,7.4264575 0 0 1 1.18029,-0.532267 7.4264575,7.4264575 0 0 1 1.254187,-0.318842 7.4264575,7.4264575 0 0 1 1.291396,-0.09664 z" />
    <path
       style="fill:none;stroke:#b4c1cf;stroke-width:1.23472;stroke-linecap:round;stroke-linejoin:miter;stroke-miterlimit:4;stroke-dasharray:none;stroke-opacity:1"
       d="m 10.959144,35.515343 0.83649,2.737296"
       id="path4286" />
    <circle
       style="fill:none;fill-opacity:1;stroke:#b4c1cf;stroke-width:1.07012;stroke-linecap:round;stroke-miterlimit:4;stroke-dasharray:none;stroke-opacity:1"
       id="circle6645"
       cx="27.122356"
       cy="51.049561"
       transform="rotate(0.72568003)"
       r="7.4264574" />
    <path
       style="fill:none;stroke:#b4c1cf;stroke-width:1.23472;stroke-linecap:round;stroke-linejoin:miter;stroke-miterlimit:4;stroke-dasharray:none;stroke-opacity:1"
       d="m 53.28437,50.890967 21.185645,8.650809"
       id="path11306" />
    <path
       style="fill:none;stroke:#b4c1cf;stroke-width:1.23472;stroke-linecap:round;stroke-linejoin:miter;stroke-miterlimit:4;stroke-dasharray:none;stroke-opacity:1"
       d="m 81.373481,48.67 8.315386,-4.258103"
       id="path11421" />
    <path
       style="fill:none;stroke:#b4c1cf;stroke-width:1.23472;stroke-linecap:round;stroke-linejoin:miter;stroke-miterlimit:4;stroke-dasharray:none;stroke-opacity:1"
       d="m 21.617067,35.457917 -0.618086,2.794722"
       id="path13845" />
    <path
       style="fill:none;stroke:#b4c1cf;stroke-width:1.23472;stroke-linecap:round;stroke-linejoin:miter;stroke-miterlimit:4;stroke-dasharray:none;stroke-opacity:1"
       d="m 2.1393154,39.492267 2.7418259,1.708089"
       id="path13847" />
    <path
       style="fill:none;stroke:#b4c1cf;stroke-width:1.23472;stroke-linecap:round;stroke-linejoin:miter;stroke-miterlimit:4;stroke-dasharray:none;stroke-opacity:1"
       d="m 31.558528,35.229578 -0.0097,3.023061"
       id="path13849" />
    <path
       style="fill:none;stroke:#b4c1cf;stroke-width:1.23472;stroke-linecap:round;stroke-linejoin:miter;stroke-miterlimit:4;stroke-dasharray:none;stroke-opacity:1"
       d="m 43.600703,35.074058 0.73807,3.178581"
       id="path13851" />
    <path
       style="fill:none;stroke:#b4c1cf;stroke-width:1.23472;stroke-linecap:round;stroke-linejoin:miter;stroke-miterlimit:4;stroke-dasharray:none;stroke-opacity:1"
       d="m 66.945375,34.877305 0.123482,3.296348"
       id="path13853" />
    <path
       style="fill:none;stroke:#b4c1cf;stroke-width:1.23472;stroke-linecap:round;stroke-linejoin:miter;stroke-miterlimit:4;stroke-dasharray:none;stroke-opacity:1"
       d="m 78.124265,34.958682 0.123482,3.293957"
       id="path13855" />
    <path
       style="fill:none;stroke:#b4c1cf;stroke-width:1.23472;stroke-linecap:round;stroke-linejoin:miter;stroke-miterlimit:4;stroke-dasharray:none;stroke-opacity:1"
       d="m 100.24786,35.651599 -1.010217,2.729525"
       id="path13857" />
    <path
       style="fill:none;stroke:#b4c1cf;stroke-width:1.23472;stroke-linecap:round;stroke-linejoin:miter;stroke-miterlimit:4;stroke-dasharray:none;stroke-opacity:1"
       d="m 90.0233,34.991518 -0.73762,3.261121"
       id="path13859" />
    <path
       style="fill:none;stroke:#b4c1cf;stroke-width:1.23472;stroke-linecap:round;stroke-linejoin:miter;stroke-miterlimit:4;stroke-dasharray:none;stroke-opacity:1"
       d="m 109.92531,40.198309 -2.02471,2.182424"
       id="path13861" />
    <g
       id="g2900"
       transform="matrix(-0.23304632,0.00268042,-0.00268042,-0.23304632,75.829187,6.3673261)"
       style="fill:none;stroke:#b4c1cf;stroke-width:0.978296">
      <path
         id="path2898"
         style="color:#000000;fill:url(#linearGradient21248);stroke:none;stroke-linecap:round;-inkscape-stroke:none;fill-opacity:1"
         d="m 44.800781,18.083984 a 0.48914799,0.48914799 0 0 0 -0.359375,0.109375 l -4.111328,3.410157 V 26.0625 a 0.48914799,0.48914799 0 0 0 0.488281,0.490234 0.48914799,0.48914799 0 0 0 0.490235,-0.490234 v -4 l 3.757812,-3.115234 a 0.48914799,0.48914799 0 0 0 0.06445,-0.689454 0.48914799,0.48914799 0 0 0 -0.330078,-0.173828 z m 0.322266,0.109375 a 0.48914799,0.48914799 0 0 0 -0.689453,0.06445 0.48914799,0.48914799 0 0 0 0.06445,0.689454 l 3.757812,3.115234 v 4 a 0.48914799,0.48914799 0 0 0 0.490235,0.490234 0.48914799,0.48914799 0 0 0 0.488281,-0.490234 v -4.458984 z m -4.359375,-5.828125 a 0.48914799,0.48914799 0 0 0 -0.482422,0.496094 l 0.06055,3.726563 4.421875,2.580078 4.242187,-2.382813 a 0.48914799,0.48914799 0 0 0 0.1875,-0.666015 0.48914799,0.48914799 0 0 0 -0.666015,-0.185547 L 44.77344,18.041016 41.31055,16.021484 41.25977,12.845703 A 0.48914799,0.48914799 0 0 0 40.763676,12.365234 Z M 44.773437,8.6542969 40.53125,11.035156 a 0.48914799,0.48914799 0 0 0 -0.1875,0.666016 0.48914799,0.48914799 0 0 0 0.666016,0.1875 l 3.753906,-2.107422 3.46289,2.019531 0.05078,3.173828 a 0.48914799,0.48914799 0 0 0 0.496093,0.482422 0.48914799,0.48914799 0 0 0 0.482422,-0.498047 l -0.05859,-3.724609 z m -0.0039,9.6914061 a 0.48914799,0.48914799 0 0 0 -0.490234,0.488281 V 26.0625 a 0.48914799,0.48914799 0 0 0 0.490234,0.490234 0.48914799,0.48914799 0 0 0 0.488281,-0.490234 V 18.833984 A 0.48914799,0.48914799 0 0 0 44.769531,18.345703 Z M 272.62778,4.8364835 a 0.47791183,0.47791183 0 0 1 0.36021,-0.070402 l 5.11064,1.0572132 2.04438,3.8470928 a 0.47791183,0.47791183 0 0 1 -0.19651,0.6468305 0.47791183,0.47791183 0 0 1 -0.64773,-0.198196 l -1.83394,-3.4510938 -4.67042,-0.9648431 a 0.47791183,0.47791183 0 0 1 -0.37171,-0.5652932 0.47791183,0.47791183 0 0 1 0.20508,-0.3013098 z m -0.2279,0.2421197 a 0.47791183,0.47791183 0 0 1 0.62439,-0.2604977 0.47791183,0.47791183 0 0 1 0.2605,0.6243919 l -1.81385,4.4106392 1.83394,3.4510934 a 0.47791183,0.47791183 0 0 1 -0.1982,0.647726 0.47791183,0.47791183 0 0 1 -0.64604,-0.199091 l -2.04438,-3.8470933 z m 1.08905,-7.0270566 a 0.47791183,0.47791183 0 0 1 0.64367,0.2068338 l 1.65633,3.2429407 -2.63215,4.2533833 -4.75252,-0.1108513 a 0.47791183,0.47791183 0 0 1 -0.46713,-0.4886542 0.47791183,0.47791183 0 0 1 0.48955,-0.4654425 l 4.20499,0.09712 2.06176,-3.3300795 -1.41223,-2.7632613 a 0.47791183,0.47791183 0 0 1 0.20773,-0.6419872 z m -5.16092,-1.3632833 4.75163,0.1091655 a 0.47791183,0.47791183 0 0 1 0.46713,0.4886551 0.47791183,0.47791183 0 0 1 -0.48866,0.4671279 l -4.20499,-0.09712 -2.06176,3.33007864 1.41134,2.76157626 a 0.47791183,0.47791183 0 0 1 -0.20684,0.6436718 0.47791183,0.47791183 0 0 1 -0.64457,-0.2085188 l -1.65712,-3.24035623 z m 4.44673,8.3596967 a 0.47791183,0.47791183 0 0 1 0.64683,0.1965113 l 3.31416,6.2365717 a 0.47791183,0.47791183 0 0 1 -0.1982,0.647725 0.47791183,0.47791183 0 0 1 -0.64604,-0.199091 L 272.57733,5.6931051 A 0.47791183,0.47791183 0 0 1 272.77474,5.04796 Z m -132.16777,7.479431 a 0.48914798,0.48914798 0 0 1 0.36868,-0.07206 l 5.2308,1.082069 2.09244,3.937542 a 0.48914798,0.48914798 0 0 1 -0.20113,0.662037 0.48914798,0.48914798 0 0 1 -0.66295,-0.202855 l -1.87706,-3.532232 -4.78023,-0.987528 a 0.48914798,0.48914798 0 0 1 -0.38045,-0.578583 0.48914798,0.48914798 0 0 1 0.20991,-0.308394 z m -0.23325,0.247812 a 0.48914798,0.48914798 0 0 1 0.63907,-0.266622 0.48914798,0.48914798 0 0 1 0.26662,0.639072 l -1.8565,4.514337 1.87706,3.532233 a 0.48914798,0.48914798 0 0 1 -0.20286,0.662954 0.48914798,0.48914798 0 0 1 -0.66123,-0.203772 l -2.09244,-3.937542 z m 1.11465,-7.192269 a 0.48914798,0.48914798 0 0 1 0.65881,0.2116966 l 1.69527,3.3191853 -2.69403,4.3533841 -4.86427,-0.113457 a 0.48914798,0.48914798 0 0 1 -0.47811,-0.500143 0.48914798,0.48914798 0 0 1 0.50106,-0.476386 l 4.30385,0.0994 2.11024,-3.408373 -1.44543,-2.8282282 a 0.48914798,0.48914798 0 0 1 0.21261,-0.6570809 z m -5.28226,-1.3953354 4.86335,0.1117321 a 0.48914798,0.48914798 0 0 1 0.47811,0.5001438 0.48914798,0.48914798 0 0 1 -0.50015,0.4781106 l -4.30385,-0.099404 -2.11024,3.4083719 1.44452,2.8265039 a 0.48914798,0.48914798 0 0 1 -0.21169,0.658805 0.48914798,0.48914798 0 0 1 -0.65973,-0.213422 l -1.69608,-3.3165396 z m 4.55127,8.5562414 a 0.48914798,0.48914798 0 0 1 0.66204,0.201131 l 3.39208,6.383199 a 0.48914798,0.48914798 0 0 1 -0.20285,0.662954 0.48914798,0.48914798 0 0 1 -0.66123,-0.203772 l -3.39208,-6.383199 a 0.48914798,0.48914798 0 0 1 0.20204,-0.660313 z m 52.25951,-12.78626722 a 0.60819611,0.60819611 0 0 1 0.4584,-0.08959436 l 6.50387,1.34542178 2.6017,4.8958549 a 0.60819611,0.60819611 0 0 1 -0.25009,0.8231634 0.60819611,0.60819611 0 0 1 -0.8243,-0.2522263 l -2.33389,-4.3919017 -5.94364,-1.2278704 a 0.60819611,0.60819611 0 0 1 -0.47304,-0.71939877 0.60819611,0.60819611 0 0 1 0.26099,-0.3834503 z m -0.29002,0.3081244 a 0.60819611,0.60819611 0 0 1 0.7946,-0.33151233 0.60819611,0.60819611 0 0 1 0.33152,0.79460834 l -2.30834,5.61303021 2.33389,4.3919016 a 0.60819611,0.60819611 0 0 1 -0.25222,0.824304 0.60819611,0.60819611 0 0 1 -0.82216,-0.253367 l -2.6017,-4.8958545 z m 1.38593,-8.94271338 a 0.60819611,0.60819611 0 0 1 0.81915,0.2632191 l 2.10786,4.1270038 -3.3497,5.4129046 -6.04813,-0.14107069 a 0.60819611,0.60819611 0 0 1 -0.59447,-0.62186701 0.60819611,0.60819611 0 0 1 0.62301,-0.59232747 l 5.35132,0.12359612 2.62383,-4.23789755 -1.79723,-3.5165582 a 0.60819611,0.60819611 0 0 1 0.26436,-0.8170003 z m -6.56785,-1.7349298 6.04698,0.138925 a 0.60819611,0.60819611 0 0 1 0.59447,0.6218681 0.60819611,0.60819611 0 0 1 -0.62186,0.5944724 l -5.35132,-0.1235967 -2.62383,4.2378965 1.79609,3.5144138 a 0.60819611,0.60819611 0 0 1 -0.26322,0.81914414 0.60819611,0.60819611 0 0 1 -0.82029,-0.2653634 L 184.1931,-4.9979009 Z m 5.65896,10.63864629 a 0.60819611,0.60819611 0 0 1 0.82316,0.25008249 l 4.21764,7.93673292 a 0.60819611,0.60819611 0 0 1 -0.25223,0.8243029 0.60819611,0.60819611 0 0 1 -0.82216,-0.2533663 l -4.21764,-7.9367329 a 0.60819611,0.60819611 0 0 1 0.25123,-0.82101911 z M 237.80724,-32.210741 a 0.74291162,0.74291162 0 0 1 -0.55436,0.134889 l -8.01122,-1.279022 -3.44768,-5.828965 a 0.74291162,0.74291162 0 0 1 0.25925,-1.018392 0.74291162,0.74291162 0 0 1 1.0199,0.261805 l 3.0928,5.228962 7.32105,1.166825 a 0.74291162,0.74291162 0 0 1 0.61734,0.851449 0.74291162,0.74291162 0 0 1 -0.29709,0.482451 z m 0.33671,-0.392155 a 0.74291162,0.74291162 0 0 1 -0.95112,0.448832 0.74291162,0.74291162 0 0 1 -0.44883,-0.951115 l 2.50367,-6.977895 -3.09279,-5.228962 a 0.74291162,0.74291162 0 0 1 0.2618,-1.019903 0.74291162,0.74291162 0 0 1 1.01735,0.263316 l 3.44768,5.828964 z m -1.19246,10.989424 a 0.74291162,0.74291162 0 0 1 -1.01422,-0.275506 l -2.80222,-4.918332 3.78555,-6.79177 7.38794,-0.165144 a 0.74291162,0.74291162 0 0 1 0.76007,0.725667 0.74291162,0.74291162 0 0 1 -0.72718,0.757517 l -6.53671,0.147608 -2.96533,5.317516 2.38913,4.190773 a 0.74291162,0.74291162 0 0 1 -0.27702,1.011668 z m 8.11102,1.750742 -7.38643,0.167698 a 0.74291162,0.74291162 0 0 1 -0.76007,-0.725668 0.74291162,0.74291162 0 0 1 0.72567,-0.76007 l 6.53671,-0.147608 2.96533,-5.317515 -2.38762,-4.188219 a 0.74291162,0.74291162 0 0 1 0.27551,-1.01422 0.74291162,0.74291162 0 0 1 1.01573,0.278059 l 2.80327,4.914261 z m -7.49848,-12.665978 a 0.74291162,0.74291162 0 0 1 -1.0184,-0.259253 l -5.58908,-9.449409 a 0.74291162,0.74291162 0 0 1 0.26181,-1.019902 0.74291162,0.74291162 0 0 1 1.01735,0.263316 l 5.58908,9.449409 a 0.74291162,0.74291162 0 0 1 -0.26076,1.015839 z m -53.59926,-37.467099 a 1.4604059,1.4604059 0 0 1 -1.10815,0.147649 l -18.79217,-5.010624 -6.7852,-14.720856 a 1.4604059,1.4604059 0 0 1 0.70949,-1.937393 1.4604059,1.4604059 0 0 1 1.94039,0.715997 l 6.21202,13.477298 17.46597,4.650945 a 1.4604059,1.4604059 0 0 1 1.03705,1.787572 1.4604059,1.4604059 0 0 1 -0.67941,0.88942 z m -0.0586,0.02701 a 1.4604059,1.4604059 0 0 1 -1.11755,-0.06115 1.4604059,1.4604059 0 0 1 -0.68551,-1.949611 l 7.80885,-16.300719 -6.21202,-13.477301 a 1.4604059,1.4604059 0 0 1 0.716,-1.94039 1.4604059,1.4604059 0 0 1 1.9404,0.716 l 6.7852,14.720852 -8.40332,17.545687 a 1.4604059,1.4604059 0 0 1 -0.83207,0.746629 z m -4.58276,25.218026 a 1.4604059,1.4604059 0 0 1 -1.92336,-0.747536 l -5.44952,-12.336785 10.56415,-15.084097 17.60431,1.405903 a 1.4604059,1.4604059 0 0 1 1.34211,1.575919 1.4604059,1.4604059 0 0 1 -1.56941,1.339106 l -15.95003,-1.276377 -8.65255,12.363694 4.78183,10.836817 a 1.4604059,1.4604059 0 0 1 -0.74753,1.923356 z m 19.04394,6.173405 -17.60731,-1.412411 a 1.4604059,1.4604059 0 0 1 -1.33911,-1.569409 1.4604059,1.4604059 0 0 1 1.56941,-1.339111 l 15.94702,1.269871 8.65907,-12.366698 -4.78533,-10.827306 a 1.4604059,1.4604059 0 0 1 0.74453,-1.929865 1.4604059,1.4604059 0 0 1 1.92335,0.747532 l 5.44952,12.336789 z m -14.87633,-32.257873 a 1.4604059,1.4604059 0 0 1 -1.94039,-0.715999 l -11.1066,-24.096367 a 1.4604059,1.4604059 0 0 1 0.716,-1.940394 1.4604059,1.4604059 0 0 1 1.93388,0.718998 l 11.1066,24.096367 a 1.4604059,1.4604059 0 0 1 -0.70949,1.937395 z m -28.84301,55.025586 a 0.6535274,0.6535274 0 0 1 0.49137,-0.102186 l 7.0055,1.361589 2.85865,5.2267775 a 0.6535274,0.6535274 0 0 1 -0.25807,0.8876833 0.6535274,0.6535274 0 0 1 -0.88894,-0.2603588 l -2.56439,-4.688761 -6.40204,-1.242521 a 0.6535274,0.6535274 0 0 1 -0.51755,-0.766853 0.6535274,0.6535274 0 0 1 0.27547,-0.415372 z m -0.30764,0.334813 a 0.6535274,0.6535274 0 0 1 0.84949,-0.366459 0.6535274,0.6535274 0 0 1 0.36646,0.849489 l -2.4077,6.0607725 2.56439,4.6887608 a 0.6535274,0.6535274 0 0 1 -0.26036,0.8889361 0.6535274,0.6535274 0 0 1 -0.88665,-0.2616116 l -2.85864,-5.2267773 z m 1.37362,-9.626457 a 0.6535274,0.6535274 0 0 1 0.88353,0.272237 l 2.31812,4.407059 -3.5292,5.859196 -6.50027,-0.07345 a 0.6535274,0.6535274 0 0 1 -0.64676,-0.66049 0.6535274,0.6535274 0 0 1 0.66174,-0.644477 l 5.75136,0.06368 2.76445,-4.587327 -1.97647,-3.755174 a 0.6535274,0.6535274 0 0 1 0.27349,-0.881246 z m -7.07928,-1.779273 6.49901,0.07116 a 0.6535274,0.6535274 0 0 1 0.64677,0.660492 0.6535274,0.6535274 0 0 1 -0.6605,0.646767 l -5.75135,-0.06368 -2.76445,4.587326 1.97521,3.752885 a 0.6535274,0.6535274 0 0 1 -0.27223,0.883535 0.6535274,0.6535274 0 0 1 -0.88479,-0.274526 l -2.31916,-4.403512 z m 6.21771,11.357667 a 0.6535274,0.6535274 0 0 1 0.88769,0.258071 l 4.63418,8.4731953 a 0.6535274,0.6535274 0 0 1 -0.26036,0.8889355 0.6535274,0.6535274 0 0 1 -0.88664,-0.2616116 l -4.63419,-8.4731952 a 0.6535274,0.6535274 0 0 1 0.25932,-0.885395 z m 72.4501,22.4650802 a 0.5548682,0.5548682 0 0 1 0.41821,-0.081739 l 5.9336,1.2274523 2.37357,4.466576 a 0.5548682,0.5548682 0 0 1 -0.22815,0.750987 0.5548682,0.5548682 0 0 1 -0.75203,-0.230111 l -2.12925,-4.0068103 -5.42249,-1.1202081 a 0.5548682,0.5548682 0 0 1 -0.43156,-0.6563204 0.5548682,0.5548682 0 0 1 0.23811,-0.3498286 z m -0.26459,0.2811074 a 0.5548682,0.5548682 0 0 1 0.72494,-0.3024446 0.5548682,0.5548682 0 0 1 0.30244,0.7249354 l -2.10593,5.1208676 2.12925,4.006811 a 0.5548682,0.5548682 0 0 1 -0.23011,0.752027 0.5548682,0.5548682 0 0 1 -0.75007,-0.231151 l -2.37358,-4.466576 z m 1.26442,-8.15859746 a 0.5548682,0.5548682 0 0 1 0.74732,0.24013945 l 1.92304,3.76513951 -3.056,4.9382898 -5.51781,-0.1287013 a 0.5548682,0.5548682 0 0 1 -0.54235,-0.5673404 0.5548682,0.5548682 0 0 1 0.56838,-0.540391 l 4.88211,0.1127589 2.39376,-3.8663098 -1.63964,-3.20821898 a 0.5548682,0.5548682 0 0 1 0.24118,-0.74536405 z m -5.99197,-1.58280784 5.51677,0.1267441 a 0.5548682,0.5548682 0 0 1 0.54234,0.5673414 0.5548682,0.5548682 0 0 1 -0.56734,0.5423478 l -4.8821,-0.1127594 -2.39377,3.8663088 1.63861,3.2062627 a 0.5548682,0.5548682 0 0 1 -0.24014,0.7473198 0.5548682,0.5548682 0 0 1 -0.74836,-0.2420958 l -1.92397,-3.7621388 z m 5.16276,9.7058278 a 0.5548682,0.5548682 0 0 1 0.75099,0.2281547 l 3.84783,7.2408232 a 0.5548682,0.5548682 0 0 1 -0.23011,0.752027 0.5548682,0.5548682 0 0 1 -0.75007,-0.231151 l -3.84783,-7.2408235 a 0.5548682,0.5548682 0 0 1 0.22919,-0.7490304 z M 297.3682,-23.410339 a 0.68909581,0.68909581 0 0 1 0.51938,-0.101511 l 7.36899,1.524384 2.94776,5.547081 a 0.68909581,0.68909581 0 0 1 -0.28335,0.932657 0.68909581,0.68909581 0 0 1 -0.93395,-0.285776 l -2.64433,-4.976095 -6.73424,-1.391196 a 0.68909581,0.68909581 0 0 1 -0.53596,-0.81509 0.68909581,0.68909581 0 0 1 0.29571,-0.434456 z m -0.3286,0.34911 a 0.68909581,0.68909581 0 0 1 0.9003,-0.375608 0.68909581,0.68909581 0 0 1 0.37561,0.900303 l -2.61537,6.359653 2.64433,4.976094 a 0.68909581,0.68909581 0 0 1 -0.28578,0.933949 0.68909581,0.68909581 0 0 1 -0.93151,-0.287069 l -2.94777,-5.547081 z m 1.57029,-10.132235 a 0.68909581,0.68909581 0 0 1 0.9281,0.298231 l 2.38825,4.675961 -3.79527,6.132906 -6.85262,-0.159835 a 0.68909581,0.68909581 0 0 1 -0.67355,-0.704585 0.68909581,0.68909581 0 0 1 0.70588,-0.671117 l 6.06313,0.140037 2.97284,-4.801605 -2.03629,-3.984316 a 0.68909581,0.68909581 0 0 1 0.29952,-0.925675 z m -7.44148,-1.965704 6.85133,0.157405 a 0.68909581,0.68909581 0 0 1 0.67354,0.704586 0.68909581,0.68909581 0 0 1 -0.70458,0.673547 l -6.06313,-0.140037 -2.97284,4.801604 2.03499,3.981886 a 0.68909581,0.68909581 0 0 1 -0.29823,0.928103 0.68909581,0.68909581 0 0 1 -0.92939,-0.30066 l -2.38939,-4.672234 z m 6.41169,12.053755 a 0.68909581,0.68909581 0 0 1 0.93265,0.283348 l 4.77866,8.992443 a 0.68909581,0.68909581 0 0 1 -0.28578,0.933949 0.68909581,0.68909581 0 0 1 -0.93152,-0.287068 l -4.77865,-8.992444 a 0.68909581,0.68909581 0 0 1 0.28464,-0.930228 z m 12.56441,42.009025 a 0.47791183,0.47791183 0 0 1 0.36021,-0.0704 l 5.11065,1.057213 2.04437,3.847093 a 0.47791183,0.47791183 0 0 1 -0.19651,0.64683 0.47791183,0.47791183 0 0 1 -0.64773,-0.198195 l -1.83393,-3.451094 -4.67043,-0.964843 a 0.47791183,0.47791183 0 0 1 -0.37171,-0.565293 0.47791183,0.47791183 0 0 1 0.20508,-0.30131 z m -0.22789,0.24212 a 0.47791183,0.47791183 0 0 1 0.62439,-0.260498 0.47791183,0.47791183 0 0 1 0.2605,0.624392 l -1.81386,4.410639 1.83394,3.451094 a 0.47791183,0.47791183 0 0 1 -0.1982,0.647726 0.47791183,0.47791183 0 0 1 -0.64604,-0.199092 L 307.93298,23.9729 Z m 1.08905,-7.027057 a 0.47791183,0.47791183 0 0 1 0.64367,0.206834 l 1.65633,3.242941 -2.63215,4.253383 -4.75253,-0.110851 a 0.47791183,0.47791183 0 0 1 -0.46713,-0.488654 0.47791183,0.47791183 0 0 1 0.48955,-0.465443 l 4.20499,0.09712 2.06177,-3.330079 -1.41224,-2.763262 a 0.47791183,0.47791183 0 0 1 0.20773,-0.641987 z m -5.16093,-1.363283 4.75163,0.109166 a 0.47791183,0.47791183 0 0 1 0.46713,0.488655 0.47791183,0.47791183 0 0 1 -0.48865,0.467128 l -4.20499,-0.09712 -2.06177,3.330079 1.41134,2.761576 a 0.47791183,0.47791183 0 0 1 -0.20684,0.643672 0.47791183,0.47791183 0 0 1 -0.64456,-0.208519 l -1.65713,-3.240356 z m 4.44673,8.359697 a 0.47791183,0.47791183 0 0 1 0.64683,0.196511 l 3.31416,6.236572 a 0.47791183,0.47791183 0 0 1 -0.1982,0.647725 0.47791183,0.47791183 0 0 1 -0.64604,-0.199092 l -3.31416,-6.236571 a 0.47791183,0.47791183 0 0 1 0.19741,-0.645145 z m -39.86029,-88.091604 a 1.3400392,1.3400392 0 0 1 -1.01322,0.140764 l -14.83783,-3.845248 -5.43366,-11.573004 a 1.3400392,1.3400392 0 0 1 0.63932,-1.782677 1.3400392,1.3400392 0 0 1 1.78506,0.644402 l 4.89912,10.434509 13.62,3.523806 a 1.3400392,1.3400392 0 0 1 0.95937,1.633762 1.3400392,1.3400392 0 0 1 -0.61815,0.823683 z m -0.0762,0.0358 a 1.3400392,1.3400392 0 0 1 -1.0286,-0.05051 1.3400392,1.3400392 0 0 1 -0.63917,-1.784105 l 5.98346,-12.727854 -4.89912,-10.434508 a 1.3400392,1.3400392 0 0 1 0.6444,-1.785065 1.3400392,1.3400392 0 0 1 1.78507,0.644402 l 5.43365,11.573003 -6.52419,13.874964 a 1.3400392,1.3400392 0 0 1 -0.7555,0.689677 z m -3.4345,19.768633 a 1.3400392,1.3400392 0 0 1 -1.77189,-0.669194 l -4.38393,-9.733543 8.313,-12.05996 13.913,1.016706 a 1.3400392,1.3400392 0 0 1 1.24315,1.432294 1.3400392,1.3400392 0 0 1 -1.43468,1.238068 l -12.38358,-0.903587 -6.58821,9.550537 3.76233,8.356791 a 1.3400392,1.3400392 0 0 1 -0.66919,1.771892 z m 14.96614,4.752672 -13.91299,-1.016708 a 1.3400392,1.3400392 0 0 1 -1.23807,-1.434677 1.3400392,1.3400392 0 0 1 1.43468,-1.23807 l 12.37849,0.905975 6.58822,-9.550537 -3.76234,-8.35679 a 1.3400392,1.3400392 0 0 1 0.66919,-1.771895 1.3400392,1.3400392 0 0 1 1.77429,0.674279 l 4.38393,9.733541 z m -11.84633,-25.204753 a 1.3400392,1.3400392 0 0 1 -1.78506,-0.644402 l -8.83179,-18.810577 a 1.3400392,1.3400392 0 0 1 0.64441,-1.785065 1.3400392,1.3400392 0 0 1 1.77998,0.646788 l 8.83178,18.810578 a 1.3400392,1.3400392 0 0 1 -0.63932,1.782678 z M -10.523115,-3.6141901 a 0.61717167,0.61717167 0 0 0 -0.471292,-0.050302 l -6.456867,1.9315519 -2.200048,5.1780248 a 0.61717167,0.61717167 0 0 0 0.32514,0.8102037 0.61717167,0.61717167 0 0 0 0.811168,-0.3274071 l 1.973587,-4.64502665 5.900831,-1.76349415 a 0.61717167,0.61717167 0 0 0 0.415017,-0.7688336 0.61717167,0.61717167 0 0 0 -0.297539,-0.3647184 z m 0.320269,0.2860174 a 0.61717167,0.61717167 0 0 0 -0.832432,-0.2653308 0.61717167,0.61717167 0 0 0 -0.265331,0.8324325 l 2.826738,5.4716782 -1.973587,4.6450266 a 0.61717167,0.61717167 0 0 0 0.327409,0.8111679 0.61717167,0.61717167 0 0 0 0.8088994,-0.3283713 l 2.200048,-5.1780248 z m -2.186776,-8.9188503 a 0.61717167,0.61717167 0 0 0 -0.804987,0.338067 l -1.76836,4.3573715 3.86193,5.1778712 6.1019401,-0.6739763 a 0.61717167,0.61717167 0 0 0 0.5463452,-0.6809025 0.61717167,0.61717167 0 0 0 -0.6818661,-0.5440773 l -5.3990442,0.5950925 -3.024874,-4.0537735 1.507951,-3.7129516 a 0.61717167,0.61717167 0 0 0 -0.33903,-0.802719 z m 6.4873304,-2.330945 -6.1009754,0.671707 a 0.61717167,0.61717167 0 0 0 -0.546346,0.680904 0.61717167,0.61717167 0 0 0 0.680903,0.546345 l 5.3990438,-0.595093 3.0248741,4.0537727 -1.5069876,3.7106835 a 0.61717167,0.61717167 0 0 0 0.3380659,0.8049864 0.61717167,0.61717167 0 0 0 0.8059505,-0.3403349 l 1.7696717,-4.3541351 z m -4.7862434,11.2522822 a 0.61717167,0.61717167 0 0 0 -0.810204,0.3251397 l -3.566526,8.3941623 a 0.61717167,0.61717167 0 0 0 0.327408,0.8111674 0.61717167,0.61717167 0 0 0 0.808899,-0.3283713 l 3.566526,-8.3941623 a 0.61717167,0.61717167 0 0 0 -0.326103,-0.8079358 z M 67.84376,-11.169445 a 0.48914799,0.48914799 0 0 0 -0.359375,0.109375 l -4.111328,3.4101567 v 4.458984 a 0.48914799,0.48914799 0 0 0 0.488281,0.490234 0.48914799,0.48914799 0 0 0 0.490235,-0.490234 v -4 l 3.757812,-3.1152337 a 0.48914799,0.48914799 0 0 0 0.06445,-0.689454 0.48914799,0.48914799 0 0 0 -0.330078,-0.173828 z m 0.322266,0.109375 a 0.48914799,0.48914799 0 0 0 -0.689453,0.06445 0.48914799,0.48914799 0 0 0 0.06445,0.689454 l 3.757812,3.1152337 v 4 a 0.48914799,0.48914799 0 0 0 0.490235,0.490234 0.48914799,0.48914799 0 0 0 0.488281,-0.490234 v -4.458984 z m -4.359375,-5.828125 a 0.48914799,0.48914799 0 0 0 -0.482422,0.496094 l 0.06055,3.726563 4.421875,2.580078 4.242187,-2.382813 a 0.48914799,0.48914799 0 0 0 0.1875,-0.666015 0.48914799,0.48914799 0 0 0 -0.666015,-0.185547 l -3.753907,2.107422 -3.46289,-2.019532 -0.05078,-3.175781 a 0.48914799,0.48914799 0 0 0 -0.496094,-0.480469 z m 4.009765,-3.710937 -4.242187,2.380859 a 0.48914799,0.48914799 0 0 0 -0.1875,0.666016 0.48914799,0.48914799 0 0 0 0.666016,0.1875 l 3.753906,-2.107422 3.46289,2.019531 0.05078,3.173828 a 0.48914799,0.48914799 0 0 0 0.496093,0.482422 0.48914799,0.48914799 0 0 0 0.482422,-0.498047 l -0.05859,-3.724609 z m -0.0039,9.691406 a 0.48914799,0.48914799 0 0 0 -0.490234,0.488281 v 7.2285157 a 0.48914799,0.48914799 0 0 0 0.490234,0.490234 0.48914799,0.48914799 0 0 0 0.488281,-0.490234 V -10.419445 A 0.48914799,0.48914799 0 0 0 67.81251,-10.907726 Z M 106.8791,2.4700282 a 0.55824971,0.55824971 0 0 0 -0.41014,0.1248264 l -4.69213,3.8919083 0,5.0889031 a 0.55824971,0.55824971 0 0 0 0.55726,0.559489 0.55824971,0.55824971 0 0 0 0.55949,-0.559489 l 0,-4.5650786 4.28867,-3.5553217 a 0.55824971,0.55824971 0 0 0 0.0736,-0.7868529 0.55824971,0.55824971 0 0 0 -0.37671,-0.1983846 z m 0.3678,0.1248264 a 0.55824971,0.55824971 0 0 0 -0.78686,0.073555 0.55824971,0.55824971 0 0 0 0.0736,0.7868529 l 4.28868,3.5553217 0,4.565078 a 0.55824971,0.55824971 0 0 0 0.55949,0.559489 0.55824971,0.55824971 0 0 0 0.55726,-0.559489 l 0,-5.0889025 z m -4.97523,-6.6514617 a 0.55824971,0.55824971 0 0 0 -0.55057,0.566177 l 0.0691,4.25301289 5.04656,2.94456451 4.84147,-2.7194319 a 0.55824971,0.55824971 0 0 0 0.21399,-0.76010265 0.55824971,0.55824971 0 0 0 -0.7601,-0.21175914 l -4.28422,2.40513649 -3.95209,-2.30483037 -0.0579,-3.62442213 a 0.55824971,0.55824971 0 0 0 -0.56618,-0.5483447 z m 4.57623,-4.2351795 -4.84148,2.717202 a 0.55824971,0.55824971 0 0 0 -0.21399,0.7601038 0.55824971,0.55824971 0 0 0 0.7601,0.213988 l 4.28422,-2.4051365 3.95209,2.3048293 0.058,3.6221932 a 0.55824971,0.55824971 0 0 0 0.56617,0.55057357 0.55824971,0.55824971 0 0 0 0.55058,-0.56840587 l -0.0669,-4.2507829 z m -0.004,11.0605067 a 0.55824971,0.55824971 0 0 0 -0.55949,0.5572603 l 0,8.2496856 a 0.55824971,0.55824971 0 0 0 0.55949,0.559489 0.55824971,0.55824971 0 0 0 0.55726,-0.559489 l 0,-8.2496856 A 0.55824971,0.55824971 0 0 0 106.84344,2.7687201 Z M -60.204703,9.2284004 a 0.48914798,0.48914798 0 0 0 -0.36692,-0.080518 l -5.254309,0.9614733 -2.18245,3.888373 a 0.48914798,0.48914798 0 0 0 0.185851,0.666489 0.48914798,0.48914798 0 0 0 0.667445,-0.187554 l 1.957801,-3.488125 4.801681,-0.87732 a 0.48914798,0.48914798 0 0 0 0.393656,-0.5696799 0.48914798,0.48914798 0 0 0 -0.202758,-0.3131402 z m 0.227492,0.2531116 A 0.48914798,0.48914798 0 0 0 -60.60998,9.2002615 0.48914798,0.48914798 0 0 0 -60.891231,9.833032 l 1.752177,4.555843 -1.957801,3.488125 a 0.48914798,0.48914798 0 0 0 0.187555,0.667445 0.48914798,0.48914798 0 0 0 0.665742,-0.18851 l 2.18245,-3.888373 z m -0.948934,-7.216004 a 0.48914798,0.48914798 0 0 0 -0.6635,0.1964879 l -1.771166,3.2793155 2.593193,4.4141966 4.865588,-0.0015 a 0.48914798,0.48914798 0 0 0 0.489487,-0.4890144 0.48914798,0.48914798 0 0 0 -0.48997,-0.4877839 l -4.305002,3.872e-4 -2.031288,-3.4560072 1.510105,-2.7942345 A 0.48914798,0.48914798 0 0 0 -60.926141,2.26551 Z m 5.312959,-1.27347271 -4.864631,-1.5584e-4 a 0.48914798,0.48914798 0 0 0 -0.489488,0.48901485 0.48914798,0.48914798 0 0 0 0.489015,0.4894875 l 4.305001,-3.877e-4 2.031289,3.4560063 -1.509149,2.7925314 a 0.48914798,0.48914798 0 0 0 0.196487,0.6634999 0.48914798,0.48914798 0 0 0 0.664456,-0.198191 l 1.771918,-3.2766522 z m -4.746867,8.44929691 a 0.48914798,0.48914798 0 0 0 -0.666488,0.1858512 l -3.537999,6.3034916 a 0.48914798,0.48914798 0 0 0 0.187554,0.667445 0.48914798,0.48914798 0 0 0 0.665742,-0.188511 l 3.537998,-6.303491 A 0.48914798,0.48914798 0 0 0 -60.360053,9.4413322 Z M -96.368776,-17.098467 a 0.59328623,0.59328623 0 0 0 -0.450515,-0.06804 l -6.281969,1.584663 -2.32972,4.880779 a 0.59328623,0.59328623 0 0 0 0.27834,0.7917233 0.59328623,0.59328623 0 0 0 0.79274,-0.2804703 l 2.08991,-4.378378 5.740921,-1.446547 a 0.59328623,0.59328623 0 0 0 0.430771,-0.720998 0.59328623,0.59328623 0 0 0 -0.270481,-0.36273 z m 0.295605,0.288098 a 0.59328623,0.59328623 0 0 0 -0.788345,-0.289677 0.59328623,0.59328623 0 0 0 -0.289677,0.788346 l 2.485641,5.373289 -2.08991,4.3783783 a 0.59328623,0.59328623 0 0 0 0.280473,0.7927441 0.59328623,0.59328623 0 0 0 0.790605,-0.2814917 l 2.329718,-4.8807787 z m -1.726684,-8.657108 a 0.59328623,0.59328623 0 0 0 -0.787255,0.290967 l -1.88077,4.110711 3.492131,5.134469 5.88844,-0.391768 a 0.59328623,0.59328623 0 0 0 0.553214,-0.631051 0.59328623,0.59328623 0 0 0 -0.632072,-0.551077 l -5.210086,0.345441 -2.735301,-4.01985 1.603691,-3.502724 a 0.59328623,0.59328623 0 0 0 -0.291988,-0.785116 z m 6.327947,-1.96696 -5.88742,0.389628 a 0.59328623,0.59328623 0 0 0 -0.553214,0.631053 0.59328623,0.59328623 0 0 0 0.631053,0.553215 l 5.210085,-0.345442 2.735301,4.019849 -1.60267,3.500586 a 0.59328623,0.59328623 0 0 0 0.290966,0.787254 0.59328623,0.59328623 0 0 0 0.788275,-0.293105 l 1.881891,-4.107548 z m -5.067816,10.606118 a 0.59328623,0.59328623 0 0 0 -0.791723,0.278334 l -3.776733,7.9122936 a 0.59328623,0.59328623 0 0 0 0.28047,0.7927436 0.59328623,0.59328623 0 0 0 0.7906,-0.2814917 l 3.77674,-7.9122935 a 0.59328623,0.59328623 0 0 0 -0.279354,-0.789586 z m -19.924386,30.610133 a 0.48914798,0.48914798 0 0 0 -0.36692,-0.08052 l -5.25431,0.961473 -2.18245,3.888373 a 0.48914798,0.48914798 0 0 0 0.18585,0.666489 0.48914798,0.48914798 0 0 0 0.66745,-0.187554 l 1.9578,-3.488125 4.80168,-0.877319 a 0.48914798,0.48914798 0 0 0 0.39366,-0.569681 0.48914798,0.48914798 0 0 0 -0.20276,-0.31314 z m 0.2275,0.253111 a 0.48914798,0.48914798 0 0 0 -0.63277,-0.28125 0.48914798,0.48914798 0 0 0 -0.28126,0.63277 l 1.75218,4.555843 -1.9578,3.488125 a 0.48914798,0.48914798 0 0 0 0.18756,0.667445 0.48914798,0.48914798 0 0 0 0.66574,-0.18851 l 2.18245,-3.888373 z m -0.94894,-7.2160039 a 0.48914798,0.48914798 0 0 0 -0.6635,0.1964879 l -1.77116,3.279316 2.59319,4.414196 4.86559,-0.0015 a 0.48914798,0.48914798 0 0 0 0.48948,-0.489014 0.48914798,0.48914798 0 0 0 -0.48997,-0.487784 l -4.305,3.87e-4 -2.03129,-3.456007 1.51011,-2.7942347 a 0.48914798,0.48914798 0 0 0 -0.19745,-0.6617972 z m 5.31296,-1.2734727 -4.86463,-1.558e-4 a 0.48914798,0.48914798 0 0 0 -0.48949,0.4890148 0.48914798,0.48914798 0 0 0 0.48902,0.4894875 l 4.305,-3.877e-4 2.03129,3.4560063 -1.50915,2.7925315 a 0.48914798,0.48914798 0 0 0 0.19648,0.6635 0.48914798,0.48914798 0 0 0 0.66446,-0.198191 l 1.77192,-3.2766524 z m -4.74687,8.4492966 a 0.48914798,0.48914798 0 0 0 -0.66649,0.185851 l -3.53799,6.303492 a 0.48914798,0.48914798 0 0 0 0.18755,0.667445 0.48914798,0.48914798 0 0 0 0.66574,-0.18851 l 3.538,-6.303492 a 0.48914798,0.48914798 0 0 0 -0.18681,-0.664786 z M 35.681886,-24.19731 a 0.67365359,0.67365359 0 0 0 -0.516397,-0.03132 l -6.943961,2.428511 -2.140335,5.755837 a 0.67365359,0.67365359 0 0 0 0.394978,0.867192 0.67365359,0.67365359 0 0 0 0.86813,-0.397499 l 1.920021,-5.163362 6.346064,-2.217502 a 0.67365359,0.67365359 0 0 0 0.414136,-0.859039 0.67365359,0.67365359 0 0 0 -0.34264,-0.382823 z m 0.363493,0.295875 a 0.67365359,0.67365359 0 0 0 -0.92091,-0.247746 0.67365359,0.67365359 0 0 0 -0.247747,0.920912 l 3.355408,5.825039 -1.92002,5.163362 a 0.67365359,0.67365359 0 0 0 0.397501,0.868129 0.67365359,0.67365359 0 0 0 0.865607,-0.398437 l 2.140335,-5.755837 z m -2.829728,-9.615701 a 0.67365359,0.67365359 0 0 0 -0.860858,0.408813 l -1.710608,4.839463 4.469485,5.452991 6.619749,-1.03956 a 0.67365359,0.67365359 0 0 0 0.561723,-0.769719 0.67365359,0.67365359 0 0 0 -0.770656,-0.559202 l -5.857268,0.918452 -3.500653,-4.269099 1.458841,-4.123801 a 0.67365359,0.67365359 0 0 0 -0.40975,-0.858336 z m 6.957235,-2.865521 -6.618811,1.037038 a 0.67365359,0.67365359 0 0 0 -0.561724,0.76972 0.67365359,0.67365359 0 0 0 0.76972,0.561723 l 5.857267,-0.918452 3.500654,4.269098 -1.457905,4.12128 a 0.67365359,0.67365359 0 0 0 0.408812,0.860857 0.67365359,0.67365359 0 0 0 0.861795,-0.411334 l 1.712201,-4.836 z m -4.656965,12.508185 a 0.67365359,0.67365359 0 0 0 -0.867192,0.394978 l -3.469724,9.330861 a 0.67365359,0.67365359 0 0 0 0.397499,0.868129 0.67365359,0.67365359 0 0 0 0.865608,-0.398437 l 3.469724,-9.330861 a 0.67365359,0.67365359 0 0 0 -0.395915,-0.86467 z m -172.647981,12.449267 a 0.54005184,0.55148001 0.65895813 0 0 -0.40508,-0.09068 l -5.80138,1.085402 -2.41063,4.3844425 a 0.54005184,0.55148001 0.65895813 0 0 0.20502,0.7513671 0.54005184,0.55148001 0.65895813 0 0 0.73695,-0.2116324 l 2.16249,-3.9331312 5.30162,-0.990404 a 0.54005184,0.55148001 0.65895813 0 0 0.43478,-0.642378 0.54005184,0.55148001 0.65895813 0 0 -0.22377,-0.352988 z m 0.2511,0.285304 a 0.54005184,0.55148001 0.65895813 0 0 -0.69855,-0.316919 0.54005184,0.55148001 0.65895813 0 0 -0.31069,0.713478 l 1.9333,5.1359081 -2.16248,3.9331312 a 0.54005184,0.55148001 0.65895813 0 0 0.20689,0.75244494 0.54005184,0.55148001 0.65895813 0 0 0.73508,-0.21271024 l 2.41062,-4.3844422 z m -1.04575,-8.135261 a 0.54005184,0.55148001 0.65895813 0 0 -0.73261,0.221704 l -1.95637,3.697664 2.86188,4.975986 5.37195,-0.0031 a 0.54005184,0.55148001 0.65895813 0 0 0.54056,-0.551459 0.54005184,0.55148001 0.65895813 0 0 -0.54083,-0.549809 l -4.75302,0.0016 -2.24176,-3.895849 1.66802,-3.150701 a 0.54005184,0.55148001 0.65895813 0 0 -0.21782,-0.746074 z m 5.86622,-1.437174 -5.3709,0.0011 a 0.54005184,0.55148001 0.65895813 0 0 -0.54055,0.55146 0.54005184,0.55148001 0.65895813 0 0 0.53977,0.55173 l 4.75302,-0.0016 2.24176,3.895848 -1.66696,3.14878 a 0.54005184,0.55148001 0.65895813 0 0 0.21676,0.747995 0.54005184,0.55148001 0.65895813 0 0 0.73366,-0.223625 l 1.9572,-3.694661 z m -5.24315,9.527238 a 0.54005184,0.55148001 0.65895813 0 0 -0.73589,0.209713 l -3.90789,7.1076752 a 0.54005184,0.55148001 0.65895813 0 0 0.20689,0.7524444 0.54005184,0.55148001 0.65895813 0 0 0.73507,-0.2127102 l 3.90789,-7.1076754 a 0.54005184,0.55148001 0.65895813 0 0 -0.20607,-0.749447 z m 33.33842,-63.802566 a 1.1918608,1.1918608 0 0 0 0.9098,-0.0079 l 12.555535,-5.312135 3.276515,-10.889093 a 1.1918608,1.1918608 0 0 0 -0.794253,-1.48542 1.1918608,1.1918608 0 0 0 -1.48686,0.799036 l -2.954187,9.817878 -11.52578,4.870998 a 1.1918608,1.1918608 0 0 0 -0.63175,1.562213 1.1918608,1.1918608 0 0 0 0.65097,0.644379 z m 0.0717,0.02158 a 1.1918608,1.1918608 0 0 0 0.89847,-0.178157 1.1918608,1.1918608 0 0 0 0.33046,-1.652869 l -6.9192,-10.421071 2.95418,-9.817878 a 1.1918608,1.1918608 0 0 0 -0.79903,-1.48686 1.1918608,1.1918608 0 0 0 -1.48686,0.799037 l -3.27652,10.889093 7.5441,11.360088 a 1.1918608,1.1918608 0 0 0 0.7544,0.508617 z m 5.59169,16.947399 a 1.1918608,1.1918608 0 0 0 1.472049,-0.819138 l 2.592008,-9.134148 -8.882087,-9.530585 -12.10948,2.703159 a 1.1918608,1.1918608 0 0 0 -0.90763,1.421836 1.1918608,1.1918608 0 0 0 1.42328,0.902842 l 10.77849,-2.404815 7.038289,7.546826 -2.22405,7.841978 a 1.1918608,1.1918608 0 0 0 0.819138,1.472047 z m -12.55046,6.12723 12.109478,-2.703161 a 1.1918608,1.1918608 0 0 0 0.902844,-1.423271 1.1918608,1.1918608 0 0 0 -1.423273,-0.902845 l -10.773709,2.406256 -7.03829,-7.546825 2.22405,-7.841979 a 1.1918608,1.1918608 0 0 0 -0.81914,-1.472049 1.1918608,1.1918608 0 0 0 -1.47349,0.823922 l -2.592,9.134146 z m 7.14681,-23.716882 a 1.1918608,1.1918608 0 0 0 1.48686,-0.799037 l 5.325593,-17.69896 a 1.1918608,1.1918608 0 0 0 -0.799037,-1.48686 1.1918608,1.1918608 0 0 0 -1.482078,0.800476 l -5.325598,17.69896 a 1.1918608,1.1918608 0 0 0 0.79426,1.485421 z m 42.637557,28.1068 a 0.99321774,0.99321774 0 0 0 0.761699,0.04023 l 10.20977,-3.660256 3.089387,-8.510608 a 0.99321774,0.99321774 0 0 0 -0.592297,-1.273985 0.99321774,0.99321774 0 0 0 -1.27534,0.596024 l -2.771383,7.634572 -9.330698,3.342285 a 0.99321774,0.99321774 0 0 0 -0.600697,1.271268 0.99321774,0.99321774 0 0 0 0.509565,0.560469 z m -0.539311,-0.432038 a 0.99321774,0.99321774 0 0 0 1.360574,0.354673 0.99321774,0.99321774 0 0 0 0.354673,-1.360576 l -5.013945,-8.549453 2.771383,-7.634572 a 0.99321774,0.99321774 0 0 0 -0.596027,-1.275339 0.99321774,0.99321774 0 0 0 -1.27161,0.597378 l -3.089388,8.510609 z m 4.282499,14.144184 a 0.99321774,0.99321774 0 0 0 1.264488,-0.612622 l 2.466365,-7.15463 -6.652184,-7.988125 -9.747742,1.608758 a 0.99321774,0.99321774 0 0 0 -0.819317,1.141276 0.99321774,0.99321774 0 0 0 1.14263,0.815589 l 8.624986,-1.421438 5.210197,6.253814 -2.103406,6.096615 a 0.99321774,0.99321774 0 0 0 0.613976,1.26076 z m -10.224316,4.304705 9.746388,-1.605028 a 0.99321774,0.99321774 0 0 0 0.819317,-1.141279 0.99321774,0.99321774 0 0 0 -1.141278,-0.819317 l -8.624985,1.421439 -5.210197,-6.253812 2.102052,-6.092887 a 0.99321774,0.99321774 0 0 0 -0.61262,-1.264488 0.99321774,0.99321774 0 0 0 -1.265841,0.61635 l -2.468752,7.149543 z m 6.722104,-18.494727 a 0.99321774,0.99321774 0 0 0 1.273985,-0.592298 l 5.008247,-13.796656 a 0.99321774,0.99321774 0 0 0 -0.596026,-1.275338 0.99321774,0.99321774 0 0 0 -1.27161,0.597378 l -5.008247,13.796656 a 0.99321774,0.99321774 0 0 0 0.593651,1.270258 z m 60.78879161,-25.260485 a 1.5811014,1.5811014 0 0 0 1.20999989,-0.02857 l 19.2548285,-8.521076 4.779517,-16.88556 a 1.5811014,1.5811014 0 0 0 -1.084806,-1.952623 1.5811014,1.5811014 0 0 0 -1.954745,1.092268 l -4.375762,15.459137 -17.89699504,7.913234 a 1.5811014,1.5811014 0 0 0 -0.80831214,2.086298 1.5811014,1.5811014 0 0 0 0.87629391,0.836894 z m 0.06721698,0.01903 a 1.5811014,1.5811014 0 0 0 1.18492231,-0.25346 1.5811014,1.5811014 0 0 0 0.4050638,-2.200439 L -9.4754037,-91.79414 -5.099641,-107.25328 a 1.5811014,1.5811014 0 0 0 -1.0922769,-1.95474 1.5811014,1.5811014 0 0 0 -1.9547412,1.09227 l -4.7795169,16.885565 11.93976566,17.350814 a 1.5811014,1.5811014 0 0 0 1.01552538,0.658493 z M 9.1738955,-47.021675 A 1.5811014,1.5811014 0 0 0 11.105108,-48.14481 L 14.857313,-62.255871 1.0208,-76.610432 l -18.59101,4.465983 a 1.5811014,1.5811014 0 0 0 -1.170182,1.911271 1.5811014,1.5811014 0 0 0 1.903801,1.168063 L 0.00697979,-73.114194 11.341291,-61.347396 8.0507604,-48.952887 a 1.5811014,1.5811014 0 0 0 1.1231351,1.931212 z m -19.3284235,9.807024 18.5931231,-4.473448 a 1.5811014,1.5811014 0 0 0 1.1680684,-1.903804 1.5811014,1.5811014 0 0 0 -1.9038037,-1.168068 l -16.8414538,4.041615 -11.341778,-11.768915 3.295872,-12.384926 a 1.5811014,1.5811014 0 0 0 -1.121018,-1.938679 1.5811014,1.5811014 0 0 0 -1.931211,1.123131 l -3.752206,14.111065 z M 0.32728918,-74.217378 a 1.5811014,1.5811014 0 0 0 1.95474112,-1.092273 l 7.8235257,-27.639739 a 1.5811014,1.5811014 0 0 0 -1.0922734,-1.95474 1.5811014,1.5811014 0 0 0 -1.9472773,1.09438 l -7.82352535,27.639744 a 1.5811014,1.5811014 0 0 0 1.08480923,1.952628 z" />
    </g>
    <g
       id="g1133"
       transform="matrix(1.1267912,0,0,1.1267912,-0.94056327,-24.5588)"
       style="fill:#77545c;fill-opacity:1;stroke-width:1.16466">
      <circle
         style="fill:#77545c;fill-opacity:1;stroke:none;stroke-width:0.6988;stroke-linecap:round;stroke-linejoin:round;stroke-miterlimit:4;stroke-dasharray:1.39759, 1.39759;stroke-dashoffset:0;stroke-opacity:1"
         id="path56014"
         cx="47.191654"
         cy="40.220917"
         r="1" />
      <circle
         style="fill:#77545c;fill-opacity:1;stroke:none;stroke-width:0.6988;stroke-linecap:round;stroke-linejoin:round;stroke-miterlimit:4;stroke-dasharray:1.39759, 1.39759;stroke-dashoffset:0;stroke-opacity:1"
         id="circle59923"
         cx="53.17881"
         cy="40.241779"
         r="1" />
    </g>
    <g
       id="g2774"
       transform="matrix(1.3840574,0,0,1.3805017,-6.3998903,1.0875816)"
       style="stroke:#b4c1cf;stroke-width:0.949399;stroke-opacity:1">
      <path
         style="fill:none;stroke:#b4c1cf;stroke-width:0.755471;stroke-linecap:round;stroke-linejoin:miter;stroke-miterlimit:4;stroke-dasharray:none;stroke-opacity:1"
         d="m 44.768654,18.834098 v 7.229029"
         id="path1109" />
      <path
         style="fill:none;stroke:#b4c1cf;stroke-width:0.755471;stroke-linecap:round;stroke-linejoin:miter;stroke-miterlimit:4;stroke-dasharray:none;stroke-opacity:1"
         d="m 40.770787,11.462333 3.997867,-2.2453805 3.943106,2.3001415 0.05479,3.450221"
         id="path1105" />
      <path
         style="fill:none;stroke:#b4c1cf;stroke-width:0.755471;stroke-linecap:round;stroke-linejoin:miter;stroke-miterlimit:4;stroke-dasharray:none;stroke-opacity:1"
         d="m 48.766526,16.359309 -3.997867,2.245381 -3.943106,-2.300147 -0.05479,-3.450216"
         id="path1107" />
      <path
         style="fill:none;stroke:#b4c1cf;stroke-width:0.755471;stroke-linecap:round;stroke-linejoin:miter;stroke-miterlimit:4;stroke-dasharray:none;stroke-opacity:1"
         d="m 44.81036,18.570106 3.935501,3.263436 v 4.229585"
         id="path1111" />
      <path
         style="fill:none;stroke:#b4c1cf;stroke-width:0.755471;stroke-linecap:round;stroke-linejoin:miter;stroke-miterlimit:4;stroke-dasharray:none;stroke-opacity:1"
         d="m 44.754427,18.570106 -3.935505,3.263436 v 4.229585"
         id="path1114" />
    </g>
    <path
       style="fill:none;stroke:#b4c1cf;stroke-width:0.861783;stroke-linecap:butt;stroke-linejoin:miter;stroke-miterlimit:4;stroke-dasharray:none;stroke-opacity:1"
       d="m 56.725018,18.366776 c 1.18712,1.071646 1.856357,0.567213 2.504964,0"
       id="path15261" />
    <path
       style="fill:none;stroke:#b4c1cf;stroke-width:0.861783;stroke-linecap:butt;stroke-linejoin:miter;stroke-miterlimit:4;stroke-dasharray:none;stroke-opacity:1"
       d="m 51.872441,18.342596 c 1.187119,1.071645 1.856355,0.567213 2.504961,0"
       id="path13651" />
    <path
       style="fill:none;stroke:#b4c1cf;stroke-width:0.861783;stroke-linecap:round;stroke-linejoin:miter;stroke-miterlimit:4;stroke-dasharray:none;stroke-opacity:1"
       d="m 52.720773,21.889885 c 2.408685,0.691669 4.254911,0.671343 6.137415,0.0126"
       id="path11885" />
    <path
       id="rect1875"
       clip-path="url(#clipPath25958)"
       style="fill:none;stroke:#b4c1cf;stroke-width:1.33632;stroke-linecap:round;stroke-linejoin:round"
       transform="matrix(1.0038635,0,0,0.85372408,-0.21461035,9.1337115)"
       d="m 14.255281,34.444321 h 82.614327 c 7.408832,0 13.373332,5.572789 13.373332,12.495042 v 17.409733 c 0,6.922254 -5.9645,12.495043 -13.373332,12.495043 H 14.255281 c -7.4088284,0 -13.37333658,-5.572789 -13.37333658,-12.495043 V 46.939363 c 0,-6.922253 5.96450818,-12.495042 13.37333658,-12.495042 z" />
  </g>
</svg>
