<?xml version="1.0" encoding="UTF-8" standalone="no"?>
<!-- Created with Inkscape (http://www.inkscape.org/) -->

<svg
   width="20.959999mm"
   height="6.5599999mm"
   viewBox="0 0 20.959999 6.5599999"
   version="1.1"
   id="svg1296"
   xmlns="http://www.w3.org/2000/svg"
   xmlns:svg="http://www.w3.org/2000/svg">
  <defs
     id="defs1293">
    <rect
       x="470.14453"
       y="629.40643"
       width="227.65591"
       height="71.800522"
       id="rect3737" />
    <rect
       x="470.14453"
       y="629.40643"
       width="227.65591"
       height="71.800522"
       id="rect5547" />
    <rect
       x="470.14453"
       y="629.40643"
       width="227.65591"
       height="71.800522"
       id="rect19171" />
    <rect
       x="470.14453"
       y="629.40643"
       width="227.65591"
       height="71.800522"
       id="rect1149" />
  </defs>
  <g
     id="g1300">
    <circle
       style="fill:#ffdd55;fill-opacity:1;stroke:#3f3f3f;stroke-width:0.154;stroke-linecap:round;stroke-miterlimit:4;stroke-dasharray:none;stroke-opacity:1"
       id="path1140"
       cy="3.2594719"
       cx="3.2515256"
       r="2.4591665" />
    <g
       id="g1116"
       transform="matrix(0.10487853,0,0,0.10487853,-2.48008,-2.6128299)"
       style="stroke:#3f3f3f;stroke-width:1.46837;stroke-miterlimit:4;stroke-dasharray:none;stroke-opacity:1">
      <path
         style="fill:none;stroke:#3f3f3f;stroke-width:1.46837;stroke-linecap:round;stroke-linejoin:miter;stroke-miterlimit:4;stroke-dasharray:none;stroke-opacity:1"
         d="m 47.759868,45.400192 6.890258,-3.869872 6.79587,3.964257 0.09439,5.946389"
         id="path1105" />
      <path
         style="fill:none;stroke:#3f3f3f;stroke-width:1.46837;stroke-linecap:round;stroke-linejoin:miter;stroke-miterlimit:4;stroke-dasharray:none;stroke-opacity:1"
         d="m 61.540386,53.840043 -6.890258,3.869872 -6.79587,-3.964257 -0.09439,-5.946389"
         id="path1107" />
      <path
         style="fill:none;stroke:#3f3f3f;stroke-width:1.46837;stroke-linecap:round;stroke-linejoin:miter;stroke-miterlimit:4;stroke-dasharray:none;stroke-opacity:1"
         d="M 54.650126,58.105294 V 70.56439"
         id="path1109" />
      <path
         style="fill:none;stroke:#3f3f3f;stroke-width:1.46837;stroke-linecap:round;stroke-linejoin:miter;stroke-miterlimit:4;stroke-dasharray:none;stroke-opacity:1"
         d="m 54.722,57.650305 6.782771,5.624471 v 7.289614"
         id="path1111" />
      <path
         style="fill:none;stroke:#3f3f3f;stroke-width:1.46837;stroke-linecap:round;stroke-linejoin:miter;stroke-miterlimit:4;stroke-dasharray:none;stroke-opacity:1"
         d="m 54.6256,57.650305 -6.782771,5.624471 v 7.289614"
         id="path1114" />
    </g>
    <path
       style="fill:none;stroke:#3f3f3f;stroke-width:0.154;stroke-linecap:round;stroke-linejoin:miter;stroke-miterlimit:4;stroke-dasharray:none;stroke-opacity:1"
       d="M 3.252,0.077 V 0.7094001"
       id="path1273" />
    <path
       style="fill:none;stroke:#3f3f3f;stroke-width:0.154;stroke-linecap:round;stroke-linejoin:miter;stroke-miterlimit:4;stroke-dasharray:none;stroke-opacity:1"
       d="M 3.82002,0.12159 3.74232,0.7492001"
       id="path1388" />
    <path
       style="fill:none;stroke:#3f3f3f;stroke-width:0.154;stroke-linecap:round;stroke-linejoin:miter;stroke-miterlimit:4;stroke-dasharray:none;stroke-opacity:1"
       d="M 4.30847,0.27949 4.1557,0.8931601"
       id="path1390" />
    <path
       style="fill:none;stroke:#3f3f3f;stroke-width:0.154;stroke-linecap:round;stroke-linejoin:miter;stroke-miterlimit:4;stroke-dasharray:none;stroke-opacity:1"
       d="m 4.80018,0.5114401 -0.23436,0.58737"
       id="path1392" />
    <path
       style="fill:none;stroke:#3f3f3f;stroke-width:0.154;stroke-linecap:round;stroke-linejoin:miter;stroke-miterlimit:4;stroke-dasharray:none;stroke-opacity:1"
       d="M 5.31544,0.8279201 4.9524,1.3457301"
       id="path1394" />
    <path
       style="fill:none;stroke:#3f3f3f;stroke-width:0.154;stroke-linecap:round;stroke-linejoin:miter;stroke-miterlimit:4;stroke-dasharray:none;stroke-opacity:1"
       d="m 5.72478,1.2649601 -0.45529,0.43891"
       id="path1398" />
    <path
       style="fill:none;stroke:#3f3f3f;stroke-width:0.154;stroke-linecap:round;stroke-linejoin:miter;stroke-miterlimit:4;stroke-dasharray:none;stroke-opacity:1"
       d="m 6.0246,1.7134301 -0.52283,0.35578"
       id="path1400" />
    <path
       style="fill:none;stroke:#3f3f3f;stroke-width:0.154;stroke-linecap:round;stroke-linejoin:miter;stroke-miterlimit:4;stroke-dasharray:none;stroke-opacity:1"
       d="m 6.37252,2.7319201 -0.62396,0.10291"
       id="path1402" />
    <path
       style="fill:none;stroke:#3f3f3f;stroke-width:0.154;stroke-linecap:round;stroke-linejoin:miter;stroke-miterlimit:4;stroke-dasharray:none;stroke-opacity:1"
       d="m 6.26097,2.2169101 -0.58866,0.2311"
       id="path1404" />
    <path
       style="fill:none;stroke:#3f3f3f;stroke-width:0.154;stroke-linecap:round;stroke-linejoin:miter;stroke-miterlimit:4;stroke-dasharray:none;stroke-opacity:1"
       d="m 2.67088,0.12159 0.0777,0.6276101"
       id="path1592" />
    <path
       style="fill:none;stroke:#3f3f3f;stroke-width:0.154;stroke-linecap:round;stroke-linejoin:miter;stroke-miterlimit:4;stroke-dasharray:none;stroke-opacity:1"
       d="M 2.18243,0.27949 2.3352,0.8931601"
       id="path1594" />
    <path
       style="fill:none;stroke:#3f3f3f;stroke-width:0.154;stroke-linecap:round;stroke-linejoin:miter;stroke-miterlimit:4;stroke-dasharray:none;stroke-opacity:1"
       d="m 1.69072,0.5114401 0.23436,0.58737"
       id="path1596" />
    <path
       style="fill:none;stroke:#3f3f3f;stroke-width:0.154;stroke-linecap:round;stroke-linejoin:miter;stroke-miterlimit:4;stroke-dasharray:none;stroke-opacity:1"
       d="m 1.17546,0.8279201 0.36304,0.51781"
       id="path1598" />
    <path
       style="fill:none;stroke:#3f3f3f;stroke-width:0.154;stroke-linecap:round;stroke-linejoin:miter;stroke-miterlimit:4;stroke-dasharray:none;stroke-opacity:1"
       d="M 0.077,3.2594701 H 0.7094"
       id="path1600" />
    <path
       style="fill:none;stroke:#3f3f3f;stroke-width:0.154;stroke-linecap:round;stroke-linejoin:miter;stroke-miterlimit:4;stroke-dasharray:none;stroke-opacity:1"
       d="m 0.76612,1.2649601 0.45529,0.43891"
       id="path1602" />
    <path
       style="fill:none;stroke:#3f3f3f;stroke-width:0.154;stroke-linecap:round;stroke-linejoin:miter;stroke-miterlimit:4;stroke-dasharray:none;stroke-opacity:1"
       d="m 0.4663,1.7134301 0.52283,0.35578"
       id="path1604" />
    <path
       style="fill:none;stroke:#3f3f3f;stroke-width:0.154;stroke-linecap:round;stroke-linejoin:miter;stroke-miterlimit:4;stroke-dasharray:none;stroke-opacity:1"
       d="m 0.11838,2.7319201 0.62396,0.10291"
       id="path1606" />
    <path
       style="fill:none;stroke:#3f3f3f;stroke-width:0.154;stroke-linecap:round;stroke-linejoin:miter;stroke-miterlimit:4;stroke-dasharray:none;stroke-opacity:1"
       d="m 0.22993,2.2169101 0.58866,0.2311"
       id="path1608" />
    <path
       style="fill:none;stroke:#3f3f3f;stroke-width:0.154;stroke-linecap:round;stroke-linejoin:miter;stroke-miterlimit:4;stroke-dasharray:none;stroke-opacity:1"
       d="m 3.2389,6.4794001 v -0.6324"
       id="path1610" />
    <path
       style="fill:none;stroke:#3f3f3f;stroke-width:0.154;stroke-linecap:round;stroke-linejoin:miter;stroke-miterlimit:4;stroke-dasharray:none;stroke-opacity:1"
       d="m 3.80692,6.3973601 -0.0777,-0.62761"
       id="path1612" />
    <path
       style="fill:none;stroke:#3f3f3f;stroke-width:0.154;stroke-linecap:round;stroke-linejoin:miter;stroke-miterlimit:4;stroke-dasharray:none;stroke-opacity:1"
       d="M 4.29537,6.2394601 4.1426,5.6257901"
       id="path1614" />
    <path
       style="fill:none;stroke:#3f3f3f;stroke-width:0.154;stroke-linecap:round;stroke-linejoin:miter;stroke-miterlimit:4;stroke-dasharray:none;stroke-opacity:1"
       d="M 4.78707,6.0075101 4.55272,5.4201401"
       id="path1616" />
    <path
       style="fill:none;stroke:#3f3f3f;stroke-width:0.154;stroke-linecap:round;stroke-linejoin:miter;stroke-miterlimit:4;stroke-dasharray:none;stroke-opacity:1"
       d="M 5.30233,5.6910301 4.93929,5.1732201"
       id="path1618" />
    <path
       style="fill:none;stroke:#3f3f3f;stroke-width:0.154;stroke-linecap:round;stroke-linejoin:miter;stroke-miterlimit:4;stroke-dasharray:none;stroke-opacity:1"
       d="M 6.4008,3.2594701 H 5.7684"
       id="path1620" />
    <path
       style="fill:none;stroke:#3f3f3f;stroke-width:0.154;stroke-linecap:round;stroke-linejoin:miter;stroke-miterlimit:4;stroke-dasharray:none;stroke-opacity:1"
       d="M 5.71167,5.2539901 5.25638,4.8150801"
       id="path1622" />
    <path
       style="fill:none;stroke:#3f3f3f;stroke-width:0.154;stroke-linecap:round;stroke-linejoin:miter;stroke-miterlimit:4;stroke-dasharray:none;stroke-opacity:1"
       d="M 6.0115,4.8055201 5.48867,4.4497401"
       id="path1624" />
    <path
       style="fill:none;stroke:#3f3f3f;stroke-width:0.154;stroke-linecap:round;stroke-linejoin:miter;stroke-miterlimit:4;stroke-dasharray:none;stroke-opacity:1"
       d="M 6.35942,3.7870301 5.73545,3.6841201"
       id="path1626" />
    <path
       style="fill:none;stroke:#3f3f3f;stroke-width:0.154;stroke-linecap:round;stroke-linejoin:miter;stroke-miterlimit:4;stroke-dasharray:none;stroke-opacity:1"
       d="m 6.24787,4.3020401 -0.58866,-0.2311"
       id="path1628" />
    <path
       style="fill:none;stroke:#3f3f3f;stroke-width:0.154;stroke-linecap:round;stroke-linejoin:miter;stroke-miterlimit:4;stroke-dasharray:none;stroke-opacity:1"
       d="m 2.65777,6.3973601 0.0777,-0.62761"
       id="path1814" />
    <path
       style="fill:none;stroke:#3f3f3f;stroke-width:0.154;stroke-linecap:round;stroke-linejoin:miter;stroke-miterlimit:4;stroke-dasharray:none;stroke-opacity:1"
       d="M 2.16933,6.2394601 2.3221,5.6257901"
       id="path1817" />
    <path
       style="fill:none;stroke:#3f3f3f;stroke-width:0.154;stroke-linecap:round;stroke-linejoin:miter;stroke-miterlimit:4;stroke-dasharray:none;stroke-opacity:1"
       d="m 1.67762,6.0075101 0.23436,-0.58737"
       id="path1819" />
    <path
       style="fill:none;stroke:#3f3f3f;stroke-width:0.154;stroke-linecap:round;stroke-linejoin:miter;stroke-miterlimit:4;stroke-dasharray:none;stroke-opacity:1"
       d="M 1.16236,5.6910301 1.5254,5.1732201"
       id="path1821" />
    <path
       style="fill:none;stroke:#3f3f3f;stroke-width:0.154;stroke-linecap:round;stroke-linejoin:miter;stroke-miterlimit:4;stroke-dasharray:none;stroke-opacity:1"
       d="m 0.75302,5.2539901 0.45529,-0.43891"
       id="path1825" />
    <path
       style="fill:none;stroke:#3f3f3f;stroke-width:0.154;stroke-linecap:round;stroke-linejoin:miter;stroke-miterlimit:4;stroke-dasharray:none;stroke-opacity:1"
       d="m 0.4532,4.8055201 0.52283,-0.35578"
       id="path1827" />
    <path
       style="fill:none;stroke:#3f3f3f;stroke-width:0.154;stroke-linecap:round;stroke-linejoin:miter;stroke-miterlimit:4;stroke-dasharray:none;stroke-opacity:1"
       d="m 0.10527,3.7870301 0.62397,-0.10291"
       id="path1829" />
    <path
       style="fill:none;stroke:#3f3f3f;stroke-width:0.154;stroke-linecap:round;stroke-linejoin:miter;stroke-miterlimit:4;stroke-dasharray:none;stroke-opacity:1"
       d="m 0.21683,4.3020401 0.58866,-0.2311"
       id="path1831" />
    <circle
       style="fill:none;stroke:#3f3f3f;stroke-width:0.154;stroke-linecap:round;stroke-miterlimit:4;stroke-dasharray:none;stroke-opacity:1"
       id="path2452"
       cy="3.2050438"
       cx="4.959106"
       r="0.3563759" />
    <circle
       style="fill:none;stroke:#3f3f3f;stroke-width:0.154;stroke-linecap:round;stroke-miterlimit:4;stroke-dasharray:none;stroke-opacity:1"
       id="circle2534"
       cy="4.085186"
       cx="4.7809291"
       r="0.17818795" />
    <path
       style="fill:none;stroke:#3f3f3f;stroke-width:0.164466;stroke-linecap:round;stroke-miterlimit:4;stroke-dasharray:none;stroke-opacity:1"
       id="circle2814"
       d="M 1.3593575,2.570675 A 2.0137331,2.0137289 0 0 1 3.6013288,1.2762751" />
    <g
       aria-label="Phage &amp; Host"
       transform="matrix(0.09442838,0,0,0.09442838,-37.040845,-58.455935)"
       id="text3735"
       style="font-size:8px;line-height:1.25;white-space:pre;shape-inside:url(#rect3737);fill:#3f3f3f;fill-opacity:1">
      <path
         d="m 482.47518,637.79024 q 0,1.19466 -0.576,2.23999 -0.55467,1.04533 -1.77066,1.68533 -1.19467,0.64 -3.02933,0.64 h -2.496 v 5.71733 h -2.98666 v -14.89065 h 5.48266 q 1.72799,0 2.94399,0.59734 1.216,0.59733 1.81333,1.64266 0.61867,1.04533 0.61867,2.368 z m -5.50399,2.15466 q 1.23733,0 1.83466,-0.55467 0.59733,-0.57599 0.59733,-1.59999 0,-2.176 -2.43199,-2.176 h -2.368 v 4.33066 z"
         style="font-weight:600;font-size:21.3333px;font-family:Poppins;-inkscape-font-specification:'Poppins, Semi-Bold';fill:#3f3f3f;fill-opacity:1"
         id="path6129" />
      <path
         d="m 491.23083,636.08357 q 1.344,0 2.38933,0.59734 1.04533,0.57599 1.62133,1.72799 0.59733,1.13067 0.59733,2.73066 v 6.93333 h -2.98666 v -6.52799 q 0,-1.408 -0.704,-2.15467 -0.704,-0.76799 -1.91999,-0.76799 -1.23734,0 -1.96267,0.76799 -0.704,0.74667 -0.704,2.15467 v 6.52799 h -2.98666 v -15.78664 h 2.98666 v 5.43999 q 0.576,-0.768 1.536,-1.19467 0.96,-0.448 2.13333,-0.448 z"
         style="font-weight:600;font-size:21.3333px;font-family:Poppins;-inkscape-font-specification:'Poppins, Semi-Bold';fill:#3f3f3f;fill-opacity:1"
         id="path6131" />
      <path
         d="m 497.89015,642.1209 q 0,-1.792 0.704,-3.17867 0.72534,-1.38666 1.94133,-2.13333 1.23733,-0.74666 2.752,-0.74666 1.32266,0 2.304,0.53333 1.00266,0.53333 1.59999,1.344 v -1.68533 h 3.008 v 11.81865 h -3.008 v -1.728 q -0.576,0.832 -1.59999,1.38666 -1.00267,0.53334 -2.32533,0.53334 -1.49334,0 -2.73067,-0.768 -1.21599,-0.768 -1.94133,-2.15467 -0.704,-1.40799 -0.704,-3.22132 z m 9.30132,0.0427 q 0,-1.088 -0.42666,-1.85599 -0.42667,-0.78934 -1.152,-1.19467 -0.72533,-0.42666 -1.55733,-0.42666 -0.832,0 -1.536,0.40533 -0.704,0.40533 -1.152,1.19466 -0.42666,0.768 -0.42666,1.83467 0,1.06666 0.42666,1.87733 0.448,0.78933 1.152,1.216 0.72533,0.42666 1.536,0.42666 0.832,0 1.55733,-0.40533 0.72533,-0.42667 1.152,-1.19467 0.42666,-0.78933 0.42666,-1.87733 z"
         style="font-weight:600;font-size:21.3333px;font-family:Poppins;-inkscape-font-specification:'Poppins, Semi-Bold';fill:#3f3f3f;fill-opacity:1"
         id="path6133" />
      <path
         d="m 517.74579,636.06224 q 1.32266,0 2.32533,0.53333 1.00266,0.512 1.57866,1.344 v -1.68533 h 3.008 v 11.90398 q 0,1.64266 -0.66133,2.92266 -0.66134,1.30133 -1.984,2.048 -1.32266,0.768 -3.19999,0.768 -2.51733,0 -4.13867,-1.17333 -1.59999,-1.17333 -1.81333,-3.2 h 2.96533 q 0.23467,0.81067 1.00267,1.28 0.78933,0.49067 1.89866,0.49067 1.30133,0 2.112,-0.78934 0.81066,-0.768 0.81066,-2.34666 v -1.83466 q -0.576,0.832 -1.59999,1.38666 -1.00267,0.55467 -2.304,0.55467 -1.49333,0 -2.73066,-0.768 -1.23733,-0.768 -1.96267,-2.15467 -0.70399,-1.40799 -0.70399,-3.22132 0,-1.792 0.70399,-3.17867 0.72534,-1.38666 1.94133,-2.13333 1.23734,-0.74666 2.752,-0.74666 z m 3.90399,6.10132 q 0,-1.088 -0.42666,-1.85599 -0.42667,-0.78934 -1.152,-1.19467 -0.72533,-0.42666 -1.55733,-0.42666 -0.832,0 -1.536,0.40533 -0.704,0.40533 -1.152,1.19466 -0.42666,0.768 -0.42666,1.83467 0,1.06666 0.42666,1.87733 0.448,0.78933 1.152,1.216 0.72533,0.42666 1.536,0.42666 0.832,0 1.55733,-0.40533 0.72533,-0.42667 1.152,-1.19467 0.42666,-0.78933 0.42666,-1.87733 z"
         style="font-weight:600;font-size:21.3333px;font-family:Poppins;-inkscape-font-specification:'Poppins, Semi-Bold';fill:#3f3f3f;fill-opacity:1"
         id="path6135" />
      <path
         d="m 538.56142,641.90756 q 0,0.64 -0.0853,1.152 h -8.63999 q 0.10667,1.28 0.896,2.00533 0.78933,0.72533 1.94133,0.72533 1.664,0 2.368,-1.42933 h 3.22133 q -0.512,1.70667 -1.96267,2.816 -1.45066,1.088 -3.56266,1.088 -1.70666,0 -3.07199,-0.74667 -1.344,-0.768 -2.112,-2.15466 -0.74667,-1.38667 -0.74667,-3.2 0,-1.83466 0.74667,-3.22133 0.74667,-1.38666 2.09066,-2.13333 1.344,-0.74666 3.09333,-0.74666 1.68533,0 3.008,0.72533 1.34399,0.72533 2.06933,2.06933 0.74666,1.32267 0.74666,3.05066 z m -3.09333,-0.85333 q -0.0213,-1.152 -0.83199,-1.83466 -0.81067,-0.704 -1.984,-0.704 -1.10933,0 -1.87733,0.68266 -0.74667,0.66134 -0.91733,1.856 z"
         style="font-weight:600;font-size:21.3333px;font-family:Poppins;-inkscape-font-specification:'Poppins, Semi-Bold';fill:#3f3f3f;fill-opacity:1"
         id="path6137" />
      <path
         d="m 557.28072,648.07289 -1.62133,-1.6 q -2.06933,1.856 -5.05599,1.856 -1.64266,0 -2.90133,-0.55467 -1.23733,-0.576 -1.91999,-1.6 -0.68267,-1.04533 -0.68267,-2.41066 0,-1.472 0.832,-2.64533 0.832,-1.17333 2.45333,-1.89866 -0.576,-0.704 -0.832,-1.344 -0.256,-0.66133 -0.256,-1.408 0,-1.024 0.53333,-1.83466 0.53334,-0.832 1.51467,-1.30133 1.00266,-0.46934 2.32533,-0.46934 1.34399,0 2.30399,0.512 0.96,0.512 1.42933,1.36533 0.46934,0.85334 0.40534,1.89867 h -2.90133 q 0.0213,-0.704 -0.34133,-1.06667 -0.36267,-0.384 -0.98134,-0.384 -0.59733,0 -1.00266,0.36267 -0.384,0.34133 -0.384,0.896 0,0.53333 0.32,1.06666 0.32,0.512 1.04533,1.28 l 3.75466,3.712 q 0.0427,-0.0427 0.064,-0.0853 0.0213,-0.0427 0.0427,-0.0853 l 1.216,-2.02666 h 3.11466 l -1.49333,2.62399 q -0.42667,0.832 -0.91734,1.57867 l 3.60533,3.56266 z m -6.59198,-2.21867 q 1.74933,0 3.09332,-1.23733 l -3.66932,-3.62666 q -2.06933,0.91733 -2.06933,2.60266 0,0.96 0.72533,1.62134 0.72533,0.63999 1.92,0.63999 z"
         style="font-weight:600;font-size:21.3333px;font-family:Poppins;-inkscape-font-specification:'Poppins, Semi-Bold';fill:#3f3f3f;fill-opacity:1"
         id="path6139" />
      <path
         d="m 579.84336,633.18224 v 14.89065 h -2.98667 v -6.33599 h -6.37865 v 6.33599 h -2.98666 v -14.89065 h 2.98666 v 6.12266 h 6.37865 v -6.12266 z"
         style="font-weight:600;font-size:21.3333px;font-family:Poppins;-inkscape-font-specification:'Poppins, Semi-Bold';fill:#3f3f3f;fill-opacity:1"
         id="path6141" />
      <path
         d="m 588.03101,648.26489 q -1.70666,0 -3.072,-0.74667 -1.36533,-0.768 -2.15466,-2.15466 -0.768,-1.38667 -0.768,-3.2 0,-1.81333 0.78933,-3.19999 0.81067,-1.38667 2.19733,-2.13333 1.38667,-0.768 3.09333,-0.768 1.70667,0 3.09333,0.768 1.38667,0.74666 2.176,2.13333 0.81066,1.38666 0.81066,3.19999 0,1.81333 -0.832,3.2 -0.81066,1.38666 -2.21866,2.15466 -1.38666,0.74667 -3.11466,0.74667 z m 0,-2.60267 q 0.81066,0 1.51466,-0.384 0.72534,-0.40533 1.152,-1.19466 0.42667,-0.78933 0.42667,-1.92 0,-1.68533 -0.896,-2.58133 -0.87467,-0.91733 -2.15466,-0.91733 -1.28,0 -2.15467,0.91733 -0.85333,0.896 -0.85333,2.58133 0,1.68533 0.832,2.60267 0.85333,0.89599 2.13333,0.89599 z"
         style="font-weight:600;font-size:21.3333px;font-family:Poppins;-inkscape-font-specification:'Poppins, Semi-Bold';fill:#3f3f3f;fill-opacity:1"
         id="path6143" />
      <path
         d="m 600.93065,648.26489 q -1.45066,0 -2.60266,-0.512 -1.152,-0.53333 -1.83466,-1.42933 -0.66133,-0.896 -0.72533,-1.984 h 3.00799 q 0.0853,0.68267 0.66133,1.13066 0.59734,0.448 1.472,0.448 0.85333,0 1.32267,-0.34133 0.49066,-0.34133 0.49066,-0.87466 0,-0.576 -0.59733,-0.85334 -0.576,-0.29866 -1.856,-0.64 -1.32266,-0.31999 -2.17599,-0.66133 -0.832,-0.34133 -1.45067,-1.04533 -0.59733,-0.704 -0.59733,-1.89866 0,-0.98133 0.55466,-1.792 0.576,-0.81067 1.62134,-1.28 1.06666,-0.46933 2.49599,-0.46933 2.112,0 3.37066,1.06666 1.25867,1.04534 1.38667,2.83733 h -2.85867 q -0.064,-0.704 -0.59733,-1.10933 -0.512,-0.42666 -1.38666,-0.42666 -0.81067,0 -1.25867,0.29866 -0.42666,0.29867 -0.42666,0.832 0,0.59733 0.59733,0.91733 0.59733,0.29867 1.856,0.61867 1.27999,0.32 2.11199,0.66133 0.832,0.34133 1.42933,1.06667 0.61867,0.70399 0.64,1.87733 0,1.02399 -0.576,1.83466 -0.55466,0.81066 -1.62133,1.28 -1.04533,0.448 -2.45333,0.448 z"
         style="font-weight:600;font-size:21.3333px;font-family:Poppins;-inkscape-font-specification:'Poppins, Semi-Bold';fill:#3f3f3f;fill-opacity:1"
         id="path6145" />
      <path
         d="m 611.5103,638.70757 v 5.71732 q 0,0.59734 0.27733,0.87467 0.29867,0.256 0.98133,0.256 h 1.38667 v 2.51733 h -1.87733 q -3.776,0 -3.776,-3.66933 v -5.69599 h -1.40799 v -2.45333 h 1.40799 v -2.92266 h 3.008 v 2.92266 h 2.64533 v 2.45333 z"
         style="font-weight:600;font-size:21.3333px;font-family:Poppins;-inkscape-font-specification:'Poppins, Semi-Bold';fill:#3f3f3f;fill-opacity:1"
         id="path6147" />
    </g>
    <g
       aria-label="daily"
       transform="matrix(0.09442838,0,0,0.09442838,-28.153135,-56.339267)"
       id="text5545"
       style="font-size:8px;line-height:1.25;white-space:pre;shape-inside:url(#rect5547);fill:#3f3f3f;fill-opacity:1">
      <path
         d="m 471.16853,642.22756 q 0,-1.79199 0.72533,-3.13599 0.72533,-1.36533 1.984,-2.09067 1.28,-0.74666 2.87999,-0.74666 1.536,0 2.77333,0.74666 1.23733,0.74667 1.81333,1.94133 v -6.65598 h 1.49333 v 15.78664 h -1.49333 v -2.60267 q -0.53333,1.216 -1.74933,2.00533 -1.216,0.768 -2.85866,0.768 -1.6,0 -2.87999,-0.74666 -1.25867,-0.74667 -1.984,-2.112 -0.704,-1.36533 -0.704,-3.15733 z m 10.17598,0.0213 q 0,-1.408 -0.576,-2.47467 -0.57599,-1.06666 -1.57866,-1.64266 -0.98133,-0.576 -2.176,-0.576 -1.23733,0 -2.21866,0.55467 -0.98133,0.55466 -1.55733,1.62133 -0.55467,1.04533 -0.55467,2.49599 0,1.42933 0.55467,2.51733 0.576,1.06667 1.55733,1.64267 0.98133,0.55466 2.21866,0.55466 1.19467,0 2.176,-0.576 1.00267,-0.576 1.57866,-1.64266 0.576,-1.06667 0.576,-2.47466 z"
         style="font-weight:300;font-size:21.3333px;font-family:Poppins;-inkscape-font-specification:'Poppins, Light';fill:#3f3f3f;fill-opacity:1"
         id="path6168" />
      <path
         d="m 485.58517,642.22756 q 0,-1.79199 0.704,-3.13599 0.72533,-1.36533 1.984,-2.09067 1.28,-0.74666 2.87999,-0.74666 1.664,0 2.85867,0.768 1.216,0.768 1.74933,1.96266 v -2.55999 h 1.49333 v 11.64798 h -1.49333 v -2.58133 q -0.55467,1.19466 -1.77067,1.98399 -1.19466,0.768 -2.85866,0.768 -1.57866,0 -2.85866,-0.74666 -1.25867,-0.74667 -1.984,-2.112 -0.704,-1.36533 -0.704,-3.15733 z m 10.17599,0.0213 q 0,-1.408 -0.576,-2.47467 -0.576,-1.06666 -1.57867,-1.64266 -0.98133,-0.576 -2.17599,-0.576 -1.23733,0 -2.21867,0.55467 -0.98133,0.55466 -1.55733,1.62133 -0.55466,1.04533 -0.55466,2.49599 0,1.42933 0.55466,2.51733 0.576,1.06667 1.55733,1.64267 0.98134,0.55466 2.21867,0.55466 1.19466,0 2.17599,-0.576 1.00267,-0.576 1.57867,-1.64266 0.576,-1.06667 0.576,-2.47466 z"
         style="font-weight:300;font-size:21.3333px;font-family:Poppins;-inkscape-font-specification:'Poppins, Light';fill:#3f3f3f;fill-opacity:1"
         id="path6170" />
      <path
         d="m 501.43115,634.22758 q -0.448,0 -0.768,-0.32 -0.32,-0.32 -0.32,-0.78934 0,-0.46933 0.32,-0.76799 0.32,-0.32 0.768,-0.32 0.448,0 0.768,0.32 0.32,0.29866 0.32,0.76799 0,0.46934 -0.32,0.78934 -0.32,0.32 -0.768,0.32 z m 0.74666,2.19733 v 11.64798 h -1.49333 v -11.64798 z"
         style="font-weight:300;font-size:21.3333px;font-family:Poppins;-inkscape-font-specification:'Poppins, Light';fill:#3f3f3f;fill-opacity:1"
         id="path6172" />
      <path
         d="m 507.05281,632.28625 v 15.78664 h -1.49333 v -15.78664 z"
         style="font-weight:300;font-size:21.3333px;font-family:Poppins;-inkscape-font-specification:'Poppins, Light';fill:#3f3f3f;fill-opacity:1"
         id="path6174" />
      <path
         d="m 520.03445,636.42491 -6.91198,17.13064 h -1.55734 l 2.26133,-5.54666 -4.77865,-11.58398 h 1.64266 l 3.96799,9.94131 3.84,-9.94131 z"
         style="font-weight:300;font-size:21.3333px;font-family:Poppins;-inkscape-font-specification:'Poppins, Light';fill:#3f3f3f;fill-opacity:1"
         id="path6176" />
    </g>
  </g>
</svg>
