<?xml version="1.0" encoding="UTF-8" standalone="no"?>
<!-- Created with Inkscape (http://www.inkscape.org/) -->

<svg
   width="20.959999mm"
   height="6.5599999mm"
   viewBox="0 0 20.959999 6.5599999"
   version="1.1"
   id="svg1296"
   xmlns="http://www.w3.org/2000/svg"
   xmlns:svg="http://www.w3.org/2000/svg">
  <defs
     id="defs1293">
    <rect
       x="31.699421"
       y="-2.6546313"
       width="88.022316"
       height="40.515161"
       id="rect7407" />
    <rect
       x="470.14453"
       y="629.40643"
       width="227.65591"
       height="71.800522"
       id="rect3737" />
    <rect
       x="470.14453"
       y="629.40643"
       width="227.65591"
       height="71.800522"
       id="rect5547" />
    <rect
       x="470.14453"
       y="629.40643"
       width="227.65591"
       height="71.800522"
       id="rect19171" />
    <rect
       x="470.14453"
       y="629.40643"
       width="227.65591"
       height="71.800522"
       id="rect1149" />
    <rect
       x="31.699421"
       y="-2.6546313"
       width="45.441042"
       height="43.723339"
       id="rect8335" />
    <rect
       x="31.699421"
       y="-2.6546313"
       width="45.441042"
       height="43.723339"
       id="rect8989" />
    <rect
       x="31.699421"
       y="-2.6546313"
       width="45.441042"
       height="43.723339"
       id="rect38359" />
    <rect
       x="31.699421"
       y="-2.6546313"
       width="88.022316"
       height="40.515161"
       id="rect62084" />
    <rect
       x="31.699421"
       y="-2.6546313"
       width="45.441042"
       height="43.723339"
       id="rect62086" />
  </defs>
  <g
     aria-label="Phage &amp; Host"
     transform="matrix(0.25815988,0,0,0.25815988,-0.76759964,1.6954835)"
     id="text7405"
     style="font-size:8px;line-height:1.25;white-space:pre;shape-inside:url(#rect7407);fill:#ffffff">
    <path
       d="m 33.299219,-0.13965434 h 1.696 c 1.472,0 1.48,2.24000004 0,2.24000004 h -1.696 z m 1.696,3.06400004 c 2.68,-0.016 2.672,-3.88800004 0,-3.88800004 -0.856,0 -1.736,0.008 -2.592,0.008 V 4.6443457 h 0.896 v -1.72 z"
       style="font-family:'Nexa Bold';-inkscape-font-specification:'Nexa Bold, Normal';fill:#ffffff"
       id="path969" />
    <path
       d="M 37.790469,-0.95565434 V 4.6443457 h 0.824 v -2.056 c 0,-0.648 0.448,-1.176 1.088,-1.176 0.608,0 0.992,0.368 0.992,1.112 v 2.12 h 0.824 v -2.128 c 0,-1.128 -0.512,-1.87200004 -1.624,-1.87200004 -0.472,0 -0.936,0.16 -1.28,0.64000004 v -2.24000004 z"
       style="font-family:'Nexa Bold';-inkscape-font-specification:'Nexa Bold, Normal';fill:#ffffff"
       id="path971" />
    <path
       d="m 45.731344,1.3243457 c -0.248,-0.44800004 -0.784,-0.71200004 -1.344,-0.71200004 -1.136,0 -2.04,0.73600004 -2.04,2.05600004 0,1.344 0.872,2.088 2.024,2.08 0.488,0 1.096,-0.24 1.36,-0.744 l 0.04,0.64 h 0.784 c 0,-1.312 0,-2.632 0,-3.94400004 h -0.8 z m -1.28,0.04 c 1.704,0 1.704,2.616 0,2.616 -0.704,0 -1.28,-0.496 -1.28,-1.312 0,-0.808 0.576,-1.304 1.28,-1.304 z"
       style="font-family:'Nexa Bold';-inkscape-font-specification:'Nexa Bold, Normal';fill:#ffffff"
       id="path973" />
    <path
       d="m 50.641094,0.85234566 c -0.28,-0.192 -0.736,-0.272 -1.064,-0.272 -1.072,0 -2.136,0.66400004 -2.136,1.98400004 0,1.232 0.856,1.968 2.136,1.968 0.736,0 1.24,0.304 1.24,0.856 0,0.56 -0.648,0.808 -1.256,0.808 -0.656,-0.008 -1.28,-0.336 -1.256,-0.952 h -0.824 c -0.032,1.096 0.792,1.752 2.08,1.752 1.056,0 2.112,-0.536 2.112,-1.608 0,-0.472 -0.232,-1.016 -1.04,-1.288 0.704,-0.272 1.048,-0.84 1.048,-1.536 0,-0.488 -0.152,-0.84 -0.48,-1.224 l 0.472,-0.55200004 -0.6,-0.464 z m -1.064,0.49600004 c 0.68,0 1.28,0.44 1.28,1.216 0,0.712 -0.552,1.208 -1.28,1.208 -0.712,0 -1.304,-0.424 -1.304,-1.208 0,-0.824 0.632,-1.216 1.304,-1.216 z"
       style="font-family:'Nexa Bold';-inkscape-font-specification:'Nexa Bold, Normal';fill:#ffffff"
       id="path975" />
    <path
       d="m 56.403344,2.9803457 c 0.152,-1.608 -0.712,-2.38400004 -1.984,-2.38400004 -1.232,0 -2.072,0.85600004 -2.072,2.05600004 0,1.264 0.832,2.088 2.128,2.088 0.608,0 1.288,-0.224 1.696,-0.672 l -0.536,-0.52 c -0.24,0.272 -0.744,0.424 -1.144,0.424 -0.72,0 -1.216,-0.392 -1.288,-0.992 z m -3.184,-0.696 c 0.128,-0.624 0.624,-0.952 1.224,-0.952 0.664,0 1.12,0.328 1.168,0.952 z"
       style="font-family:'Nexa Bold';-inkscape-font-specification:'Nexa Bold, Normal';fill:#ffffff"
       id="path977" />
    <path
       d="m 61.227969,2.1403457 c 0.432,0 0.864,0 1.296,0 v 0.912 c 0,0.656 -0.816,0.864 -1.264,0.864 -0.72,0 -1.288,-0.288 -1.288,-0.912 0,-0.4 0.4,-0.864 1.256,-0.864 z m 2.136,0 h 0.472 v -0.712 c -0.856,0 -1.696,0 -2.56,0 -0.448,0 -1.168,-0.184 -1.168,-0.82400004 -0.008,-0.408 0.288,-0.872 1.168,-0.872 0.616,0 1.168,0.168 1.168,0.776 h 0.84 c -0.008,-1.2 -1.032,-1.53599996 -1.984,-1.53599996 -1.072,0 -2.056,0.51999996 -2.064,1.63199996 0,0.48800004 0.288,0.97600004 0.784,1.17600004 -0.528,0.176 -0.928,0.688 -0.928,1.216 0,1.152 0.968,1.736 2.128,1.736 0.728,0 1.328,-0.272 1.672,-0.8 0.16,0.6 0.6,0.744 1.024,0.728 v -0.864 c -0.408,0 -0.552,-0.344 -0.552,-0.744 z"
       style="font-family:'Nexa Bold';-inkscape-font-specification:'Nexa Bold, Normal';fill:#ffffff"
       id="path979" />
    <path
       d="m 71.725344,4.6443457 v -5.60000004 h -0.888 V 1.4843457 h -2.96 v -2.44000004 h -0.896 V 4.6443457 h 0.896 v -2.328 h 2.96 v 2.328 z"
       style="font-family:'Nexa Bold';-inkscape-font-specification:'Nexa Bold, Normal';fill:#ffffff"
       id="path981" />
    <path
       d="m 74.683844,0.62034566 c -1.224,0 -2.032,0.89600004 -2.032,2.05600004 0,1.168 0.8,2.048 2.032,2.048 1.24,0 2.048,-0.88 2.048,-2.048 0,-1.16 -0.832,-2.05600004 -2.048,-2.05600004 z m 0,0.76000004 c 0.72,0 1.216,0.6 1.216,1.296 0,0.704 -0.456,1.28 -1.216,1.28 -0.752,0 -1.208,-0.576 -1.208,-1.28 0,-0.696 0.456,-1.296 1.208,-1.296 z"
       style="font-family:'Nexa Bold';-inkscape-font-specification:'Nexa Bold, Normal';fill:#ffffff"
       id="path983" />
    <path
       d="m 80.586969,1.1243457 c -0.44,-0.39200004 -0.912,-0.52800004 -1.52,-0.52800004 -0.736,0 -1.64,0.328 -1.64,1.20000004 0.008,0.872 0.864,1.112 1.608,1.184 0.584,0.056 0.92,0.192 0.912,0.544 -0.008,0.368 -0.448,0.512 -0.84,0.512 -0.464,-0.008 -1.016,-0.176 -1.384,-0.584 l -0.432,0.584 c 0.52,0.584 1.16,0.728 1.8,0.728 1.024,0 1.672,-0.512 1.68,-1.248 0.008,-1.016 -0.944,-1.176 -1.672,-1.24 -0.504,-0.048 -0.848,-0.176 -0.856,-0.504 0,-0.312 0.336,-0.48 0.84,-0.472 0.392,0 0.728,0.08 1.04,0.368 z"
       style="font-family:'Nexa Bold';-inkscape-font-specification:'Nexa Bold, Normal';fill:#ffffff"
       id="path985" />
    <path
       d="m 82.027344,-0.34765434 v 1.056 h -0.76 V 1.4203457 h 0.76 v 1.88 c 0,0.928 0.488,1.416 1.344,1.392 0.28,0 0.52,-0.056 0.792,-0.176 l -0.24,-0.704 c -0.16,0.08 -0.344,0.136 -0.504,0.136 -0.384,0 -0.568,-0.232 -0.568,-0.648 v -1.88 h 1.16 V 0.70834566 h -1.152 v -1.144 z"
       style="font-family:'Nexa Bold';-inkscape-font-specification:'Nexa Bold, Normal';fill:#ffffff"
       id="path987" />
  </g>
  <g
     aria-label="daily"
     transform="matrix(0.26458333,0,0,0.26458333,-0.88240564,3.8896885)"
     id="text8987"
     style="font-size:7.80533px;line-height:1.25;white-space:pre;shape-inside:url(#rect8989);fill:#9badbf;fill-opacity:1">
    <path
       d="M 36.070203,-0.99698873 H 35.437972 V 1.3133889 C 35.164785,0.7904318 34.540359,0.54066124 33.993986,0.54066124 c -1.092746,0 -1.943527,0.70247966 -1.943527,1.99816446 0,1.2722687 0.850781,1.9981644 1.951332,1.9981644 0.569789,0 1.131773,-0.2497706 1.443986,-0.780533 l 0.03122,0.7024797 h 0.601011 V -1.0047941 Z M 34.040818,1.1338663 c 0.764922,0 1.373738,0.5619838 1.373738,1.3893487 0,0.8429756 -0.601011,1.4049594 -1.365933,1.4049594 -0.749312,0 -1.358127,-0.5073465 -1.358127,-1.3971541 0,-0.9054182 0.608815,-1.397154 1.358127,-1.397154 z"
       style="font-family:'Nexa Regular';-inkscape-font-specification:'Nexa Regular, Normal';fill:#9badbf;fill-opacity:1"
       id="path990" />
    <path
       d="m 40.438993,4.4667421 h 0.616621 V 0.61090921 h -0.624426 l -0.0078,0.70247969 C 40.142391,0.81384779 39.572601,0.54846657 38.995007,0.54846657 37.894456,0.54066124 37.012453,1.2899729 37.012453,2.5388257 c 0,1.2566581 0.866392,2.0215804 1.974749,2.0215804 0.530762,0 1.116162,-0.2497706 1.42057,-0.780533 l 0.01561,0.7024797 z M 39.026228,1.149477 c 1.849864,0 1.849864,2.8255294 -0.0078,2.8255294 -0.764922,0 -1.381543,-0.5541785 -1.381543,-1.4127647 0,-0.8585863 0.616621,-1.4049594 1.381543,-1.4049594 z"
       style="font-family:'Nexa Regular';-inkscape-font-specification:'Nexa Regular, Normal';fill:#9badbf;fill-opacity:1"
       id="path992" />
    <path
       d="m 42.130555,-0.56769559 c 0,0.56198375 0.842975,0.56198375 0.842975,0.007805 0,-0.56198371 -0.842975,-0.56198371 -0.842975,-0.007805 z m 0.09366,1.16299414 h 0.640038 V 4.4667421 h -0.640038 z"
       style="font-family:'Nexa Regular';-inkscape-font-specification:'Nexa Regular, Normal';fill:#9badbf;fill-opacity:1"
       id="path994" />
    <path
       d="M 44.725216,-0.99698873 H 44.085179 V 4.4667421 h 0.640037 z"
       style="font-family:'Nexa Regular';-inkscape-font-specification:'Nexa Regular, Normal';fill:#9badbf;fill-opacity:1"
       id="path996" />
    <path
       d="M 49.46415,0.61090921 H 48.76167 L 47.910889,2.6246843 47.497207,3.7174305 47.075719,2.616879 46.318602,0.61090921 H 45.592706 L 47.145967,4.4121048 46.342018,6.285384 h 0.686869 z"
       style="font-family:'Nexa Regular';-inkscape-font-specification:'Nexa Regular, Normal';fill:#9badbf;fill-opacity:1"
       id="path998" />
  </g>
  <path
     style="font-size:8px;line-height:1.25;white-space:pre;fill:none;fill-opacity:1;stroke:#9badbf;stroke-width:0.0873916;stroke-linecap:butt;stroke-linejoin:miter;stroke-miterlimit:4;stroke-dasharray:none;stroke-opacity:1"
     d="m 12.55827,4.5470875 h 8.401729"
     id="path53856" />
  <path
     style="fill:none;stroke:#ffffff;stroke-width:0.165;stroke-linecap:round;stroke-linejoin:miter;stroke-miterlimit:4;stroke-dasharray:none;stroke-opacity:1"
     d="m 2.4026957,2.0060705 0.8289787,-0.465591 0.8176228,0.476946 0.011356,0.715421"
     id="path1105" />
  <path
     style="fill:none;stroke:#ffffff;stroke-width:0.165;stroke-linecap:round;stroke-linejoin:miter;stroke-miterlimit:4;stroke-dasharray:none;stroke-opacity:1"
     d="M 4.0606534,3.0214835 3.2316747,3.4870745 2.4140519,3.0101275 2.4026957,2.2947075"
     id="path1107" />
  <path
     style="fill:none;stroke:#ffffff;stroke-width:0.165;stroke-linecap:round;stroke-linejoin:miter;stroke-miterlimit:4;stroke-dasharray:none;stroke-opacity:1"
     d="m 3.2316744,3.5346435 v 1.498976"
     id="path1109" />
  <path
     style="fill:none;stroke:#ffffff;stroke-width:0.165;stroke-linecap:round;stroke-linejoin:miter;stroke-miterlimit:4;stroke-dasharray:none;stroke-opacity:1"
     d="m 3.2403217,3.4799035 0.8160468,0.67669 v 0.877026"
     id="path1111" />
  <path
     style="fill:none;stroke:#ffffff;stroke-width:0.165;stroke-linecap:round;stroke-linejoin:miter;stroke-miterlimit:4;stroke-dasharray:none;stroke-opacity:1"
     d="m 3.2287236,3.4799035 -0.8160467,0.67669 v 0.877026"
     id="path1114" />
  <circle
     style="fill:none;stroke:#ffffff;stroke-width:0.158;stroke-linecap:round;stroke-miterlimit:4;stroke-dasharray:none;stroke-opacity:1"
     id="path2452"
     cy="3.2178812"
     cx="5.1905084"
     r="0.40881765" />
  <circle
     style="fill:none;stroke:#ffffff;stroke-width:0.15792;stroke-linecap:round;stroke-miterlimit:4;stroke-dasharray:none;stroke-opacity:1"
     id="circle2534"
     cy="4.2275381"
     cx="4.9861126"
     r="0.20440882" />
  <path
     style="fill:none;stroke:#ffffff;stroke-width:0.158;stroke-linecap:round;stroke-miterlimit:4;stroke-dasharray:none;stroke-opacity:1"
     id="circle2814"
     d="M 1.0610463,2.4901685 A 2.3100598,2.310055 0 0 1 3.6329302,1.0052935" />
  <path
     id="path984"
     style="color:#000000;fill:#ffffff;stroke-width:1;stroke-linecap:round;-inkscape-stroke:none;fill-opacity:1"
     d="M 3.2314362,1.1948757e-5 A 0.076676,0.076676 0 0 0 3.1534047,0.07649294 v 0.38653984 a 2.8210399,2.8210399 0 0 1 0.077515,-0.003101 2.8210399,2.8210399 0 0 1 0.076998,0.001032 V 0.07649108 A 0.076676,0.076676 0 0 0 3.2314362,1.0096673e-5 Z M 2.1379629,0.19328187 a 0.076676,0.076676 0 0 0 -0.029456,0.004135 0.076676,0.076676 0 0 0 -0.044958,0.0997355 l 0.131258,0.36018511 A 2.8210399,2.8210399 0 0 1 2.3379507,0.60669332 L 2.2061758,0.24444144 a 0.076676,0.076676 0 0 0 -0.068213,-0.0511596 z m 2.1848795,0 a 0.076676,0.076676 0 0 0 -0.067696,0.0511596 L 4.1238882,0.60514286 a 2.8210399,2.8210399 0 0 1 0.1441773,0.05271 l 0.1312579,-0.3607014 a 0.076676,0.076676 0 0 0 -0.046509,-0.0997355 0.076676,0.076676 0 0 0 -0.029972,-0.004134 z M 1.1788483,0.7503536 a 0.076676,0.076676 0 0 0 -0.056844,0.017571 0.076676,0.076676 0 0 0 -0.00982,0.10748698 L 1.3607494,1.1715173 A 2.8210399,2.8210399 0 0 1 1.4765046,1.0717819 L 1.2294912,0.77774221 A 0.076676,0.076676 0 0 0 1.1788483,0.7503536 Z m 4.1051756,0 a 0.076676,0.076676 0 0 0 -0.05271,0.0273886 L 4.9848175,1.0712643 a 2.8210399,2.8210399 0 0 1 0.1167886,0.098185 L 5.3486196,0.87541077 a 0.076676,0.076676 0 0 0 -0.00982,-0.10748698 0.076676,0.076676 0 0 0 -0.054777,-0.017571 z M 0.46674705,1.6035317 a 0.076676,0.076676 0 0 0 -0.0299723,0.00206 0.076676,0.076676 0 0 0 -0.0470256,0.03514 0.076676,0.076676 0 0 0 0.0273885,0.1054198 l 0.33382977,0.1927532 a 2.8210399,2.8210399 0 0 1 0.0775146,-0.133322 L 0.49516909,1.6133501 a 0.076676,0.076676 0 0 0 -0.028422,-0.00982 z m 5.52731115,0 a 0.076676,0.076676 0 0 0 -0.028422,0.00982 l -0.331246,0.1912014 a 2.8210399,2.8210399 0 0 1 0.076998,0.1338421 L 6.0441843,1.7461587 A 0.076676,0.076676 0 0 0 6.0715729,1.640739 0.076676,0.076676 0 0 0 5.9940582,1.6035317 Z M 0.08899234,2.6489459 a 0.076676,0.076676 0 0 0 -0.08784993,0.062012 0.076676,0.076676 0 0 0 0.06046142,0.088367 l 0.37930502,0.066663 a 2.8210399,2.8210399 0 0 1 0.0273885,-0.1498616 z m 6.28333746,0 -0.3777549,0.066663 A 2.8210399,2.8210399 0 0 1 6.02093,2.8659868 l 0.3787881,-0.066663 a 0.076676,0.076676 0 0 0 0.062012,-0.088367 0.076676,0.076676 0 0 0 -0.0894,-0.062012 z M 0.44090885,3.6953936 0.06160383,3.7620562 a 0.076676,0.076676 0 0 0 -0.06046142,0.08785 0.076676,0.076676 0 0 0 0.08784993,0.062528 L 0.46829735,3.8457719 A 2.8210399,2.8210399 0 0 1 0.44090885,3.6953936 Z m 5.58002115,0 A 2.8210399,2.8210399 0 0 1 5.993025,3.8457719 l 0.3793051,0.066663 a 0.076676,0.076676 0 0 0 0.0894,-0.062528 0.076676,0.076676 0 0 0 -0.062012,-0.08785 z M 0.75200095,4.6235022 0.41713767,4.8167721 A 0.076676,0.076676 0 0 0 0.38974917,4.920125 0.076676,0.076676 0 0 0 0.49516909,4.9495805 L 0.82899885,4.7568273 A 2.8210399,2.8210399 0 0 1 0.75200095,4.6235022 Z m 4.95732005,0 A 2.8210399,2.8210399 0 0 1 5.6323233,4.7573443 L 5.9656361,4.9495805 A 0.076676,0.076676 0 0 0 6.0715729,4.920125 0.076676,0.076676 0 0 0 6.0441843,4.8167721 Z M 1.3602325,5.3903806 1.1121857,5.6859696 a 0.076676,0.076676 0 0 0 0.00982,0.107487 0.076676,0.076676 0 0 0 0.107487,-0.00982 L 1.4759876,5.4895991 A 2.8210399,2.8210399 0 0 1 1.3602324,5.3903803 Z m 3.7408569,5.291e-4 a 2.8210399,2.8210399 0 0 1 -0.1162719,0.099219 l 0.2464967,0.2935221 a 0.076676,0.076676 0 0 0 0.1074869,0.00982 0.076676,0.076676 0 0 0 0.00982,-0.107487 z M 4.2675485,5.9040442 a 2.8210399,2.8210399 0 0 1 -0.144177,0.05116 l 0.1317749,0.3612184 a 0.076676,0.076676 0 0 0 0.097668,0.047026 0.076676,0.076676 0 0 0 0.046509,-0.097668 z M 2.1948069,5.9045734 2.0635488,6.2657918 a 0.076676,0.076676 0 0 0 0.044958,0.097668 0.076676,0.076676 0 0 0 0.097669,-0.046509 L 2.3379507,5.9546871 A 2.8210399,2.8210399 0 0 1 2.1948069,5.904561 Z m 0.9585978,0.1943034 v 0.3860228 a 0.076676,0.076676 0 0 0 0.078032,0.075964 0.076676,0.076676 0 0 0 0.076481,-0.075964 V 6.0993935 a 2.8210399,2.8210399 0 0 1 -0.076998,0.00259 2.8210399,2.8210399 0 0 1 -0.077515,-0.0031 z" />
  <circle
     style="fill:none;fill-opacity:1;stroke:#ffffff;stroke-width:0.16;stroke-linecap:round;stroke-miterlimit:4;stroke-dasharray:none;stroke-opacity:1"
     id="circle1165"
     cy="3.2804322"
     cx="3.2314115"
     r="2.8210399" />
</svg>
