<?xml version="1.0" encoding="UTF-8" standalone="no"?>
<!-- Created with Inkscape (http://www.inkscape.org/) -->

<svg
   width="420"
   height="236"
   viewBox="0 0 111.125 62.441668"
   version="1.1"
   id="svg5"
   xmlns="http://www.w3.org/2000/svg"
   xmlns:svg="http://www.w3.org/2000/svg">
  <defs
     id="defs2">
    <marker
       style="overflow:visible;"
       id="Arrow1Mend"
       refX="0.0"
       refY="0.0"
       orient="auto">
      <path
         transform="scale(0.4) rotate(180) translate(10,0)"
         style="fill-rule:evenodd;fill:context-stroke;stroke:context-stroke;stroke-width:1.0pt;"
         d="M 0.0,0.0 L 5.0,-5.0 L -12.5,0.0 L 5.0,5.0 L 0.0,0.0 z "
         id="path48845" />
    </marker>
    <marker
       style="overflow:visible;"
       id="marker49194"
       refX="0.0"
       refY="0.0"
       orient="auto">
      <path
         transform="scale(0.2) rotate(180) translate(6,0)"
         style="fill-rule:evenodd;fill:context-stroke;stroke:context-stroke;stroke-width:1.0pt;"
         d="M 0.0,0.0 L 5.0,-5.0 L -12.5,0.0 L 5.0,5.0 L 0.0,0.0 z "
         id="path49192" />
    </marker>
    <marker
       style="overflow:visible;"
       id="Arrow1Lend"
       refX="0.0"
       refY="0.0"
       orient="auto">
      <path
         transform="scale(0.8) rotate(180) translate(12.5,0)"
         style="fill-rule:evenodd;fill:context-stroke;stroke:context-stroke;stroke-width:1.0pt;"
         d="M 0.0,0.0 L 5.0,-5.0 L -12.5,0.0 L 5.0,5.0 L 0.0,0.0 z "
         id="path48839" />
    </marker>
    <marker
       style="overflow:visible;"
       id="Arrow1Send"
       refX="0.0"
       refY="0.0"
       orient="auto">
      <path
         transform="scale(0.2) rotate(180) translate(6,0)"
         style="fill-rule:evenodd;fill:context-stroke;stroke:context-stroke;stroke-width:1.0pt;"
         d="M 0.0,0.0 L 5.0,-5.0 L -12.5,0.0 L 5.0,5.0 L 0.0,0.0 z "
         id="path48851" />
    </marker>
  </defs>
  <g
     id="layer1">
    <g
       id="g9491">
      <g
         id="g2774"
         transform="matrix(1.2415192,0,0,1.2383297,-0.0186466,26.540479)"
         style="stroke:#505050;stroke-width:0.949399;stroke-opacity:1">
        <path
           style="fill:none;stroke:#505050;stroke-width:0.755471;stroke-linecap:round;stroke-linejoin:miter;stroke-miterlimit:4;stroke-dasharray:none;stroke-opacity:1"
           d="m 44.768654,18.834098 v 7.229029"
           id="path1109" />
        <path
           style="fill:none;stroke:#505050;stroke-width:0.755471;stroke-linecap:round;stroke-linejoin:miter;stroke-miterlimit:4;stroke-dasharray:none;stroke-opacity:1"
           d="m 40.770787,11.462333 3.997867,-2.2453805 3.943106,2.3001415 0.05479,3.450221"
           id="path1105" />
        <path
           style="fill:none;stroke:#505050;stroke-width:0.755471;stroke-linecap:round;stroke-linejoin:miter;stroke-miterlimit:4;stroke-dasharray:none;stroke-opacity:1"
           d="m 48.766526,16.359309 -3.997867,2.245381 -3.943106,-2.300147 -0.05479,-3.450216"
           id="path1107" />
        <path
           style="fill:none;stroke:#505050;stroke-width:0.755471;stroke-linecap:round;stroke-linejoin:miter;stroke-miterlimit:4;stroke-dasharray:none;stroke-opacity:1"
           d="m 44.81036,18.570106 3.935501,3.263436 v 4.229585"
           id="path1111" />
        <path
           style="fill:none;stroke:#505050;stroke-width:0.755471;stroke-linecap:round;stroke-linejoin:miter;stroke-miterlimit:4;stroke-dasharray:none;stroke-opacity:1"
           d="m 44.754427,18.570106 -3.935505,3.263436 v 4.229585"
           id="path1114" />
      </g>
      <g
         id="g1167"
         transform="matrix(0.83784252,0,0,0.83784252,-28.461681,2.31423)">
        <path
           style="fill:none;stroke:#dbdbdb;stroke-width:0.576136;stroke-linecap:round;stroke-linejoin:miter;stroke-miterlimit:4;stroke-dasharray:none;stroke-opacity:1"
           d="M 42.6176,5.1001994 V 6.6317467"
           id="path32972" />
        <path
           style="fill:none;stroke:#dbdbdb;stroke-width:0.576136;stroke-linecap:round;stroke-linejoin:miter;stroke-miterlimit:4;stroke-dasharray:none;stroke-opacity:1"
           d="M 42.622137,0.28806795 V 1.8196152"
           id="path33054" />
        <path
           style="fill:none;stroke:#dbdbdb;stroke-width:0.576136;stroke-linecap:round;stroke-linejoin:miter;stroke-miterlimit:4;stroke-dasharray:none;stroke-opacity:1"
           d="M 45.89963,3.5024949 H 44.368083"
           id="path33056" />
        <path
           style="fill:none;stroke:#dbdbdb;stroke-width:0.576136;stroke-linecap:round;stroke-linejoin:miter;stroke-miterlimit:4;stroke-dasharray:none;stroke-opacity:1"
           d="M 41.012164,3.5024949 H 39.480617"
           id="path33058" />
        <path
           style="fill:none;stroke:#dbdbdb;stroke-width:0.576136;stroke-linecap:round;stroke-linejoin:miter;stroke-miterlimit:4;stroke-dasharray:none;stroke-opacity:1"
           d="M 43.860235,2.2332517 44.991402,1.2007303"
           id="path33060" />
        <path
           style="fill:none;stroke:#dbdbdb;stroke-width:0.576136;stroke-linecap:round;stroke-linejoin:miter;stroke-miterlimit:4;stroke-dasharray:none;stroke-opacity:1"
           d="M 41.48136,2.2332517 40.350192,1.2007303"
           id="path33062" />
        <path
           style="fill:none;stroke:#dbdbdb;stroke-width:0.576136;stroke-linecap:round;stroke-linejoin:miter;stroke-miterlimit:4;stroke-dasharray:none;stroke-opacity:1"
           d="M 41.48136,4.710773 40.350192,5.7432944"
           id="path33064" />
        <path
           style="fill:none;stroke:#dbdbdb;stroke-width:0.576136;stroke-linecap:round;stroke-linejoin:miter;stroke-miterlimit:4;stroke-dasharray:none;stroke-opacity:1"
           d="m 43.860235,4.710773 1.131167,1.0325214"
           id="path33066" />
      </g>
      <g
         id="g90478"
         transform="matrix(1.1621639,0,0,1.1621639,30.598937,-44.7273)">
        <path
           style="fill:none;stroke:#f23f6c;stroke-width:0.352778;stroke-linecap:butt;stroke-linejoin:miter;stroke-miterlimit:4;stroke-dasharray:none;stroke-opacity:1"
           d="m 14.43259,53.798184 6.044351,-1.980284 3.31022,-8.272831 4.954327,0.365789"
           id="path1071" />
        <path
           style="fill:none;stroke:#f3c200;stroke-width:0.352778;stroke-linecap:butt;stroke-linejoin:miter;stroke-miterlimit:4;stroke-dasharray:none;stroke-opacity:1"
           d="m 14.43259,53.798184 3.877234,-7.972057 5.402626,2.536988 4.598997,-7.769026"
           id="path5052" />
        <path
           style="fill:none;stroke:#009ff7;stroke-width:0.352778;stroke-linecap:butt;stroke-linejoin:miter;stroke-miterlimit:4;stroke-dasharray:none;stroke-opacity:1"
           d="m 14.43259,53.798184 4.718892,-3.25112 7.157814,-0.502003 2.059183,-3.685667"
           id="path7579" />
        <circle
           style="fill:#f23f6c;fill-opacity:1;stroke:none;stroke-width:1.82534;stroke-linecap:round;stroke-linejoin:round;stroke-miterlimit:4;stroke-dasharray:none;stroke-opacity:1"
           id="path9003"
           cx="28.684343"
           cy="43.930565"
           r="0.75" />
        <circle
           style="fill:#f23f6c;fill-opacity:1;stroke:none;stroke-width:1.82534;stroke-linecap:round;stroke-linejoin:round;stroke-miterlimit:4;stroke-dasharray:none;stroke-opacity:1"
           id="circle9107"
           cx="23.855183"
           cy="43.559036"
           r="0.75" />
        <circle
           style="fill:#f23f6c;fill-opacity:1;stroke:none;stroke-width:1.82534;stroke-linecap:round;stroke-linejoin:round;stroke-miterlimit:4;stroke-dasharray:none;stroke-opacity:1"
           id="circle9109"
           cx="20.556934"
           cy="51.956829"
           r="0.75" />
        <circle
           style="fill:#f3c200;fill-opacity:1;stroke:none;stroke-width:1.82534;stroke-linecap:round;stroke-linejoin:round;stroke-miterlimit:4;stroke-dasharray:none;stroke-opacity:1"
           id="circle9111"
           cx="18.284176"
           cy="46.040123"
           r="0.75" />
        <circle
           style="fill:#f3c200;fill-opacity:1;stroke:none;stroke-width:1.82534;stroke-linecap:round;stroke-linejoin:round;stroke-miterlimit:4;stroke-dasharray:none;stroke-opacity:1"
           id="circle10404"
           cx="23.87077"
           cy="48.326042"
           r="0.75" />
        <circle
           style="fill:#f3c200;fill-opacity:1;stroke:none;stroke-width:1.82534;stroke-linecap:round;stroke-linejoin:round;stroke-miterlimit:4;stroke-dasharray:none;stroke-opacity:1"
           id="circle10406"
           cx="28.222315"
           cy="40.862484"
           r="0.75" />
        <path
           style="fill:none;stroke:#505050;stroke-width:0.352778;stroke-linecap:butt;stroke-linejoin:miter;stroke-miterlimit:4;stroke-dasharray:none;stroke-opacity:1"
           d="m 14.43259,38.486224 v 15.31196 h 15.121584"
           id="path1067" />
        <circle
           style="fill:#009ff7;fill-opacity:1;stroke:none;stroke-width:1.82534;stroke-linecap:round;stroke-linejoin:round;stroke-miterlimit:4;stroke-dasharray:none;stroke-opacity:1"
           id="circle12479"
           cx="28.100719"
           cy="46.555344"
           r="0.75" />
        <circle
           style="fill:#009ff7;fill-opacity:1;stroke:none;stroke-width:1.82534;stroke-linecap:round;stroke-linejoin:round;stroke-miterlimit:4;stroke-dasharray:none;stroke-opacity:1"
           id="circle16346"
           cx="26.412209"
           cy="50.001045"
           r="0.75" />
        <circle
           style="fill:#009ff7;fill-opacity:1;stroke:none;stroke-width:1.82534;stroke-linecap:round;stroke-linejoin:round;stroke-miterlimit:4;stroke-dasharray:none;stroke-opacity:1"
           id="circle16348"
           cx="19.136471"
           cy="50.534943"
           r="0.75" />
      </g>
      <g
         id="g90463"
         transform="matrix(1.1610401,0,0,1.1610401,-15.217778,8.4141359)">
        <rect
           style="fill:#f23f6c;fill-opacity:1;stroke:none;stroke-width:1.23704;stroke-linecap:round;stroke-linejoin:round;stroke-miterlimit:4;stroke-dasharray:none;stroke-opacity:1"
           id="rect35780"
           width="1.7526398"
           height="2.9803407"
           x="34.073059"
           y="20.851549"
           ry="0" />
        <rect
           style="fill:#f3c200;fill-opacity:1;stroke:none;stroke-width:1.54752;stroke-linecap:round;stroke-linejoin:round;stroke-miterlimit:4;stroke-dasharray:none;stroke-opacity:1"
           id="rect37331"
           width="1.7526398"
           height="4.6641116"
           x="37.072868"
           y="19.251635"
           ry="0" />
        <rect
           style="fill:#009ff7;fill-opacity:1;stroke:none;stroke-width:1.75893;stroke-linecap:round;stroke-linejoin:round;stroke-miterlimit:4;stroke-dasharray:none;stroke-opacity:1"
           id="rect37333"
           width="1.7526398"
           height="6.0255075"
           x="40.072678"
           y="17.906172"
           ry="0" />
        <rect
           style="fill:#f3c200;fill-opacity:1;stroke:none;stroke-width:1.97609;stroke-linecap:round;stroke-linejoin:round;stroke-miterlimit:4;stroke-dasharray:none;stroke-opacity:1"
           id="rect37335"
           width="1.7526398"
           height="7.6051669"
           x="43.072487"
           y="16.50099"
           ry="0" />
        <path
           style="fill:none;stroke:#505050;stroke-width:0.352778;stroke-linecap:butt;stroke-linejoin:miter;stroke-miterlimit:4;stroke-dasharray:none;stroke-opacity:1;marker-end:url(#Arrow1Mend)"
           d="M 32.90458,19.794151 46.819713,13.316288"
           id="path44439" />
        <path
           style="fill:none;stroke:#505050;stroke-width:0.352778;stroke-linecap:butt;stroke-linejoin:miter;stroke-miterlimit:4;stroke-dasharray:none;stroke-opacity:1"
           d="m 32.84315,8.602816 v 15.31196 h 15.121582"
           id="path35756" />
      </g>
      <g
         id="g61602"
         transform="matrix(1.2257811,0,0,1.2257811,170.75066,-61.607048)">
        <g
           id="g61095">
          <path
             style="fill:#f23f6c;fill-opacity:1;stroke:none;stroke-width:13.1643;stroke-linecap:square;stroke-linejoin:round;stroke-miterlimit:4;stroke-dasharray:none;stroke-opacity:1"
             id="circle53806"
             d="m -80.269264,76.954162 a 7.2838912,7.2838912 0 0 1 -0.330994,-8.065484 7.2838912,7.2838912 0 0 1 7.312985,-3.417874 l -1.089199,7.201994 z" />
          <path
             style="fill:#009ff7;fill-opacity:1;stroke:none;stroke-width:13.1643;stroke-linecap:square;stroke-linejoin:round;stroke-miterlimit:4;stroke-dasharray:none;stroke-opacity:1"
             id="path55340"
             d="m -73.514031,65.440145 a 7.2838912,7.2838912 0 0 1 6.42145,7.232653 h -7.283891 z" />
          <path
             style="fill:#f3c200;fill-opacity:1;stroke:none;stroke-width:13.1643;stroke-linecap:square;stroke-linejoin:round;stroke-miterlimit:4;stroke-dasharray:none;stroke-opacity:1"
             id="path58568"
             d="m -67.098449,72.380482 a 7.2838912,7.2838912 0 0 1 -4.936693,7.189652 7.2838912,7.2838912 0 0 1 -8.293325,-2.698666 l 5.951995,-4.19867 z" />
          <path
             style="fill:none;stroke:#fbfbfb;stroke-width:0.529167;stroke-linecap:butt;stroke-linejoin:miter;stroke-miterlimit:4;stroke-dasharray:none;stroke-opacity:1"
             d="m -80.352359,76.955375 3.690202,-2.130542"
             id="path61326" />
          <path
             style="fill:none;stroke:#fbfbfb;stroke-width:0.529167;stroke-linecap:butt;stroke-linejoin:miter;stroke-miterlimit:4;stroke-dasharray:none;stroke-opacity:1"
             d="m -71.335322,72.49466 4.256368,-0.20034"
             id="path61507" />
          <path
             style="fill:none;stroke:#fbfbfb;stroke-width:0.529167;stroke-linecap:butt;stroke-linejoin:miter;stroke-miterlimit:4;stroke-dasharray:none;stroke-opacity:1"
             d="m -71.335322,72.49466 4.256368,-0.20034"
             id="path61509" />
          <path
             style="fill:none;stroke:#fbfbfb;stroke-width:0.529167;stroke-linecap:butt;stroke-linejoin:miter;stroke-miterlimit:4;stroke-dasharray:none;stroke-opacity:1"
             d="m -74.073026,69.50269 0.833542,-4.178758"
             id="path61591" />
        </g>
        <circle
           style="fill:#ffffff;fill-opacity:1;stroke:none;stroke-width:8.75536;stroke-linecap:square;stroke-linejoin:round;stroke-miterlimit:4;stroke-dasharray:none;stroke-opacity:1"
           id="path53538"
           cx="-74.376472"
           cy="72.941414"
           r="4.8443947" />
      </g>
      <g
         id="g70473"
         transform="matrix(1.1621639,0,0,1.1621639,218.75431,44.868747)">
        <rect
           style="fill:#f23f6c;fill-opacity:1;stroke:none;stroke-width:1.65793;stroke-linecap:round;stroke-linejoin:round;stroke-miterlimit:4;stroke-dasharray:none;stroke-opacity:1"
           id="rect65573"
           width="1.7526398"
           height="5.3533621"
           x="-104.56"
           y="0.96878862"
           ry="0" />
        <rect
           style="fill:#009ff7;fill-opacity:1;stroke:none;stroke-width:1.77994;stroke-linecap:round;stroke-linejoin:round;stroke-miterlimit:4;stroke-dasharray:none;stroke-opacity:1"
           id="rect65575"
           width="1.753"
           height="6.1690202"
           x="-106.313"
           y="0.060164392"
           ry="0" />
        <rect
           style="fill:#f23f6c;fill-opacity:1;stroke:none;stroke-width:2.02533;stroke-linecap:round;stroke-linejoin:round;stroke-miterlimit:4;stroke-dasharray:none;stroke-opacity:1"
           id="rect67568"
           width="1.7526398"
           height="7.9889083"
           x="-99.997986"
           y="-1.6667575"
           ry="0" />
        <rect
           style="fill:#009ff7;fill-opacity:1;stroke:none;stroke-width:1.55139;stroke-linecap:round;stroke-linejoin:round;stroke-miterlimit:4;stroke-dasharray:none;stroke-opacity:1"
           id="rect67570"
           width="1.753"
           height="4.6864853"
           x="-101.751"
           y="1.5426993"
           ry="0" />
        <rect
           style="fill:#f23f6c;fill-opacity:1;stroke:none;stroke-width:2.12577;stroke-linecap:round;stroke-linejoin:round;stroke-miterlimit:4;stroke-dasharray:none;stroke-opacity:1"
           id="rect67572"
           width="1.7526398"
           height="8.8009348"
           x="-95.235481"
           y="-2.4787836"
           ry="0" />
        <rect
           style="fill:#009ff7;fill-opacity:1;stroke:none;stroke-width:1.87017;stroke-linecap:round;stroke-linejoin:round;stroke-miterlimit:4;stroke-dasharray:none;stroke-opacity:1"
           id="rect67574"
           width="1.753"
           height="6.8103294"
           x="-96.98851"
           y="-0.58114499"
           ry="0" />
        <path
           style="fill:none;stroke:#009ff7;stroke-width:0.352778;stroke-linecap:butt;stroke-linejoin:miter;stroke-miterlimit:4;stroke-dasharray:none;stroke-opacity:1"
           d="m -107.6511,-3.3815893 4.44843,-1.0873038 5.827821,1.8253527 3.716807,-2.2101608"
           id="path67627" />
        <path
           style="fill:none;stroke:#f23f6c;stroke-width:0.352778;stroke-linecap:butt;stroke-linejoin:miter;stroke-miterlimit:4;stroke-dasharray:none;stroke-opacity:1"
           d="m -107.58917,-3.3201723 5.71049,1.7411958 3.652726,-4.2490696 4.580556,-1.0355601"
           id="path68906" />
        <path
           style="fill:none;stroke:#505050;stroke-width:0.352778;stroke-linecap:butt;stroke-linejoin:miter;stroke-miterlimit:4;stroke-dasharray:none;stroke-opacity:1"
           d="m -107.73271,-9.0422496 v 15.31196 h 15.121583"
           id="path65565" />
      </g>
      <g
         id="g82933"
         transform="matrix(1.1621639,0,0,1.1621639,99.804366,-2.3887006)">
        <g
           id="g83365">
          <path
             style="fill:#f23f6c;fill-opacity:1;stroke:none;stroke-width:0.265;stroke-linecap:butt;stroke-linejoin:miter;stroke-miterlimit:4;stroke-dasharray:none;stroke-opacity:1"
             d="m -85.701657,46.933035 1.349523,-5.208471 3.364759,-0.49779 0.632904,-2.008563 2.132862,-1.54059 2.410288,0.319376 2.083104,-1.605335 1.764649,0.958607 0.0023,9.333512 -13.740368,0.249254 z"
             id="path81461" />
          <path
             style="fill:#009ff7;fill-opacity:1;stroke:none;stroke-width:0.264583px;stroke-linecap:butt;stroke-linejoin:miter;stroke-opacity:1"
             d="m -85.701655,46.933035 2.464644,-2.425145 0.765876,-2.078521 3.289073,-0.637146 1.421969,-2.035826 2.070279,-0.571865 1.782538,0.183126 1.945989,-0.731607 v 8.04773 z"
             id="path77932" />
          <path
             style="fill:#f3c200;fill-opacity:1;stroke:none;stroke-width:0.264583px;stroke-linecap:butt;stroke-linejoin:miter;stroke-opacity:1"
             d="m -85.701657,46.933035 3.002266,-0.756931 1.390195,-1.965455 2.662198,-0.223125 0.72454,-1.382411 1.869491,-1.148212 2.416963,0.156654 1.673321,-1.498907 0.0014,6.836932 z"
             id="path76392" />
          <path
             style="fill:none;stroke:#505050;stroke-width:0.352778;stroke-linecap:butt;stroke-linejoin:miter;stroke-miterlimit:4;stroke-dasharray:none;stroke-opacity:1"
             d="m -85.701658,31.621075 v 15.31196 h 15.121584"
             id="path76357" />
        </g>
      </g>
      <g
         id="g1216"
         transform="matrix(0.83757922,0,0,0.83757922,28.14079,-46.991467)">
        <path
           style="fill:none;stroke:#dbdbdb;stroke-width:0.576135;stroke-linecap:round;stroke-linejoin:miter;stroke-miterlimit:4;stroke-dasharray:none;stroke-opacity:1"
           d="m 87.536812,77.25471 v 1.567053"
           id="path32727" />
        <path
           style="fill:none;stroke:#dbdbdb;stroke-width:0.576135;stroke-linecap:round;stroke-linejoin:miter;stroke-miterlimit:4;stroke-dasharray:none;stroke-opacity:1"
           d="m 87.536812,80.235874 v 1.567053"
           id="path32729" />
        <path
           style="fill:none;stroke:#dbdbdb;stroke-width:0.576135;stroke-linecap:round;stroke-linejoin:miter;stroke-miterlimit:4;stroke-dasharray:none;stroke-opacity:1"
           d="M 86.6961,79.473498 H 85.129047"
           id="path32731" />
        <path
           style="fill:none;stroke:#dbdbdb;stroke-width:0.576135;stroke-linecap:round;stroke-linejoin:miter;stroke-miterlimit:4;stroke-dasharray:none;stroke-opacity:1"
           d="M 89.841931,79.473498 H 88.274879"
           id="path32733" />
      </g>
      <path
         style="fill:none;fill-opacity:1;stroke:#dbdbdb;stroke-width:0.57613601;stroke-linecap:round;stroke-miterlimit:4;stroke-dasharray:none;stroke-opacity:1"
         id="path19838"
         d="m 10.35493,25.762546 1.776207,-1.162304 1.776207,-1.162305 0.118481,2.119394 0.118482,2.119393 -1.894688,-0.957089 z" />
      <g
         id="g99742"
         transform="translate(-76.427521,-6.9669724)">
        <path
           style="fill:none;stroke:#dbdbdb;stroke-width:0.576136;stroke-linecap:butt;stroke-linejoin:miter;stroke-miterlimit:4;stroke-dasharray:none;stroke-opacity:1"
           d="m 102.98468,13.974265 2.40112,2.401128"
           id="path22592" />
        <path
           style="fill:none;stroke:#dbdbdb;stroke-width:0.576136;stroke-linecap:butt;stroke-linejoin:miter;stroke-miterlimit:4;stroke-dasharray:none;stroke-opacity:1"
           d="m 105.3858,13.974265 -2.40112,2.401128"
           id="path25242" />
      </g>
      <g
         id="g2254"
         transform="translate(58.61529,-8.3759055)">
        <path
           style="fill:none;stroke:#dbdbdb;stroke-width:0.576136;stroke-linecap:round;stroke-linejoin:miter;stroke-miterlimit:4;stroke-dasharray:none;stroke-opacity:1"
           d="m 20.387863,54.851702 v 4.067264"
           id="path20255" />
        <path
           style="fill:none;stroke:#dbdbdb;stroke-width:0.576136;stroke-linecap:round;stroke-linejoin:miter;stroke-miterlimit:4;stroke-dasharray:none;stroke-opacity:1"
           d="M 22.421495,56.885334 H 18.354231"
           id="path22509" />
      </g>
      <path
         style="fill:none;fill-opacity:1;stroke:#dbdbdb;stroke-width:0.576136;stroke-linecap:round;stroke-miterlimit:4;stroke-dasharray:none;stroke-opacity:1"
         id="path99738"
         d="m 49.834101,31.26906 -0.47992,-1.268518 -0.47992,-1.268521 1.40789,0.295648 1.4079,0.295647 -0.92797,0.97287 z" />
      <ellipse
         style="fill:#f1f1f1;fill-opacity:1;stroke:none;stroke-width:0.289428;stroke-linecap:round;stroke-linejoin:round"
         id="path1230"
         cx="55.5625"
         cy="61.535389"
         rx="7.9647555"
         ry="0.82896918" />
      <ellipse
         style="fill:#f1f1f1;fill-opacity:1;stroke:none;stroke-width:0.289428;stroke-linecap:round;stroke-linejoin:round"
         id="ellipse2256"
         cx="80.047874"
         cy="38.985054"
         rx="7.9647555"
         ry="0.82896918" />
      <ellipse
         style="fill:#f1f1f1;fill-opacity:1;stroke:none;stroke-width:0.30661;stroke-linecap:round;stroke-linejoin:round"
         id="ellipse2258"
         cx="102.18651"
         cy="54.966339"
         rx="8.9384909"
         ry="0.82896918" />
      <ellipse
         style="fill:#f1f1f1;fill-opacity:1;stroke:none;stroke-width:0.289428;stroke-linecap:round;stroke-linejoin:round"
         id="ellipse2260"
         cx="55.63039"
         cy="21.510572"
         rx="7.9647555"
         ry="0.82896918" />
      <ellipse
         style="fill:#f1f1f1;fill-opacity:1;stroke:none;stroke-width:0.289428;stroke-linecap:round;stroke-linejoin:round"
         id="ellipse2262"
         cx="30.977009"
         cy="39.649822"
         rx="7.9647555"
         ry="0.82896918" />
      <ellipse
         style="fill:#f1f1f1;fill-opacity:1;stroke:none;stroke-width:0.30661;stroke-linecap:round;stroke-linejoin:round"
         id="ellipse2738"
         cx="8.9384909"
         cy="54.966339"
         rx="8.9384909"
         ry="0.82896918" />
      <path
         style="fill:none;fill-opacity:1;stroke:#dbdbdb;stroke-width:1.33333;stroke-linecap:round;stroke-linejoin:round;stroke-miterlimit:4;stroke-dasharray:none;stroke-opacity:1"
         id="path3213"
         d="m 6.823675,-33.03684 -6.83955879,-1.874978 -3.51530041,6.159364 -0.3303295,-7.084207 -6.9441913,-1.439901 6.635404,-2.503302 -0.7764459,-7.049273 4.43123474,5.537082 6.46432126,-2.916789 -3.8967502,5.925407 z"
         transform="matrix(0.23290431,-0.12553852,0.12553852,0.23290431,106.79259,14.097956)" />
      <path
         style="fill:none;fill-opacity:1;stroke:#dbdbdb;stroke-width:1.33333;stroke-linecap:round;stroke-linejoin:round;stroke-miterlimit:4;stroke-dasharray:none;stroke-opacity:1"
         id="path3452"
         d="m 66.536556,-31.8486 -5.629683,-4.544183 -3.131741,6.521895 0.04274,-7.234714 -7.051632,1.617841 5.682972,-4.47736 -5.661499,-4.50448 7.043816,1.651539 -0.0081,-7.234836 3.100522,6.536794 5.651346,-4.517212 -3.177528,6.49971 7.055255,1.601965 -7.062835,1.568212 z"
         transform="matrix(0.26458333,0,0,0.26458333,22.139487,61.660745)" />
      <path
         style="fill:none;fill-opacity:1;stroke:#dbdbdb;stroke-width:1.33333;stroke-linecap:round;stroke-linejoin:round;stroke-miterlimit:4;stroke-dasharray:none;stroke-opacity:1"
         id="path3636"
         d="m 81.1748,-20.341559 -6.725286,2.669592 -4.617161,-5.571178 3.871724,-6.112769 7.010018,1.793278 z"
         transform="matrix(0.35114874,0,0,0.35114874,55.088205,16.61173)" />
      <path
         style="fill:#505050;fill-opacity:1;stroke-width:0.0178351"
         d="m 55.218749,46.456435 c -0.460352,-0.09843 -0.87571,-0.440759 -1.059389,-0.87312 -0.02869,-0.06753 -0.0576,-0.151931 -0.06423,-0.187549 -0.01025,-0.05497 -0.0059,-0.06911 0.02902,-0.09355 0.08018,-0.05616 0.142193,-0.05337 0.31489,0.0141 0.374806,0.146459 0.695913,0.20685 1.096893,0.206294 0.3951,-5.53e-4 0.71726,-0.06193 1.090498,-0.207763 0.169669,-0.06628 0.252687,-0.06906 0.317859,-0.01055 0.0417,0.03742 0.03949,0.07097 -0.01414,0.213799 -0.176627,0.470503 -0.607308,0.838488 -1.099803,0.939706 -0.169422,0.03483 -0.445294,0.03421 -0.611602,-0.0014 z m -1.610103,-2.093336 c -0.366833,-0.07488 -0.634768,-0.544502 -0.604931,-1.060291 0.01747,-0.301978 0.120935,-0.562549 0.290976,-0.732799 0.119587,-0.119736 0.233504,-0.174305 0.381327,-0.18267 0.288649,-0.01634 0.5418,0.196813 0.669222,0.563469 0.06364,0.183133 0.08125,0.534762 0.03635,0.726212 -0.106688,0.45503 -0.4429,0.753455 -0.772956,0.686079 z m 4.017835,-0.419072 c -1.026101,-0.05325 -1.007692,-0.05177 -1.081524,-0.08681 -0.03502,-0.01661 -0.07454,-0.05052 -0.08781,-0.07532 -0.0215,-0.04015 -0.01947,-0.05393 0.01852,-0.125503 0.09031,-0.17024 0.356106,-0.339375 0.660365,-0.420215 0.217595,-0.05781 0.667643,-0.0579 0.897128,-1.6e-4 0.366122,0.0921 0.674912,0.297538 0.790708,0.526052 0.0452,0.08921 0.04524,0.0896 0.01088,0.135977 -0.0765,0.103213 -0.09324,0.103841 -1.208241,0.04599 z m 1.498143,-1.177034 c -0.13673,-0.114298 -0.539601,-0.279856 -0.823908,-0.338582 -0.290315,-0.05997 -0.495302,-0.06954 -0.746329,-0.03488 -0.433755,0.05989 -0.479109,0.05579 -0.543141,-0.04923 -0.04503,-0.07385 -0.04529,-0.149537 -8.05e-4,-0.222517 0.04321,-0.07087 0.09908,-0.100001 0.262126,-0.136748 0.401429,-0.09045 0.877153,-0.06405 1.250534,0.0694 0.244255,0.0873 0.417664,0.192275 0.573841,0.347385 0.162545,0.161433 0.246027,0.3075 0.208367,0.364575 -0.03555,0.05387 -0.116648,0.05414 -0.180692,6.02e-4 z m -7.246379,-0.31524 c -0.03466,-0.03466 -0.02564,-0.246478 0.0163,-0.382467 0.133463,-0.432822 0.482727,-0.802471 0.983484,-1.040882 0.199298,-0.09489 0.410717,-0.160404 0.517614,-0.160404 0.09442,0 0.17144,0.04454 0.201522,0.11654 0.03216,0.07697 0.03184,0.105167 -0.0021,0.176581 -0.03223,0.06792 -0.117378,0.118197 -0.270665,0.159813 -0.271013,0.07359 -0.501388,0.200617 -0.764805,0.421753 -0.219638,0.184381 -0.400375,0.407769 -0.545915,0.674737 -0.03219,0.05904 -0.09488,0.07494 -0.135484,0.03432 z"
         id="path7157" />
    </g>
  </g>
</svg>
