<?xml version="1.0" encoding="UTF-8" standalone="no"?>
<!-- Created with Inkscape (http://www.inkscape.org/) -->

<svg
   width="20.959999mm"
   height="6.5599999mm"
   viewBox="0 0 20.959999 6.5599999"
   version="1.1"
   id="svg1296"
   xmlns="http://www.w3.org/2000/svg"
   xmlns:svg="http://www.w3.org/2000/svg">
  <defs
     id="defs1293">
    <rect
       x="31.699421"
       y="-2.6546313"
       width="88.022316"
       height="40.515161"
       id="rect7407" />
    <rect
       x="470.14453"
       y="629.40643"
       width="227.65591"
       height="71.800522"
       id="rect3737" />
    <rect
       x="470.14453"
       y="629.40643"
       width="227.65591"
       height="71.800522"
       id="rect5547" />
    <rect
       x="470.14453"
       y="629.40643"
       width="227.65591"
       height="71.800522"
       id="rect19171" />
    <rect
       x="470.14453"
       y="629.40643"
       width="227.65591"
       height="71.800522"
       id="rect1149" />
    <rect
       x="31.699421"
       y="-2.6546313"
       width="45.441042"
       height="43.723339"
       id="rect8335" />
    <rect
       x="31.699421"
       y="-2.6546313"
       width="45.441042"
       height="43.723339"
       id="rect8989" />
    <rect
       x="31.699421"
       y="-2.6546313"
       width="45.441042"
       height="43.723339"
       id="rect38359" />
    <rect
       x="31.699421"
       y="-2.6546313"
       width="88.022316"
       height="40.515161"
       id="rect62084" />
    <rect
       x="31.699421"
       y="-2.6546313"
       width="45.441042"
       height="43.723339"
       id="rect62086" />
  </defs>
  <g
     id="g1055">
    <g
       id="g2410">
      <g
         aria-label="Phage &amp; Host"
         transform="matrix(0.25815988,0,0,0.25815988,-0.76759964,1.6954835)"
         id="text7405"
         style="font-size:8px;line-height:1.25;white-space:pre;shape-inside:url(#rect7407);fill:#1a1a1a">
        <path
           d="m 33.299219,-0.13965434 h 1.696 c 1.472,0 1.48,2.24000004 0,2.24000004 h -1.696 z m 1.696,3.06400004 c 2.68,-0.016 2.672,-3.88800004 0,-3.88800004 -0.856,0 -1.736,0.008 -2.592,0.008 V 4.6443457 h 0.896 v -1.72 z"
           style="font-family:'Nexa Bold';-inkscape-font-specification:'Nexa Bold, Normal'"
           id="path969" />
        <path
           d="M 37.790469,-0.95565434 V 4.6443457 h 0.824 v -2.056 c 0,-0.648 0.448,-1.176 1.088,-1.176 0.608,0 0.992,0.368 0.992,1.112 v 2.12 h 0.824 v -2.128 c 0,-1.128 -0.512,-1.87200004 -1.624,-1.87200004 -0.472,0 -0.936,0.16 -1.28,0.64000004 v -2.24000004 z"
           style="font-family:'Nexa Bold';-inkscape-font-specification:'Nexa Bold, Normal'"
           id="path971" />
        <path
           d="m 45.731344,1.3243457 c -0.248,-0.44800004 -0.784,-0.71200004 -1.344,-0.71200004 -1.136,0 -2.04,0.73600004 -2.04,2.05600004 0,1.344 0.872,2.088 2.024,2.08 0.488,0 1.096,-0.24 1.36,-0.744 l 0.04,0.64 h 0.784 c 0,-1.312 0,-2.632 0,-3.94400004 h -0.8 z m -1.28,0.04 c 1.704,0 1.704,2.616 0,2.616 -0.704,0 -1.28,-0.496 -1.28,-1.312 0,-0.808 0.576,-1.304 1.28,-1.304 z"
           style="font-family:'Nexa Bold';-inkscape-font-specification:'Nexa Bold, Normal'"
           id="path973" />
        <path
           d="m 50.641094,0.85234566 c -0.28,-0.192 -0.736,-0.272 -1.064,-0.272 -1.072,0 -2.136,0.66400004 -2.136,1.98400004 0,1.232 0.856,1.968 2.136,1.968 0.736,0 1.24,0.304 1.24,0.856 0,0.56 -0.648,0.808 -1.256,0.808 -0.656,-0.008 -1.28,-0.336 -1.256,-0.952 h -0.824 c -0.032,1.096 0.792,1.752 2.08,1.752 1.056,0 2.112,-0.536 2.112,-1.608 0,-0.472 -0.232,-1.016 -1.04,-1.288 0.704,-0.272 1.048,-0.84 1.048,-1.536 0,-0.488 -0.152,-0.84 -0.48,-1.224 l 0.472,-0.55200004 -0.6,-0.464 z m -1.064,0.49600004 c 0.68,0 1.28,0.44 1.28,1.216 0,0.712 -0.552,1.208 -1.28,1.208 -0.712,0 -1.304,-0.424 -1.304,-1.208 0,-0.824 0.632,-1.216 1.304,-1.216 z"
           style="font-family:'Nexa Bold';-inkscape-font-specification:'Nexa Bold, Normal'"
           id="path975" />
        <path
           d="m 56.403344,2.9803457 c 0.152,-1.608 -0.712,-2.38400004 -1.984,-2.38400004 -1.232,0 -2.072,0.85600004 -2.072,2.05600004 0,1.264 0.832,2.088 2.128,2.088 0.608,0 1.288,-0.224 1.696,-0.672 l -0.536,-0.52 c -0.24,0.272 -0.744,0.424 -1.144,0.424 -0.72,0 -1.216,-0.392 -1.288,-0.992 z m -3.184,-0.696 c 0.128,-0.624 0.624,-0.952 1.224,-0.952 0.664,0 1.12,0.328 1.168,0.952 z"
           style="font-family:'Nexa Bold';-inkscape-font-specification:'Nexa Bold, Normal'"
           id="path977" />
        <path
           d="m 61.227969,2.1403457 c 0.432,0 0.864,0 1.296,0 v 0.912 c 0,0.656 -0.816,0.864 -1.264,0.864 -0.72,0 -1.288,-0.288 -1.288,-0.912 0,-0.4 0.4,-0.864 1.256,-0.864 z m 2.136,0 h 0.472 v -0.712 c -0.856,0 -1.696,0 -2.56,0 -0.448,0 -1.168,-0.184 -1.168,-0.82400004 -0.008,-0.408 0.288,-0.872 1.168,-0.872 0.616,0 1.168,0.168 1.168,0.776 h 0.84 c -0.008,-1.2 -1.032,-1.53599996 -1.984,-1.53599996 -1.072,0 -2.056,0.51999996 -2.064,1.63199996 0,0.48800004 0.288,0.97600004 0.784,1.17600004 -0.528,0.176 -0.928,0.688 -0.928,1.216 0,1.152 0.968,1.736 2.128,1.736 0.728,0 1.328,-0.272 1.672,-0.8 0.16,0.6 0.6,0.744 1.024,0.728 v -0.864 c -0.408,0 -0.552,-0.344 -0.552,-0.744 z"
           style="font-family:'Nexa Bold';-inkscape-font-specification:'Nexa Bold, Normal'"
           id="path979" />
        <path
           d="m 71.725344,4.6443457 v -5.60000004 h -0.888 V 1.4843457 h -2.96 v -2.44000004 h -0.896 V 4.6443457 h 0.896 v -2.328 h 2.96 v 2.328 z"
           style="font-family:'Nexa Bold';-inkscape-font-specification:'Nexa Bold, Normal'"
           id="path981" />
        <path
           d="m 74.683844,0.62034566 c -1.224,0 -2.032,0.89600004 -2.032,2.05600004 0,1.168 0.8,2.048 2.032,2.048 1.24,0 2.048,-0.88 2.048,-2.048 0,-1.16 -0.832,-2.05600004 -2.048,-2.05600004 z m 0,0.76000004 c 0.72,0 1.216,0.6 1.216,1.296 0,0.704 -0.456,1.28 -1.216,1.28 -0.752,0 -1.208,-0.576 -1.208,-1.28 0,-0.696 0.456,-1.296 1.208,-1.296 z"
           style="font-family:'Nexa Bold';-inkscape-font-specification:'Nexa Bold, Normal'"
           id="path983" />
        <path
           d="m 80.586969,1.1243457 c -0.44,-0.39200004 -0.912,-0.52800004 -1.52,-0.52800004 -0.736,0 -1.64,0.328 -1.64,1.20000004 0.008,0.872 0.864,1.112 1.608,1.184 0.584,0.056 0.92,0.192 0.912,0.544 -0.008,0.368 -0.448,0.512 -0.84,0.512 -0.464,-0.008 -1.016,-0.176 -1.384,-0.584 l -0.432,0.584 c 0.52,0.584 1.16,0.728 1.8,0.728 1.024,0 1.672,-0.512 1.68,-1.248 0.008,-1.016 -0.944,-1.176 -1.672,-1.24 -0.504,-0.048 -0.848,-0.176 -0.856,-0.504 0,-0.312 0.336,-0.48 0.84,-0.472 0.392,0 0.728,0.08 1.04,0.368 z"
           style="font-family:'Nexa Bold';-inkscape-font-specification:'Nexa Bold, Normal'"
           id="path985" />
        <path
           d="m 82.027344,-0.34765434 v 1.056 h -0.76 V 1.4203457 h 0.76 v 1.88 c 0,0.928 0.488,1.416 1.344,1.392 0.28,0 0.52,-0.056 0.792,-0.176 l -0.24,-0.704 c -0.16,0.08 -0.344,0.136 -0.504,0.136 -0.384,0 -0.568,-0.232 -0.568,-0.648 v -1.88 h 1.16 V 0.70834566 h -1.152 v -1.144 z"
           style="font-family:'Nexa Bold';-inkscape-font-specification:'Nexa Bold, Normal'"
           id="path987" />
      </g>
      <g
         aria-label="daily"
         transform="matrix(0.26458333,0,0,0.26458333,-0.88240564,3.8896885)"
         id="text8987"
         style="font-size:7.80533px;line-height:1.25;white-space:pre;shape-inside:url(#rect8989);fill:#666666">
        <path
           d="M 36.070203,-0.99698873 H 35.437972 V 1.3133889 C 35.164785,0.7904318 34.540359,0.54066124 33.993986,0.54066124 c -1.092746,0 -1.943527,0.70247966 -1.943527,1.99816446 0,1.2722687 0.850781,1.9981644 1.951332,1.9981644 0.569789,0 1.131773,-0.2497706 1.443986,-0.780533 l 0.03122,0.7024797 h 0.601011 V -1.0047941 Z M 34.040818,1.1338663 c 0.764922,0 1.373738,0.5619838 1.373738,1.3893487 0,0.8429756 -0.601011,1.4049594 -1.365933,1.4049594 -0.749312,0 -1.358127,-0.5073465 -1.358127,-1.3971541 0,-0.9054182 0.608815,-1.397154 1.358127,-1.397154 z"
           style="font-family:'Nexa Regular';-inkscape-font-specification:'Nexa Regular, Normal'"
           id="path990" />
        <path
           d="m 40.438993,4.4667421 h 0.616621 V 0.61090921 h -0.624426 l -0.0078,0.70247969 C 40.142391,0.81384779 39.572601,0.54846657 38.995007,0.54846657 37.894456,0.54066124 37.012453,1.2899729 37.012453,2.5388257 c 0,1.2566581 0.866392,2.0215804 1.974749,2.0215804 0.530762,0 1.116162,-0.2497706 1.42057,-0.780533 l 0.01561,0.7024797 z M 39.026228,1.149477 c 1.849864,0 1.849864,2.8255294 -0.0078,2.8255294 -0.764922,0 -1.381543,-0.5541785 -1.381543,-1.4127647 0,-0.8585863 0.616621,-1.4049594 1.381543,-1.4049594 z"
           style="font-family:'Nexa Regular';-inkscape-font-specification:'Nexa Regular, Normal'"
           id="path992" />
        <path
           d="m 42.130555,-0.56769559 c 0,0.56198375 0.842975,0.56198375 0.842975,0.007805 0,-0.56198374 -0.842975,-0.56198374 -0.842975,-0.007805 z m 0.09366,1.16299414 h 0.640038 V 4.4667421 h -0.640038 z"
           style="font-family:'Nexa Regular';-inkscape-font-specification:'Nexa Regular, Normal'"
           id="path994" />
        <path
           d="M 44.725216,-0.99698873 H 44.085179 V 4.4667421 h 0.640037 z"
           style="font-family:'Nexa Regular';-inkscape-font-specification:'Nexa Regular, Normal'"
           id="path996" />
        <path
           d="M 49.46415,0.61090921 H 48.76167 L 47.910889,2.6246843 47.497207,3.7174305 47.075719,2.616879 46.318602,0.61090921 H 45.592706 L 47.145967,4.4121048 46.342018,6.285384 h 0.686869 z"
           style="font-family:'Nexa Regular';-inkscape-font-specification:'Nexa Regular, Normal'"
           id="path998" />
      </g>
      <path
         style="font-size:8px;line-height:1.25;white-space:pre;fill:none;fill-opacity:1;stroke:#666666;stroke-width:0.0873916;stroke-linecap:butt;stroke-linejoin:miter;stroke-miterlimit:4;stroke-dasharray:none;stroke-opacity:1"
         d="m 12.55827,4.5470875 h 8.401729"
         id="path53856" />
      <path
         style="fill:none;stroke:#1a1a1a;stroke-width:0.165;stroke-linecap:round;stroke-linejoin:miter;stroke-miterlimit:4;stroke-dasharray:none;stroke-opacity:1"
         d="m 2.4026957,2.0060705 0.8289787,-0.465591 0.8176228,0.476946 0.011356,0.715421"
         id="path1105" />
      <path
         style="fill:none;stroke:#1a1a1a;stroke-width:0.165;stroke-linecap:round;stroke-linejoin:miter;stroke-miterlimit:4;stroke-dasharray:none;stroke-opacity:1"
         d="M 4.0606534,3.0214835 3.2316747,3.4870745 2.4140519,3.0101275 2.4026957,2.2947075"
         id="path1107" />
      <path
         style="fill:none;stroke:#1a1a1a;stroke-width:0.165;stroke-linecap:round;stroke-linejoin:miter;stroke-miterlimit:4;stroke-dasharray:none;stroke-opacity:1"
         d="m 3.2316744,3.5346435 v 1.498976"
         id="path1109" />
      <path
         style="fill:none;stroke:#1a1a1a;stroke-width:0.165;stroke-linecap:round;stroke-linejoin:miter;stroke-miterlimit:4;stroke-dasharray:none;stroke-opacity:1"
         d="m 3.2403217,3.4799035 0.8160468,0.67669 v 0.877026"
         id="path1111" />
      <path
         style="fill:none;stroke:#1a1a1a;stroke-width:0.165;stroke-linecap:round;stroke-linejoin:miter;stroke-miterlimit:4;stroke-dasharray:none;stroke-opacity:1"
         d="m 3.2287236,3.4799035 -0.8160467,0.67669 v 0.877026"
         id="path1114" />
      <circle
         style="fill:none;stroke:#1a1a1a;stroke-width:0.158;stroke-linecap:round;stroke-miterlimit:4;stroke-dasharray:none;stroke-opacity:1"
         id="path2452"
         cy="3.2178812"
         cx="5.1905084"
         r="0.40881765" />
      <circle
         style="fill:none;stroke:#1a1a1a;stroke-width:0.15792;stroke-linecap:round;stroke-miterlimit:4;stroke-dasharray:none;stroke-opacity:1"
         id="circle2534"
         cy="4.2275381"
         cx="4.9861126"
         r="0.20440882" />
      <path
         style="fill:none;stroke:#1a1a1a;stroke-width:0.158;stroke-linecap:round;stroke-miterlimit:4;stroke-dasharray:none;stroke-opacity:1"
         id="circle2814"
         d="M 1.0610463,2.4901685 A 2.3100598,2.310055 0 0 1 3.6329302,1.0052935" />
      <g
         id="g1225"
         transform="translate(-9.2465043e-4,-6.8786379)">
        <path
           id="path984"
           style="color:#000000;fill:#1a1a1a;stroke-width:3.77953;stroke-linecap:round;-inkscape-stroke:none"
           d="m 12.216797,25.998047 a 0.28979906,0.28979906 0 0 0 -0.294922,0.289062 v 1.460938 a 10.662198,10.662198 0 0 1 0.292969,-0.01172 10.662198,10.662198 0 0 1 0.291015,0.0039 V 26.287102 A 0.28979906,0.28979906 0 0 0 12.216797,25.99804 Z m -4.1328126,0.730469 a 0.28979906,0.28979906 0 0 0 -0.1113282,0.01563 0.28979906,0.28979906 0 0 0 -0.1699218,0.376953 l 0.4960937,1.361328 A 10.662198,10.662198 0 0 1 8.8398438,28.291016 L 8.3417969,26.921875 A 0.28979906,0.28979906 0 0 0 8.0839844,26.728516 Z m 8.2578126,0 a 0.28979906,0.28979906 0 0 0 -0.255859,0.193359 l -0.496094,1.363281 a 10.662198,10.662198 0 0 1 0.544922,0.199219 l 0.496093,-1.363281 a 0.28979906,0.28979906 0 0 0 -0.175781,-0.376953 0.28979906,0.28979906 0 0 0 -0.113281,-0.01563 z M 4.4589844,28.833984 a 0.28979906,0.28979906 0 0 0 -0.2148438,0.06641 0.28979906,0.28979906 0 0 0 -0.037109,0.40625 l 0.9394532,1.11914 a 10.662198,10.662198 0 0 1 0.4375,-0.376953 L 4.6503906,28.9375 A 0.28979906,0.28979906 0 0 0 4.4589844,28.833984 Z m 15.5156246,0 A 0.28979906,0.28979906 0 0 0 19.775391,28.9375 l -0.931641,1.109375 a 10.662198,10.662198 0 0 1 0.441406,0.371094 l 0.933594,-1.111328 a 0.28979906,0.28979906 0 0 0 -0.03711,-0.40625 0.28979906,0.28979906 0 0 0 -0.207032,-0.06641 z m -18.2070309,3.22461 a 0.28979906,0.28979906 0 0 0 -0.1132812,0.0078 0.28979906,0.28979906 0 0 0 -0.1777344,0.132813 0.28979906,0.28979906 0 0 0 0.1035156,0.398437 L 2.8417969,33.32616 A 10.662198,10.662198 0 0 1 3.1347656,32.822266 L 1.875,32.095703 a 0.28979906,0.28979906 0 0 0 -0.1074219,-0.03711 z m 20.8906249,0 a 0.28979906,0.28979906 0 0 0 -0.107422,0.03711 l -1.251953,0.722656 a 10.662198,10.662198 0 0 1 0.291016,0.50586 l 1.257812,-0.726563 A 0.28979906,0.28979906 0 0 0 22.951172,32.19922 0.28979906,0.28979906 0 0 0 22.658203,32.058594 Z M 0.33984375,36.009766 a 0.28979906,0.28979906 0 0 0 -0.33203125,0.234375 0.28979906,0.28979906 0 0 0 0.22851562,0.333984 l 1.43359378,0.251953 a 10.662198,10.662198 0 0 1 0.1035156,-0.566406 z m 23.74804725,0 -1.427735,0.251953 a 10.662198,10.662198 0 0 1 0.09961,0.568359 l 1.43164,-0.251953 a 0.28979906,0.28979906 0 0 0 0.234375,-0.333984 0.28979906,0.28979906 0 0 0 -0.33789,-0.234375 z M 1.6699219,39.964844 0.23632812,40.216797 A 0.28979906,0.28979906 0 0 0 0.0078125,40.548828 0.28979906,0.28979906 0 0 0 0.33984375,40.785156 L 1.7734375,40.533203 A 10.662198,10.662198 0 0 1 1.6699219,39.964844 Z m 21.0898441,0 a 10.662198,10.662198 0 0 1 -0.105469,0.568359 l 1.433594,0.251953 a 0.28979906,0.28979906 0 0 0 0.33789,-0.236328 0.28979906,0.28979906 0 0 0 -0.234375,-0.332031 z M 2.8457031,43.472656 1.5800781,44.203125 A 0.28979906,0.28979906 0 0 0 1.4765625,44.59375 0.28979906,0.28979906 0 0 0 1.875,44.705078 L 3.1367188,43.976562 A 10.662198,10.662198 0 0 1 2.8457031,43.472656 Z m 18.7363279,0 a 10.662198,10.662198 0 0 1 -0.291015,0.50586 l 1.259765,0.726562 a 0.28979906,0.28979906 0 0 0 0.400391,-0.111328 0.28979906,0.28979906 0 0 0 -0.103516,-0.390625 z m -16.4374998,2.898438 -0.9375,1.117187 a 0.28979906,0.28979906 0 0 0 0.037109,0.40625 0.28979906,0.28979906 0 0 0 0.40625,-0.03711 l 0.9316406,-1.111328 a 10.662198,10.662198 0 0 1 -0.4375,-0.375 z m 14.1386718,0.002 a 10.662198,10.662198 0 0 1 -0.439453,0.375 l 0.931641,1.109375 a 0.28979906,0.28979906 0 0 0 0.40625,0.03711 0.28979906,0.28979906 0 0 0 0.03711,-0.40625 z M 16.132812,48.3125 a 10.662198,10.662198 0 0 1 -0.544921,0.193359 l 0.498047,1.365235 a 0.28979906,0.28979906 0 0 0 0.36914,0.177734 0.28979906,0.28979906 0 0 0 0.175781,-0.36914 z m -7.8339839,0.002 -0.4960937,1.365235 a 0.28979906,0.28979906 0 0 0 0.1699218,0.36914 0.28979906,0.28979906 0 0 0 0.3691407,-0.175781 L 8.8398438,48.503906 A 10.662198,10.662198 0 0 1 8.2988281,48.314453 Z m 3.6230469,0.734375 v 1.458984 a 0.28979906,0.28979906 0 0 0 0.294922,0.28711 0.28979906,0.28979906 0 0 0 0.289062,-0.28711 v -1.457031 a 10.662198,10.662198 0 0 1 -0.291015,0.0098 10.662198,10.662198 0 0 1 -0.292969,-0.01172 z"
           transform="scale(0.26458333)" />
        <circle
           style="fill:none;fill-opacity:1;stroke:#1a1a1a;stroke-width:0.16;stroke-linecap:round;stroke-miterlimit:4;stroke-dasharray:none;stroke-opacity:1"
           id="circle1165"
           cy="10.15907"
           cx="3.232336"
           r="2.8210399" />
      </g>
    </g>
  </g>
</svg>
