<?xml version="1.0" encoding="UTF-8" standalone="no"?>
<!-- Created with Inkscape (http://www.inkscape.org/) -->

<svg
   width="420"
   height="236"
   viewBox="0 0 111.125 62.441668"
   version="1.1"
   id="svg5"
   xmlns="http://www.w3.org/2000/svg"
   xmlns:svg="http://www.w3.org/2000/svg">
  <defs
     id="defs2">
    <marker
       style="overflow:visible;"
       id="Arrow1Mend"
       refX="0.0"
       refY="0.0"
       orient="auto">
      <path
         transform="scale(0.4) rotate(180) translate(10,0)"
         style="fill-rule:evenodd;fill:context-stroke;stroke:context-stroke;stroke-width:1.0pt;"
         d="M 0.0,0.0 L 5.0,-5.0 L -12.5,0.0 L 5.0,5.0 L 0.0,0.0 z "
         id="path48845" />
    </marker>
    <marker
       style="overflow:visible;"
       id="marker49194"
       refX="0.0"
       refY="0.0"
       orient="auto">
      <path
         transform="scale(0.2) rotate(180) translate(6,0)"
         style="fill-rule:evenodd;fill:context-stroke;stroke:context-stroke;stroke-width:1.0pt;"
         d="M 0.0,0.0 L 5.0,-5.0 L -12.5,0.0 L 5.0,5.0 L 0.0,0.0 z "
         id="path49192" />
    </marker>
    <marker
       style="overflow:visible;"
       id="Arrow1Lend"
       refX="0.0"
       refY="0.0"
       orient="auto">
      <path
         transform="scale(0.8) rotate(180) translate(12.5,0)"
         style="fill-rule:evenodd;fill:context-stroke;stroke:context-stroke;stroke-width:1.0pt;"
         d="M 0.0,0.0 L 5.0,-5.0 L -12.5,0.0 L 5.0,5.0 L 0.0,0.0 z "
         id="path48839" />
    </marker>
    <marker
       style="overflow:visible;"
       id="Arrow1Send"
       refX="0.0"
       refY="0.0"
       orient="auto">
      <path
         transform="scale(0.2) rotate(180) translate(6,0)"
         style="fill-rule:evenodd;fill:context-stroke;stroke:context-stroke;stroke-width:1.0pt;"
         d="M 0.0,0.0 L 5.0,-5.0 L -12.5,0.0 L 5.0,5.0 L 0.0,0.0 z "
         id="path48851" />
    </marker>
  </defs>
  <g
     id="g10932"
     transform="rotate(-153.56533,73.273971,53.017171)">
    <path
       id="path2943"
       style="color:#000000;fill:#009ff7;fill-opacity:1;stroke-width:3.77953;stroke-linecap:round;stroke-linejoin:round;-inkscape-stroke:none"
       d="m 320.13086,323.5 -8.63672,-8.2832 c -3.8908,3.3174 -8.94811,5.3125 -14.50586,5.3125 -5.21992,0 -10.00021,-1.76031 -13.78711,-4.72266 l -8.66601,8.3125 c 6.02953,5.23498 13.88711,8.41211 22.45312,8.41211 8.89822,0 17.03001,-3.42922 23.14258,-9.03125 z"
       transform="scale(0.26458334)" />
    <path
       id="path2939"
       style="color:#000000;fill:#f23f6c;fill-opacity:1;stroke-width:3.77953;stroke-linecap:round;stroke-linejoin:round;-inkscape-stroke:none"
       d="m 298.28711,275.92969 c 11.78451,0.66466 21.01562,10.31543 21.01562,22.27734 0,5.8968 -2.24497,11.23102 -5.93164,15.20703 l 8.60938,8.25586 c 5.77571,-6.14906 9.32617,-14.40859 9.32617,-23.46289 0,-18.44854 -14.73245,-33.60244 -33.01953,-34.29101 z"
       transform="scale(0.26458334)" />
    <path
       id="path2937"
       style="color:#000000;fill:#f3c200;fill-opacity:1;stroke-width:3.77953;stroke-linecap:round;stroke-linejoin:round;-inkscape-stroke:none"
       d="m 295.68555,263.91602 c -18.2856,0.69058 -33.02344,15.84378 -33.02344,34.29101 0,9.38505 3.81534,17.9191 9.9707,24.13086 l 8.61133,-8.25781 c -4.06904,-4.03578 -6.57812,-9.64081 -6.57812,-15.87305 0,-11.96059 9.23639,-21.61077 21.01953,-22.27734 z"
       transform="scale(0.26458334)" />
  </g>
  <g
     id="g2774"
     transform="matrix(1.2415192,0,0,1.2383297,-0.0186466,26.540479)"
     style="stroke:#b4c1cf;stroke-width:0.949399;stroke-opacity:1">
    <path
       style="fill:none;stroke:#b4c1cf;stroke-width:0.755471;stroke-linecap:round;stroke-linejoin:miter;stroke-miterlimit:4;stroke-dasharray:none;stroke-opacity:1"
       d="m 44.768654,18.834098 v 7.229029"
       id="path1109" />
    <path
       style="fill:none;stroke:#b4c1cf;stroke-width:0.755471;stroke-linecap:round;stroke-linejoin:miter;stroke-miterlimit:4;stroke-dasharray:none;stroke-opacity:1"
       d="m 40.770787,11.462333 3.997867,-2.2453805 3.943106,2.3001415 0.05479,3.450221"
       id="path1105" />
    <path
       style="fill:none;stroke:#b4c1cf;stroke-width:0.755471;stroke-linecap:round;stroke-linejoin:miter;stroke-miterlimit:4;stroke-dasharray:none;stroke-opacity:1"
       d="m 48.766526,16.359309 -3.997867,2.245381 -3.943106,-2.300147 -0.05479,-3.450216"
       id="path1107" />
    <path
       style="fill:none;stroke:#b4c1cf;stroke-width:0.755471;stroke-linecap:round;stroke-linejoin:miter;stroke-miterlimit:4;stroke-dasharray:none;stroke-opacity:1"
       d="m 44.81036,18.570106 3.935501,3.263436 v 4.229585"
       id="path1111" />
    <path
       style="fill:none;stroke:#b4c1cf;stroke-width:0.755471;stroke-linecap:round;stroke-linejoin:miter;stroke-miterlimit:4;stroke-dasharray:none;stroke-opacity:1"
       d="m 44.754427,18.570106 -3.935505,3.263436 v 4.229585"
       id="path1114" />
  </g>
  <g
     id="g10584">
    <path
       style="fill:none;stroke:#4d545c;stroke-width:0.482711;stroke-linecap:round;stroke-linejoin:miter;stroke-miterlimit:4;stroke-dasharray:none;stroke-opacity:1"
       d="M 7.2451564,6.5873939 V 7.8705894"
       id="path32972" />
    <path
       style="fill:none;stroke:#4d545c;stroke-width:0.482711;stroke-linecap:round;stroke-linejoin:miter;stroke-miterlimit:4;stroke-dasharray:none;stroke-opacity:1"
       d="M 7.2489577,2.5555856 V 3.838781"
       id="path33054" />
    <path
       style="fill:none;stroke:#4d545c;stroke-width:0.482711;stroke-linecap:round;stroke-linejoin:miter;stroke-miterlimit:4;stroke-dasharray:none;stroke-opacity:1"
       d="M 9.9949807,5.2487692 H 8.7117855"
       id="path33056" />
    <path
       style="fill:none;stroke:#4d545c;stroke-width:0.482711;stroke-linecap:round;stroke-linejoin:miter;stroke-miterlimit:4;stroke-dasharray:none;stroke-opacity:1"
       d="M 5.9000538,5.2487692 H 4.6168586"
       id="path33058" />
    <path
       style="fill:none;stroke:#4d545c;stroke-width:0.482711;stroke-linecap:round;stroke-linejoin:miter;stroke-miterlimit:4;stroke-dasharray:none;stroke-opacity:1"
       d="M 8.2862888,4.1853432 9.2340286,3.3202529"
       id="path33060" />
    <path
       style="fill:none;stroke:#4d545c;stroke-width:0.482711;stroke-linecap:round;stroke-linejoin:miter;stroke-miterlimit:4;stroke-dasharray:none;stroke-opacity:1"
       d="M 6.2931662,4.1853432 5.3454255,3.3202529"
       id="path33062" />
    <path
       style="fill:none;stroke:#4d545c;stroke-width:0.482711;stroke-linecap:round;stroke-linejoin:miter;stroke-miterlimit:4;stroke-dasharray:none;stroke-opacity:1"
       d="M 6.2931662,6.2611159 5.3454255,7.1262063"
       id="path33064" />
    <path
       style="fill:none;stroke:#4d545c;stroke-width:0.482711;stroke-linecap:round;stroke-linejoin:miter;stroke-miterlimit:4;stroke-dasharray:none;stroke-opacity:1"
       d="M 8.2862888,6.2611159 9.2340286,7.1262063"
       id="path33066" />
  </g>
  <g
     id="g90478"
     transform="matrix(1.1621639,0,0,1.1621639,30.598937,-44.7273)">
    <path
       style="fill:none;stroke:#f23f6c;stroke-width:0.352778;stroke-linecap:butt;stroke-linejoin:miter;stroke-miterlimit:4;stroke-dasharray:none;stroke-opacity:1"
       d="m 14.43259,53.798184 6.044351,-1.980284 3.31022,-8.272831 4.954327,0.365789"
       id="path1071" />
    <path
       style="fill:none;stroke:#f3c200;stroke-width:0.352778;stroke-linecap:butt;stroke-linejoin:miter;stroke-miterlimit:4;stroke-dasharray:none;stroke-opacity:1"
       d="m 14.43259,53.798184 3.877234,-7.972057 5.402626,2.536988 4.598997,-7.769026"
       id="path5052" />
    <path
       style="fill:none;stroke:#009ff7;stroke-width:0.352778;stroke-linecap:butt;stroke-linejoin:miter;stroke-miterlimit:4;stroke-dasharray:none;stroke-opacity:1"
       d="m 14.43259,53.798184 4.718892,-3.25112 7.157814,-0.502003 2.059183,-3.685667"
       id="path7579" />
    <circle
       style="fill:#f23f6c;fill-opacity:1;stroke:none;stroke-width:1.82534;stroke-linecap:round;stroke-linejoin:round;stroke-miterlimit:4;stroke-dasharray:none;stroke-opacity:1"
       id="path9003"
       cx="28.684343"
       cy="43.930565"
       r="0.75" />
    <circle
       style="fill:#f23f6c;fill-opacity:1;stroke:none;stroke-width:1.82534;stroke-linecap:round;stroke-linejoin:round;stroke-miterlimit:4;stroke-dasharray:none;stroke-opacity:1"
       id="circle9107"
       cx="23.855183"
       cy="43.559036"
       r="0.75" />
    <circle
       style="fill:#f23f6c;fill-opacity:1;stroke:none;stroke-width:1.82534;stroke-linecap:round;stroke-linejoin:round;stroke-miterlimit:4;stroke-dasharray:none;stroke-opacity:1"
       id="circle9109"
       cx="20.556934"
       cy="51.956829"
       r="0.75" />
    <circle
       style="fill:#f3c200;fill-opacity:1;stroke:none;stroke-width:1.82534;stroke-linecap:round;stroke-linejoin:round;stroke-miterlimit:4;stroke-dasharray:none;stroke-opacity:1"
       id="circle9111"
       cx="18.284176"
       cy="46.040123"
       r="0.75" />
    <circle
       style="fill:#f3c200;fill-opacity:1;stroke:none;stroke-width:1.82534;stroke-linecap:round;stroke-linejoin:round;stroke-miterlimit:4;stroke-dasharray:none;stroke-opacity:1"
       id="circle10404"
       cx="23.87077"
       cy="48.326042"
       r="0.75" />
    <circle
       style="fill:#f3c200;fill-opacity:1;stroke:none;stroke-width:1.82534;stroke-linecap:round;stroke-linejoin:round;stroke-miterlimit:4;stroke-dasharray:none;stroke-opacity:1"
       id="circle10406"
       cx="28.222315"
       cy="40.862484"
       r="0.75" />
    <path
       style="fill:none;stroke:#b4c1cf;stroke-width:0.352778;stroke-linecap:butt;stroke-linejoin:miter;stroke-miterlimit:4;stroke-dasharray:none;stroke-opacity:1"
       d="m 14.43259,38.486224 v 15.31196 h 15.121584"
       id="path1067" />
    <circle
       style="fill:#009ff7;fill-opacity:1;stroke:none;stroke-width:1.82534;stroke-linecap:round;stroke-linejoin:round;stroke-miterlimit:4;stroke-dasharray:none;stroke-opacity:1"
       id="circle12479"
       cx="28.100719"
       cy="46.555344"
       r="0.75" />
    <circle
       style="fill:#009ff7;fill-opacity:1;stroke:none;stroke-width:1.82534;stroke-linecap:round;stroke-linejoin:round;stroke-miterlimit:4;stroke-dasharray:none;stroke-opacity:1"
       id="circle16346"
       cx="26.412209"
       cy="50.001045"
       r="0.75" />
    <circle
       style="fill:#009ff7;fill-opacity:1;stroke:none;stroke-width:1.82534;stroke-linecap:round;stroke-linejoin:round;stroke-miterlimit:4;stroke-dasharray:none;stroke-opacity:1"
       id="circle16348"
       cx="19.136471"
       cy="50.534943"
       r="0.75" />
  </g>
  <g
     id="g90463"
     transform="matrix(1.1610401,0,0,1.1610401,-15.217778,8.4141359)">
    <rect
       style="fill:#f23f6c;fill-opacity:1;stroke:none;stroke-width:1.23704;stroke-linecap:round;stroke-linejoin:round;stroke-miterlimit:4;stroke-dasharray:none;stroke-opacity:1"
       id="rect35780"
       width="1.7526398"
       height="2.9803407"
       x="34.073059"
       y="20.851549"
       ry="0" />
    <rect
       style="fill:#f3c200;fill-opacity:1;stroke:none;stroke-width:1.54752;stroke-linecap:round;stroke-linejoin:round;stroke-miterlimit:4;stroke-dasharray:none;stroke-opacity:1"
       id="rect37331"
       width="1.7526398"
       height="4.6641116"
       x="37.072868"
       y="19.251635"
       ry="0" />
    <rect
       style="fill:#009ff7;fill-opacity:1;stroke:none;stroke-width:1.75893;stroke-linecap:round;stroke-linejoin:round;stroke-miterlimit:4;stroke-dasharray:none;stroke-opacity:1"
       id="rect37333"
       width="1.7526398"
       height="6.0255075"
       x="40.072678"
       y="17.906172"
       ry="0" />
    <rect
       style="fill:#f3c200;fill-opacity:1;stroke:none;stroke-width:1.97609;stroke-linecap:round;stroke-linejoin:round;stroke-miterlimit:4;stroke-dasharray:none;stroke-opacity:1"
       id="rect37335"
       width="1.7526398"
       height="7.6051669"
       x="43.072487"
       y="16.50099"
       ry="0" />
    <path
       style="fill:none;stroke:#b4c1cf;stroke-width:0.352778;stroke-linecap:butt;stroke-linejoin:miter;stroke-miterlimit:4;stroke-dasharray:none;stroke-opacity:1;marker-end:url(#Arrow1Mend)"
       d="M 32.90458,19.794151 46.819713,13.316288"
       id="path44439" />
    <path
       style="fill:none;stroke:#b4c1cf;stroke-width:0.352778;stroke-linecap:butt;stroke-linejoin:miter;stroke-miterlimit:4;stroke-dasharray:none;stroke-opacity:1"
       d="m 32.84315,8.602816 v 15.31196 h 15.121582"
       id="path35756" />
  </g>
  <g
     id="g70473"
     transform="matrix(1.1621639,0,0,1.1621639,218.75431,44.868747)">
    <rect
       style="fill:#f23f6c;fill-opacity:1;stroke:none;stroke-width:1.65793;stroke-linecap:round;stroke-linejoin:round;stroke-miterlimit:4;stroke-dasharray:none;stroke-opacity:1"
       id="rect65573"
       width="1.7526398"
       height="5.3533621"
       x="-104.56"
       y="0.96878862"
       ry="0" />
    <rect
       style="fill:#009ff7;fill-opacity:1;stroke:none;stroke-width:1.77994;stroke-linecap:round;stroke-linejoin:round;stroke-miterlimit:4;stroke-dasharray:none;stroke-opacity:1"
       id="rect65575"
       width="1.753"
       height="6.1690202"
       x="-106.313"
       y="0.060164392"
       ry="0" />
    <rect
       style="fill:#f23f6c;fill-opacity:1;stroke:none;stroke-width:2.02533;stroke-linecap:round;stroke-linejoin:round;stroke-miterlimit:4;stroke-dasharray:none;stroke-opacity:1"
       id="rect67568"
       width="1.7526398"
       height="7.9889083"
       x="-99.997986"
       y="-1.6667575"
       ry="0" />
    <rect
       style="fill:#009ff7;fill-opacity:1;stroke:none;stroke-width:1.55139;stroke-linecap:round;stroke-linejoin:round;stroke-miterlimit:4;stroke-dasharray:none;stroke-opacity:1"
       id="rect67570"
       width="1.753"
       height="4.6864853"
       x="-101.751"
       y="1.5426993"
       ry="0" />
    <rect
       style="fill:#f23f6c;fill-opacity:1;stroke:none;stroke-width:2.12577;stroke-linecap:round;stroke-linejoin:round;stroke-miterlimit:4;stroke-dasharray:none;stroke-opacity:1"
       id="rect67572"
       width="1.7526398"
       height="8.8009348"
       x="-95.235481"
       y="-2.4787836"
       ry="0" />
    <rect
       style="fill:#009ff7;fill-opacity:1;stroke:none;stroke-width:1.87017;stroke-linecap:round;stroke-linejoin:round;stroke-miterlimit:4;stroke-dasharray:none;stroke-opacity:1"
       id="rect67574"
       width="1.753"
       height="6.8103294"
       x="-96.98851"
       y="-0.58114499"
       ry="0" />
    <path
       style="fill:none;stroke:#009ff7;stroke-width:0.352778;stroke-linecap:butt;stroke-linejoin:miter;stroke-miterlimit:4;stroke-dasharray:none;stroke-opacity:1"
       d="m -107.6511,-3.3815893 4.44843,-1.0873038 5.827821,1.8253527 3.716807,-2.2101608"
       id="path67627" />
    <path
       style="fill:none;stroke:#f23f6c;stroke-width:0.352778;stroke-linecap:butt;stroke-linejoin:miter;stroke-miterlimit:4;stroke-dasharray:none;stroke-opacity:1"
       d="m -107.58917,-3.3201723 5.71049,1.7411958 3.652726,-4.2490696 4.580556,-1.0355601"
       id="path68906" />
    <path
       style="fill:none;stroke:#b4c1cf;stroke-width:0.352778;stroke-linecap:butt;stroke-linejoin:miter;stroke-miterlimit:4;stroke-dasharray:none;stroke-opacity:1"
       d="m -107.73271,-9.0422496 v 15.31196 h 15.121583"
       id="path65565" />
  </g>
  <g
     id="g82933"
     transform="matrix(1.1621639,0,0,1.1621639,99.804366,-2.3887006)">
    <g
       id="g83365">
      <path
         style="fill:#f23f6c;fill-opacity:1;stroke:none;stroke-width:0.265;stroke-linecap:butt;stroke-linejoin:miter;stroke-miterlimit:4;stroke-dasharray:none;stroke-opacity:1"
         d="m -85.701657,46.933035 1.349523,-5.208471 3.364759,-0.49779 0.632904,-2.008563 2.132862,-1.54059 2.410288,0.319376 2.083104,-1.605335 1.764649,0.958607 0.0023,9.333512 -13.740368,0.249254 z"
         id="path81461" />
      <path
         style="fill:#009ff7;fill-opacity:1;stroke:none;stroke-width:0.264583px;stroke-linecap:butt;stroke-linejoin:miter;stroke-opacity:1"
         d="m -85.701655,46.933035 2.464644,-2.425145 0.765876,-2.078521 3.289073,-0.637146 1.421969,-2.035826 2.070279,-0.571865 1.782538,0.183126 1.945989,-0.731607 v 8.04773 z"
         id="path77932" />
      <path
         style="fill:#f3c200;fill-opacity:1;stroke:none;stroke-width:0.264583px;stroke-linecap:butt;stroke-linejoin:miter;stroke-opacity:1"
         d="m -85.701657,46.933035 3.002266,-0.756931 1.390195,-1.965455 2.662198,-0.223125 0.72454,-1.382411 1.869491,-1.148212 2.416963,0.156654 1.673321,-1.498907 0.0014,6.836932 z"
         id="path76392" />
      <path
         style="fill:none;stroke:#b4c1cf;stroke-width:0.352778;stroke-linecap:butt;stroke-linejoin:miter;stroke-miterlimit:4;stroke-dasharray:none;stroke-opacity:1"
         d="m -85.701658,31.621075 v 15.31196 h 15.121584"
         id="path76357" />
    </g>
  </g>
  <g
     id="g1216"
     transform="matrix(0.83757922,0,0,0.83757922,28.14079,-46.991467)">
    <path
       style="fill:none;stroke:#4d545c;stroke-width:0.576135;stroke-linecap:round;stroke-linejoin:miter;stroke-miterlimit:4;stroke-dasharray:none;stroke-opacity:1"
       d="m 87.536812,77.25471 v 1.567053"
       id="path32727" />
    <path
       style="fill:none;stroke:#4d545c;stroke-width:0.576135;stroke-linecap:round;stroke-linejoin:miter;stroke-miterlimit:4;stroke-dasharray:none;stroke-opacity:1"
       d="m 87.536812,80.235874 v 1.567053"
       id="path32729" />
    <path
       style="fill:none;stroke:#4d545c;stroke-width:0.576135;stroke-linecap:round;stroke-linejoin:miter;stroke-miterlimit:4;stroke-dasharray:none;stroke-opacity:1"
       d="M 86.6961,79.473498 H 85.129047"
       id="path32731" />
    <path
       style="fill:none;stroke:#4d545c;stroke-width:0.576135;stroke-linecap:round;stroke-linejoin:miter;stroke-miterlimit:4;stroke-dasharray:none;stroke-opacity:1"
       d="M 89.841931,79.473498 H 88.274879"
       id="path32733" />
  </g>
  <path
     style="fill:none;fill-opacity:1;stroke:#4d545c;stroke-width:0.576136;stroke-linecap:round;stroke-miterlimit:4;stroke-dasharray:none;stroke-opacity:1"
     id="path19838"
     d="m 10.35493,25.762546 1.776207,-1.162304 1.776207,-1.162305 0.118481,2.119394 0.118482,2.119393 -1.894688,-0.957089 z" />
  <g
     id="g10608">
    <path
       style="fill:none;stroke:#4d545c;stroke-width:0.576136;stroke-linecap:butt;stroke-linejoin:miter;stroke-miterlimit:4;stroke-dasharray:none;stroke-opacity:1"
       d="m 26.557159,7.0072926 2.40112,2.401128"
       id="path22592" />
    <path
       style="fill:none;stroke:#4d545c;stroke-width:0.576136;stroke-linecap:butt;stroke-linejoin:miter;stroke-miterlimit:4;stroke-dasharray:none;stroke-opacity:1"
       d="m 28.958279,7.0072926 -2.40112,2.401128"
       id="path25242" />
  </g>
  <g
     id="g2254"
     transform="translate(58.61529,-8.3759055)">
    <path
       style="fill:none;stroke:#4d545c;stroke-width:0.576136;stroke-linecap:round;stroke-linejoin:miter;stroke-miterlimit:4;stroke-dasharray:none;stroke-opacity:1"
       d="m 20.387863,54.851702 v 4.067264"
       id="path20255" />
    <path
       style="fill:none;stroke:#4d545c;stroke-width:0.576136;stroke-linecap:round;stroke-linejoin:miter;stroke-miterlimit:4;stroke-dasharray:none;stroke-opacity:1"
       d="M 22.421495,56.885334 H 18.354231"
       id="path22509" />
  </g>
  <path
     style="fill:none;fill-opacity:1;stroke:#4d545c;stroke-width:0.576136;stroke-linecap:round;stroke-miterlimit:4;stroke-dasharray:none;stroke-opacity:1"
     id="path99738"
     d="m 49.834101,31.26906 -0.47992,-1.268518 -0.47992,-1.268521 1.40789,0.295648 1.4079,0.295647 -0.92797,0.97287 z" />
  <ellipse
     style="fill:#343a40;fill-opacity:1;stroke:none;stroke-width:0.289428;stroke-linecap:round;stroke-linejoin:round"
     id="path1230"
     cx="55.5625"
     cy="61.535389"
     rx="7.9647555"
     ry="0.82896918" />
  <ellipse
     style="fill:#343a40;fill-opacity:1;stroke:none;stroke-width:0.289428;stroke-linecap:round;stroke-linejoin:round"
     id="ellipse2256"
     cx="80.047874"
     cy="38.985054"
     rx="7.9647555"
     ry="0.82896918" />
  <ellipse
     style="fill:#343a40;fill-opacity:1;stroke:none;stroke-width:0.30661;stroke-linecap:round;stroke-linejoin:round"
     id="ellipse2258"
     cx="102.18651"
     cy="54.966339"
     rx="8.9384909"
     ry="0.82896918" />
  <ellipse
     style="fill:#343a40;fill-opacity:1;stroke:none;stroke-width:0.289428;stroke-linecap:round;stroke-linejoin:round"
     id="ellipse2260"
     cx="55.63039"
     cy="21.510572"
     rx="7.9647555"
     ry="0.82896918" />
  <ellipse
     style="fill:#343a40;fill-opacity:1;stroke:none;stroke-width:0.289428;stroke-linecap:round;stroke-linejoin:round"
     id="ellipse2262"
     cx="30.977009"
     cy="39.649822"
     rx="7.9647555"
     ry="0.82896918" />
  <ellipse
     style="fill:#343a40;fill-opacity:1;stroke:none;stroke-width:0.30661;stroke-linecap:round;stroke-linejoin:round"
     id="ellipse2738"
     cx="8.9384909"
     cy="54.966339"
     rx="8.9384909"
     ry="0.82896918" />
  <path
     style="fill:none;fill-opacity:1;stroke:#4d545c;stroke-width:0.352777;stroke-linecap:round;stroke-linejoin:round;stroke-miterlimit:4;stroke-dasharray:none;stroke-opacity:1"
     id="path3213"
     d="m 104.23446,5.5468995 -1.82835,0.4219376 -0.0455,1.8758481 -0.96627,-1.6084733 -1.7981,0.5364044 1.23115,-1.4160287 -1.065789,-1.5443322 1.727169,0.7333197 1.1394,-1.4908541 -0.1637,1.8692451 z" />
  <path
     style="fill:none;fill-opacity:1;stroke:#4d545c;stroke-width:0.352777;stroke-linecap:round;stroke-linejoin:round;stroke-miterlimit:4;stroke-dasharray:none;stroke-opacity:1"
     id="path3452"
     d="m 39.743951,53.234136 -1.489521,-1.202315 -0.828606,1.725585 0.01131,-1.914185 -1.865744,0.428054 1.503619,-1.184635 -1.497938,-1.19181 1.863677,0.43697 -0.0021,-1.914217 0.820347,1.729526 1.495252,-1.195179 -0.840721,1.719715 1.866703,0.423853 -1.868709,0.414923 z" />
  <path
     style="fill:none;fill-opacity:1;stroke:#4d545c;stroke-width:0.468197;stroke-linecap:round;stroke-linejoin:round;stroke-miterlimit:4;stroke-dasharray:none;stroke-opacity:1"
     id="path3636"
     d="m 83.592634,9.4688172 -2.361576,0.9374238 -1.62131,-1.9563121 1.359551,-2.1464911 2.461559,0.6297073 z" />
  <path
     style="fill:#b4c1cf;fill-opacity:1;stroke-width:0.0178351"
     d="m 55.218749,46.456435 c -0.460352,-0.09843 -0.87571,-0.440759 -1.059389,-0.87312 -0.02869,-0.06753 -0.0576,-0.151931 -0.06423,-0.187549 -0.01025,-0.05497 -0.0059,-0.06911 0.02902,-0.09355 0.08018,-0.05616 0.142193,-0.05337 0.31489,0.0141 0.374806,0.146459 0.695913,0.20685 1.096893,0.206294 0.3951,-5.53e-4 0.71726,-0.06193 1.090498,-0.207763 0.169669,-0.06628 0.252687,-0.06906 0.317859,-0.01055 0.0417,0.03742 0.03949,0.07097 -0.01414,0.213799 -0.176627,0.470503 -0.607308,0.838488 -1.099803,0.939706 -0.169422,0.03483 -0.445294,0.03421 -0.611602,-0.0014 z m -1.610103,-2.093336 c -0.366833,-0.07488 -0.634768,-0.544502 -0.604931,-1.060291 0.01747,-0.301978 0.120935,-0.562549 0.290976,-0.732799 0.119587,-0.119736 0.233504,-0.174305 0.381327,-0.18267 0.288649,-0.01634 0.5418,0.196813 0.669222,0.563469 0.06364,0.183133 0.08125,0.534762 0.03635,0.726212 -0.106688,0.45503 -0.4429,0.753455 -0.772956,0.686079 z m 4.017835,-0.419072 c -1.026101,-0.05325 -1.007692,-0.05177 -1.081524,-0.08681 -0.03502,-0.01661 -0.07454,-0.05052 -0.08781,-0.07532 -0.0215,-0.04015 -0.01947,-0.05393 0.01852,-0.125503 0.09031,-0.17024 0.356106,-0.339375 0.660365,-0.420215 0.217595,-0.05781 0.667643,-0.0579 0.897128,-1.6e-4 0.366122,0.0921 0.674912,0.297538 0.790708,0.526052 0.0452,0.08921 0.04524,0.0896 0.01088,0.135977 -0.0765,0.103213 -0.09324,0.103841 -1.208241,0.04599 z m 1.498143,-1.177034 c -0.13673,-0.114298 -0.539601,-0.279856 -0.823908,-0.338582 -0.290315,-0.05997 -0.495302,-0.06954 -0.746329,-0.03488 -0.433755,0.05989 -0.479109,0.05579 -0.543141,-0.04923 -0.04503,-0.07385 -0.04529,-0.149537 -8.05e-4,-0.222517 0.04321,-0.07087 0.09908,-0.100001 0.262126,-0.136748 0.401429,-0.09045 0.877153,-0.06405 1.250534,0.0694 0.244255,0.0873 0.417664,0.192275 0.573841,0.347385 0.162545,0.161433 0.246027,0.3075 0.208367,0.364575 -0.03555,0.05387 -0.116648,0.05414 -0.180692,6.02e-4 z m -7.246379,-0.31524 c -0.03466,-0.03466 -0.02564,-0.246478 0.0163,-0.382467 0.133463,-0.432822 0.482727,-0.802471 0.983484,-1.040882 0.199298,-0.09489 0.410717,-0.160404 0.517614,-0.160404 0.09442,0 0.17144,0.04454 0.201522,0.11654 0.03216,0.07697 0.03184,0.105167 -0.0021,0.176581 -0.03223,0.06792 -0.117378,0.118197 -0.270665,0.159813 -0.271013,0.07359 -0.501388,0.200617 -0.764805,0.421753 -0.219638,0.184381 -0.400375,0.407769 -0.545915,0.674737 -0.03219,0.05904 -0.09488,0.07494 -0.135484,0.03432 z"
     id="path7157" />
</svg>
