<?xml version="1.0" encoding="UTF-8" standalone="no"?>
<!-- Created with Inkscape (http://www.inkscape.org/) -->

<svg
   width="85.510002mm"
   height="85.510002mm"
   viewBox="0 0 85.510002 85.510002"
   version="1.1"
   id="svg5"
   xmlns="http://www.w3.org/2000/svg"
   xmlns:svg="http://www.w3.org/2000/svg">
  <defs
     id="defs2" />
  <g
     id="g855">
    <path
       style="fill:#818181;fill-opacity:1;stroke-width:0.130907;stroke-linecap:square"
       id="path9678"
       d="m 42.65157,15.209399 5.94188,3.574614 5.94188,3.574613 -11.78012,0.02103 -11.78013,0.02103 5.83825,-3.595641 z" />
    <path
       style="fill:#818181;fill-opacity:1;stroke-width:0.130907;stroke-linecap:square"
       id="path9680"
       d="m 29.04972,38.857058 0.0608,-6.933984 0.0608,-6.933983 6.00199,10.136469 6.00198,10.136469 -6.06282,-3.202486 z" />
    <path
       style="fill:#818181;fill-opacity:1;stroke-width:0.130907;stroke-linecap:square"
       id="path9682"
       d="m 56.35971,38.857058 -0.0608,-6.933984 -0.0608,-6.933983 -6.00199,10.136469 -6.00198,10.136469 6.06282,-3.202486 z" />
    <path
       style="fill:#818181;fill-opacity:1;stroke-width:0.130907;stroke-linecap:square"
       id="path9684"
       d="m 42.65157,44.421005 5.94188,-10.128117 5.94188,-10.128117 -11.78012,-0.05958 -11.78013,-0.05958 5.83825,10.187696 z" />
    <path
       style="fill:none;stroke:#818181;stroke-width:2.055;stroke-linecap:round;stroke-linejoin:miter;stroke-miterlimit:4;stroke-dasharray:none;stroke-opacity:1"
       d="M 42.755,46.8846 V 69.273104"
       id="path9686" />
    <path
       style="fill:none;stroke:#818181;stroke-width:2.055;stroke-linecap:round;stroke-linejoin:round;stroke-miterlimit:4;stroke-dasharray:none;stroke-opacity:1;paint-order:normal"
       d="m 42.755,69.273104 8.47029,-17.102269 8.69208,16.906286"
       id="path9688" />
    <path
       style="fill:none;stroke:#818181;stroke-width:2.055;stroke-linecap:round;stroke-linejoin:round;stroke-miterlimit:4;stroke-dasharray:none;stroke-opacity:1;paint-order:normal"
       d="M 42.755,69.273104 34.28471,52.170835 25.59268,69.077121"
       id="path9690" />
    <path
       style="fill:none;stroke:#818181;stroke-width:2.055;stroke-linecap:round;stroke-linejoin:round;stroke-miterlimit:4;stroke-dasharray:none;stroke-opacity:1"
       d="M 42.755,69.273104 56.92281,55.855692 71.3605,69.096547"
       id="path9692" />
    <path
       style="fill:none;stroke:#818181;stroke-width:2.055;stroke-linecap:round;stroke-linejoin:round;stroke-miterlimit:4;stroke-dasharray:none;stroke-opacity:1"
       d="M 42.755,69.273104 28.58719,55.855692 14.1495,69.096547"
       id="path9694" />
    <path
       style="fill:none;stroke:#818181;stroke-width:2.055;stroke-linecap:round;stroke-linejoin:round;stroke-miterlimit:4;stroke-dasharray:none;stroke-opacity:1"
       d="m 42.755,69.273104 9.5256,-3.931209 1.81916,3.722614"
       id="path9696" />
    <path
       style="fill:none;stroke:#818181;stroke-width:2.055;stroke-linecap:round;stroke-linejoin:round;stroke-miterlimit:4;stroke-dasharray:none;stroke-opacity:1"
       d="m 42.755,69.273104 -9.5256,-3.931209 -1.81916,3.722614"
       id="path9698" />
  </g>
</svg>
