<?xml version="1.0" encoding="UTF-8" standalone="no"?>
<!-- Created with Inkscape (http://www.inkscape.org/) -->

<svg
   width="85.510002mm"
   height="85.510002mm"
   viewBox="0 0 85.510002 85.510002"
   version="1.1"
   id="svg5"
   xmlns="http://www.w3.org/2000/svg"
   xmlns:svg="http://www.w3.org/2000/svg">
  <defs
     id="defs2" />
  <g
     id="layer1">
    <g
       id="g19470"
       transform="translate(-198.07564,-14.168012)">
      <rect
         style="fill:#efefef;fill-opacity:1;stroke:none;stroke-width:3.95223;stroke-linecap:square;stroke-linejoin:miter;stroke-miterlimit:4;stroke-dasharray:none;stroke-opacity:1;paint-order:normal"
         id="rect9658"
         width="85.509857"
         height="85.509857"
         x="198.07564"
         y="14.168012"
         ry="0" />
      <g
         id="g9700"
         transform="matrix(0.4638424,0,0,0.4638424,185.64738,-8.9880014)">
        <path
           style="fill:#a5a5a5;fill-opacity:1;stroke-width:2.07326;stroke-linecap:square"
           id="path9678"
           transform="matrix(-0.0067532,-0.08066097,0.22952997,-0.0023732,36.854132,122.4827)"
           d="m 480.80538,370.93064 -97.10017,52.95342 -97.10017,52.95341 2.69107,-110.56793 2.69109,-110.56792 94.40909,57.61451 z" />
        <path
           style="fill:#a5a5a5;fill-opacity:1;stroke-width:2.07326;stroke-linecap:square"
           id="path9680"
           transform="matrix(-0.06604928,0.04678985,-0.11863697,-0.19650676,165.18552,184.19584)"
           d="m 480.80538,370.93064 -97.10017,52.95342 -97.10017,52.95341 2.69107,-110.56793 2.69109,-110.56792 94.40909,57.61451 z" />
        <path
           style="fill:#a5a5a5;fill-opacity:1;stroke-width:2.07326;stroke-linecap:square"
           id="path9682"
           transform="matrix(0.06604928,0.04678985,0.11863697,-0.19650676,72.537351,184.19584)"
           d="m 480.80538,370.93064 -97.10017,52.95342 -97.10017,52.95341 2.69107,-110.56793 2.69109,-110.56792 94.40909,57.61451 z" />
        <path
           style="fill:#a5a5a5;fill-opacity:1;stroke-width:1.2317;stroke-linecap:square"
           id="path9684"
           transform="matrix(-0.0067532,0.22854048,0.22952997,0.0067241,36.854132,33.419955)"
           d="m 480.80538,370.93064 -97.10017,52.95342 -97.10017,52.95341 2.69107,-110.56793 2.69109,-110.56792 94.40909,57.61451 z" />
        <path
           style="fill:none;stroke:#a5a5a5;stroke-width:4;stroke-linecap:round;stroke-linejoin:miter;stroke-miterlimit:4;stroke-dasharray:none;stroke-opacity:1"
           d="m 118.9703,151.10889 v 48.26748"
           id="path9686" />
        <path
           style="fill:none;stroke:#a5a5a5;stroke-width:4;stroke-linecap:round;stroke-linejoin:round;stroke-miterlimit:4;stroke-dasharray:none;stroke-opacity:1;paint-order:normal"
           d="m 118.9703,199.37637 18.26114,-36.87086 18.7393,36.44834"
           id="path9688" />
        <path
           style="fill:none;stroke:#a5a5a5;stroke-width:4;stroke-linecap:round;stroke-linejoin:round;stroke-miterlimit:4;stroke-dasharray:none;stroke-opacity:1;paint-order:normal"
           d="M 118.9703,199.37637 100.70916,162.50551 81.969965,198.95385"
           id="path9690" />
        <path
           style="fill:none;stroke:#a5a5a5;stroke-width:4;stroke-linecap:round;stroke-linejoin:round;stroke-miterlimit:4;stroke-dasharray:none;stroke-opacity:1"
           d="m 118.9703,199.37637 30.54444,-28.92666 31.1263,28.54602"
           id="path9692" />
        <path
           style="fill:none;stroke:#a5a5a5;stroke-width:4;stroke-linecap:round;stroke-linejoin:round;stroke-miterlimit:4;stroke-dasharray:none;stroke-opacity:1"
           d="M 118.9703,199.37637 88.42586,170.44971 57.29956,198.99573"
           id="path9694" />
        <path
           style="fill:none;stroke:#a5a5a5;stroke-width:4;stroke-linecap:round;stroke-linejoin:round;stroke-miterlimit:4;stroke-dasharray:none;stroke-opacity:1"
           d="m 118.9703,199.37637 20.53629,-8.47531 3.92194,8.0256"
           id="path9696" />
        <path
           style="fill:none;stroke:#a5a5a5;stroke-width:4;stroke-linecap:round;stroke-linejoin:round;stroke-miterlimit:4;stroke-dasharray:none;stroke-opacity:1"
           d="m 118.9703,199.37637 -20.53629,-8.47531 -3.92194,8.0256"
           id="path9698" />
      </g>
    </g>
  </g>
</svg>
