<?xml version="1.0" encoding="UTF-8" standalone="no"?>
<!-- Created with Inkscape (http://www.inkscape.org/) -->

<svg
   width="220"
   height="76"
   viewBox="0 0 58.208334 20.108334"
   version="1.1"
   id="svg5"
   xmlns="http://www.w3.org/2000/svg"
   xmlns:svg="http://www.w3.org/2000/svg">
  <defs
     id="defs2" />
  <g
     id="g1080"
     transform="matrix(0.36562977,0,0,0.36562977,15.63071,3.2534529)"
     style="fill:#818181;fill-opacity:1">
    <path
       class="st0"
       d="m 9.1,16.5 h 8 V 28 c 0,5.8 -2.9,9.1 -8.5,9.1 C 3,37.1 0,33.9 0,28.1 V 9.1 C 0,3.3 2.9,0 8.5,0 14.1,0 17,3.3 17,9.1 v 3.5 H 11.6 V 8.8 c 0,-2.6 -1.1,-3.6 -3,-3.6 -1.9,0 -3,1 -3,3.6 V 28.5 C 5.7,31 6.9,32 8.7,32 c 1.8,0 3,-0.9 3,-3.5 V 21.8 H 9.1 Z"
       id="path1062"
       style="fill:#818181;fill-opacity:1" />
    <path
       class="st0"
       d="m 19.1,0.4 h 17.7 v 5.2 h -6 V 36.8 H 25.1 V 5.6 h -6 z"
       id="path1064"
       style="fill:#818181;fill-opacity:1" />
    <path
       class="st1"
       d="m 46.6,0.4 c 5.6,0 7.8,4 7.8,9.1 v 18.2 c 0,5 -2.2,9 -7.7,9 H 39.3 V 0.4 Z m 0.1,35.9 c 5.2,0 7.2,-3.8 7.2,-8.5 V 9.5 c 0,-4.8 -2,-8.6 -7.3,-8.6 h -6.9 v 35.4 z"
       id="path1066"
       style="fill:#818181;fill-opacity:1;stroke:#818181;stroke-opacity:1" />
    <path
       class="st1"
       d="m 65.7,0.4 c 5.2,0 6.8,2.7 6.8,7.4 v 2.5 c 0,4.1 -1.1,6.6 -5.4,7.1 4.5,0.5 6.1,3.5 6.1,7.8 v 3.3 c 0,5.1 -2.1,8.3 -7.5,8.3 H 58.6 V 0.4 Z M 64.2,17.2 C 69.7,17.2 72,16 72,10.4 V 7.8 C 72,3.3 70.6,0.9 65.7,0.9 h -6.6 v 16.2 h 5.1 z m 1.5,19.1 c 5.2,0 7,-3 7,-7.8 v -3.3 c 0,-5.5 -2.7,-7.5 -8,-7.5 h -5.6 v 18.6 z"
       id="path1068"
       style="fill:#818181;fill-opacity:1;stroke:#818181;stroke-opacity:1" />
  </g>
  <style
     type="text/css"
     id="style1060">
	.st0{fill:#FFFFFF;}
	.st1{fill:#FFFFFF;stroke:#FFFFFF;stroke-miterlimit:10;}
</style>
</svg>
