<?xml version="1.0" encoding="UTF-8" standalone="no"?>
<!-- Created with Inkscape (http://www.inkscape.org/) -->

<svg
   width="220"
   height="76"
   viewBox="0 0 58.208334 20.108334"
   version="1.1"
   id="svg5"
   xmlns="http://www.w3.org/2000/svg"
   xmlns:svg="http://www.w3.org/2000/svg">
  <defs
     id="defs2">
    <style
       id="style845">.cls-1{fill:#fff;}</style>
  </defs>
  <g
     id="layer1">
    <rect
       style="fill:#7236eb;fill-opacity:1;stroke-width:0.127716;stroke-linecap:round;stroke-linejoin:round;stroke-opacity:0.95"
       id="rect979"
       width="58.208332"
       height="20.108334"
       x="0"
       y="0" />
    <g
       id="IntAct"
       transform="matrix(0.13550033,0,0,0.13550033,4.2601803,4.7033279)">
      <g
         id="LOGO">
        <path
           class="cls-1"
           d="m 507,345 v 78.59 h -6.23 V 345 Z"
           transform="translate(-500.73,-345.01)"
           id="path851" />
        <path
           class="cls-1"
           d="m 528.43,423.61 h -6.23 v -58 h 5.71 l 0.42,6.55 q 9.61,-6.54 14.59,-6.55 h 6.87 q 18.51,0 18.52,25.8 v 32.16 h -6.14 v -32.12 q 0,-20 -12.38,-20 H 543 q -3.91,0.21 -14.6,7.3 z"
           transform="translate(-500.73,-345.01)"
           id="path853" />
        <path
           class="cls-1"
           d="m 590,352.63 v 13 h 20.73 v 5.5 H 590 v 36.38 c 0.14,6.56 2.44,9.91 6.87,10.05 l 14.18,-0.43 v 5 l -13.54,1.27 q -13.86,0 -13.86,-16.92 v -35.33 h -7.83 v -5.5 h 7.83 v -13 z"
           transform="translate(-500.73,-345.01)"
           id="path855" />
        <path
           class="cls-1"
           d="m 671.34,423.61 -8.68,-24.12 h -31.83 l -8.68,24.12 h -6.34 l 24.43,-74.47 a 5.68,5.68 0 0 1 5.92,-4.13 h 1.05 q 4.66,0 5.92,4.13 l 24.55,74.47 z m -10.27,-30 -14.7,-42.1 -13.85,42.1 z"
           transform="translate(-500.73,-345.01)"
           id="path857" />
        <path
           class="cls-1"
           d="m 724.65,423.72 -20.84,0.32 q -21.88,0 -21.89,-29.09 -0.01,-29.09 21.89,-29.19 l 20.84,0.31 v 5.51 l -20.52,-0.32 q -16,0 -16,23.69 0,23.9 16,23.9 l 20.52,-0.32 z"
           transform="translate(-500.73,-345.01)"
           id="path859" />
        <path
           class="cls-1"
           d="m 744.32,352.63 v 13 h 20.73 v 5.5 h -20.73 v 36.38 c 0.13,6.56 2.43,9.91 6.87,10.05 l 14.18,-0.42 v 5 l -13.54,1.27 q -13.87,0 -13.86,-16.92 v -35.34 h -7.83 v -5.5 H 738 v -13 z"
           transform="translate(-500.73,-345.01)"
           id="path861" />
      </g>
      <g
         id="IMAGO">
        <circle
           class="cls-1"
           cx="352.20001"
           cy="64.559998"
           r="14.46"
           id="circle864" />
        <path
           class="cls-1"
           d="m 823.05,345 a 14.51,14.51 0 0 0 -13.44,13.23 14.36,14.36 0 0 0 2.22,9 7.15,7.15 0 0 1 0.08,7.41 l -9.74,16.84 a 7.32,7.32 0 0 1 -6.63,3.61 14.24,14.24 0 0 0 -1.95,0.07 14.47,14.47 0 1 0 15.89,15.6 14.36,14.36 0 0 0 -2.22,-9 7.15,7.15 0 0 1 -0.08,-7.41 l 9.75,-16.85 a 7.3,7.3 0 0 1 6.62,-3.6 14.24,14.24 0 0 0 2,-0.07 14.47,14.47 0 0 0 -2.5,-28.83 z"
           transform="translate(-500.73,-345.01)"
           id="path866" />
      </g>
    </g>
  </g>
</svg>
