<?xml version="1.0" encoding="UTF-8" standalone="no"?>
<!-- Created with Inkscape (http://www.inkscape.org/) -->

<svg
   width="220"
   height="76"
   viewBox="0 0 58.208334 20.108334"
   version="1.1"
   id="svg5"
   xmlns="http://www.w3.org/2000/svg"
   xmlns:svg="http://www.w3.org/2000/svg">
  <defs
     id="defs2">
    <rect
       x="369.53881"
       y="259.23062"
       width="206.63442"
       height="104.5103"
       id="rect36200" />
    <rect
       x="337.98073"
       y="260.40854"
       width="195.74438"
       height="84.112554"
       id="rect33564" />
    <rect
       x="404.09689"
       y="250.48424"
       width="61.144748"
       height="38.863248"
       id="rect30014" />
    <rect
       x="115.30779"
       y="237.39624"
       width="435.02173"
       height="134.37224"
       id="rect1835" />
    <rect
       x="115.30779"
       y="237.39624"
       width="435.02173"
       height="134.37224"
       id="rect8413" />
    <rect
       x="115.30779"
       y="237.39624"
       width="435.02173"
       height="134.37224"
       id="rect12638" />
  </defs>
  <g
     id="layer1">
    <text
       xml:space="preserve"
       transform="scale(0.26458333)"
       id="text30012"
       style="font-size:64px;line-height:1.25;font-family:sans-serif;white-space:pre;shape-inside:url(#rect30014)"><tspan
         x="404.09766"
         y="348.86766"
         id="tspan1119"><tspan
           style="font-weight:100;font-family:Lato;-inkscape-font-specification:'Lato Thin'"
           id="tspan1117">V</tspan></tspan></text>
    <g
       id="g1046">
      <rect
         style="fill:#67809f;fill-opacity:1;stroke-width:0.127716;stroke-linecap:round;stroke-linejoin:round;stroke-opacity:0.95"
         id="rect979"
         width="58.208332"
         height="20.108334"
         x="0"
         y="0" />
      <g
         id="g39554"
         transform="translate(-4.0368413,0.71355309)">
        <g
           id="g1031">
          <g
             aria-label="MVP "
             transform="matrix(0.26458333,0,0,0.26458333,-17.36597,-63.050572)"
             id="text12636"
             style="font-size:64px;line-height:1.25;white-space:pre;shape-inside:url(#rect12638);fill:#ffffff">
            <path
               d="m 143.66059,275.60448 q 0.64,1.216 1.216,2.528 0.608,1.312 1.152,2.688 0.544,-1.408 1.12,-2.752 0.608,-1.344 1.28,-2.56 l 11.968,-23.552 q 0.32,-0.608 0.64,-0.928 0.352,-0.352 0.768,-0.512 0.416,-0.16 0.928,-0.192 0.544,-0.032 1.248,-0.032 h 8.256 v 46.624 h -9.536 v -26.816 q 0,-1.952 0.192,-4.224 l -12.352,23.968 q -0.576,1.12 -1.568,1.696 -0.96,0.576 -2.208,0.576 h -1.472 q -1.248,0 -2.24,-0.576 -0.96,-0.576 -1.536,-1.696 l -12.416,-24 q 0.128,1.12 0.192,2.24 0.064,1.088 0.064,2.016 v 26.816 h -9.536 v -46.624 h 8.256 q 0.704,0 1.216,0.032 0.544,0.032 0.96,0.192 0.416,0.16 0.736,0.512 0.352,0.32 0.672,0.928 z"
               style="font-weight:900;font-family:Lato;-inkscape-font-specification:'Lato, Heavy'"
               id="path843" />
            <path
               d="m 175.91654,250.29248 h 8.704 q 1.408,0 2.272,0.672 0.864,0.64 1.312,1.664 l 9.024,24.96 q 0.64,1.632 1.248,3.552 0.608,1.92 1.152,4.032 0.448,-2.112 0.992,-4.032 0.576,-1.92 1.216,-3.552 l 8.96,-24.96 q 0.352,-0.896 1.248,-1.6 0.928,-0.736 2.272,-0.736 h 8.768 l -18.688,46.624 h -9.792 z"
               style="font-weight:900;font-family:Lato;-inkscape-font-specification:'Lato, Heavy'"
               id="path845" />
            <path
               d="m 237.58044,281.33248 v 15.584 h -10.816 v -46.624 h 16.448 q 4.928,0 8.448,1.184 3.552,1.152 5.824,3.2 2.304,2.048 3.392,4.832 1.088,2.784 1.088,6.016 0,3.488 -1.12,6.4 -1.12,2.912 -3.424,4.992 -2.304,2.08 -5.856,3.264 -3.52,1.152 -8.352,1.152 z m 0,-8.16 h 5.632 q 4.224,0 6.08,-2.016 1.856,-2.016 1.856,-5.632 0,-1.6 -0.48,-2.912 -0.48,-1.312 -1.472,-2.24 -0.96,-0.96 -2.464,-1.472 -1.472,-0.512 -3.52,-0.512 h -5.632 z"
               style="font-weight:900;font-family:Lato;-inkscape-font-specification:'Lato, Heavy'"
               id="path847" />
          </g>
          <g
             aria-label="P"
             transform="scale(1.0613668,0.94218135)"
             id="text22676"
             style="font-size:16.3907px;line-height:1.25;fill:#67809f;stroke:#67809f;stroke-width:0.176389;stroke-miterlimit:4;stroke-dasharray:none;stroke-opacity:1">
            <path
               d="m 41.459372,10.973733 v 4.91721 H 41.262684 V 4.417453 h 2.58973 q 1.876735,0 2.876568,0.8113396 1.008028,0.8113396 1.008028,2.4668003 0,0.7129954 -0.286837,1.3194513 -0.278642,0.5982605 -0.794949,1.0326138 -0.516307,0.434354 -1.229303,0.680214 -0.712995,0.245861 -1.573507,0.245861 z m 0,-0.163907 h 2.393042 q 0.844121,0 1.524335,-0.237665 Q 46.056963,10.3263 46.532293,9.9083373 47.015819,9.4821791 47.27807,8.9167 q 0.262251,-0.5654791 0.262251,-1.2211071 0,-1.5325304 -0.926074,-2.319284 Q 45.696368,4.58136 43.852414,4.58136 h -2.393042 z"
               style="font-weight:100;font-family:Lato;-inkscape-font-specification:'Lato Thin';stroke:#67809f;stroke-width:0.176389;stroke-miterlimit:4;stroke-dasharray:none;stroke-opacity:1"
               id="path910" />
          </g>
          <g
             aria-label="M"
             transform="matrix(0.26458333,0,0,0.26458333,-75.883658,-69.318245)"
             id="text33562"
             style="font-size:64px;line-height:1.25;white-space:pre;shape-inside:url(#rect33564);fill:#67809f;stroke:#67809f;stroke-width:0.666667;stroke-miterlimit:4;stroke-dasharray:none;stroke-opacity:1">
            <path
               d="m 366.81247,310.3282 q 0.064,-0.224 0.352,-0.672 l 19.712,-34.272 q 0.16,-0.256 0.448,-0.256 h 0.256 v 44.8 h -0.64 v -42.816 -0.576 l -19.584,34.112 q -0.224,0.32 -0.448,0.32 h -0.192 q -0.224,0 -0.448,-0.32 l -20.256,-34.144 q 0.032,0.16 0.032,0.32 0,0.128 0,0.288 v 42.816 h -0.64 v -44.8 h 0.256 q 0.288,0 0.448,0.256 l 20.352,34.272 z"
               style="font-weight:100;font-family:Lato;-inkscape-font-specification:'Lato Thin';stroke:#67809f;stroke-width:0.666667;stroke-miterlimit:4;stroke-dasharray:none;stroke-opacity:1"
               id="path868" />
          </g>
          <g
             aria-label="V"
             transform="matrix(0.26458333,0,0,0.26458333,-67.808034,-68.996368)"
             id="text36198"
             style="font-size:64px;line-height:1.25;white-space:pre;shape-inside:url(#rect36200);fill:#67809f;stroke:#67809f;stroke-width:0.666667;stroke-miterlimit:4;stroke-dasharray:none;stroke-opacity:1">
            <path
               d="m 370.91506,273.95047 h 0.576 q 0.288,0 0.384,0.32 l 17.536,42.112 0.512,1.312 q 0.096,-0.352 0.224,-0.64 0.128,-0.32 0.288,-0.672 l 17.536,-42.112 q 0.096,-0.32 0.448,-0.32 h 0.512 l -18.688,44.8 h -0.64 z"
               style="font-weight:100;font-family:Lato;-inkscape-font-specification:'Lato Thin';stroke:#67809f;stroke-width:0.666667;stroke-miterlimit:4;stroke-dasharray:none;stroke-opacity:1"
               id="path889" />
          </g>
        </g>
      </g>
    </g>
  </g>
</svg>
