<?xml version="1.0" encoding="UTF-8" standalone="no"?>
<!-- Created with Inkscape (http://www.inkscape.org/) -->

<svg
   width="220"
   height="76"
   viewBox="0 0 58.208334 20.108334"
   version="1.1"
   id="svg5"
   xmlns="http://www.w3.org/2000/svg"
   xmlns:svg="http://www.w3.org/2000/svg">
  <defs
     id="defs2" />
  <path
     style="fill:#818181;fill-opacity:1;stroke-width:0.0486726"
     d="m 15.558915,13.071603 c -0.759295,-1.483809 -1.391649,-2.698281 -1.405233,-2.698832 -0.01358,-5.51e-4 -0.615745,1.181743 -1.338137,2.627325 l -1.313441,2.62832 H 8.301605 5.1011056 L 3.7685161,12.963591 2.4359272,10.298765 3.7685154,7.63394 5.1011036,4.9691074 h 3.2005007 3.2004997 l 1.313802,2.6321236 c 0.72259,1.447666 1.328128,2.641357 1.345638,2.652648 0.01751,0.01129 0.640181,-1.163388 1.383711,-2.610396 0.74353,-1.4470079 1.375333,-2.6614991 1.404006,-2.6988719 0.04185,-0.054571 0.07312,-0.056452 0.158558,-0.00948 0.10403,0.057124 0.07584,0.1176627 -1.251376,2.6867139 -0.746792,1.445543 -1.358678,2.666103 -1.359747,2.712353 -0.0016,0.06921 0.527126,1.115142 2.606187,5.155597 0.06107,0.118677 0.05716,0.135109 -0.04852,0.204357 l -0.11492,0.0753 z M 12.182965,12.610381 13.32714,10.322441 12.170898,8.022984 11.014657,5.7235323 8.3014625,5.7109653 5.5882678,5.6983983 4.4381375,7.998253 3.2880079,10.298107 4.4377645,12.598224 5.5875211,14.898347 H 8.3131562 11.03879 Z m -3.8592475,1.026457 0.013945,-0.41772 0.4380541,-0.03555 c 0.876076,-0.07104 1.6103624,-0.27456 1.8890434,-0.523562 0.30435,-0.271939 0.155733,-0.635916 -0.434404,-1.063905 -0.168736,-0.122374 -0.2988724,-0.230413 -0.2891924,-0.240097 0.05153,-0.05155 0.8945064,0.457815 1.1384874,0.687885 0.421346,0.397317 0.404581,0.840441 -0.04472,1.18189 -0.454693,0.345549 -1.5205094,0.681776 -2.5651994,0.809231 L 8.309769,14.0545 Z M 6.4394271,12.426406 C 5.7564433,12.062081 5.4530785,11.796533 5.3447008,11.468141 5.1891988,10.996966 5.6603419,10.567828 6.7095726,10.224954 7.2457555,10.049736 7.681872,9.9680284 8.9027796,9.8140554 10.024382,9.6726014 10.439445,9.5472304 10.691228,9.273853 10.826796,9.126667 10.849457,9.071209 10.824674,8.947296 10.782074,8.73429 10.586131,8.498205 10.242239,8.245527 9.8611466,7.965516 9.8574396,7.960933 10.089877,8.057278 c 0.347148,0.1439 0.890822,0.512077 1.089565,0.737859 0.435553,0.494812 0.271813,0.9053814 -0.519999,1.303874 -0.62972,0.31692 -1.2019374,0.455335 -2.6352898,0.637441 -0.5919605,0.07521 -1.1323114,0.172912 -1.3679025,0.247335 -0.4158517,0.131366 -0.707977,0.338177 -0.7577371,0.536438 -0.048522,0.19333 0.1851899,0.522662 0.5541314,0.780837 0.3924542,0.274627 0.4354225,0.310078 0.3737302,0.308371 -0.02543,-6.72e-4 -0.1995577,-0.08307 -0.3869481,-0.183027 z M 6.4863501,9.214262 C 5.4518578,8.674067 5.1150982,8.233726 5.3657613,7.748995 5.5688943,7.356181 6.6014547,6.9080568 7.729254,6.7232628 7.9032589,6.6947678 8.11681,6.6597538 8.2038125,6.6454928 l 0.1581862,-0.025941 v 0.412418 0.412424 l -0.2798679,0.03017 c -1.9090172,0.205957 -2.5266917,0.564053 -2.0767001,1.203974 0.078079,0.11103 0.2734188,0.291019 0.4340889,0.399965 0.1606696,0.108953 0.3468427,0.235278 0.4137179,0.280722 0.2052204,0.139451 0.092663,0.09497 -0.3668877,-0.145001 z m 39.9979229,6.422347 c -0.103662,-0.06579 0.02147,-0.348903 0.154229,-0.348903 0.05919,0 0.144266,-0.02735 0.189059,-0.06082 0.07596,-0.05672 0.07502,-0.09692 -0.01382,-0.596245 -0.05239,-0.294466 -0.107755,-0.60658 -0.123017,-0.693584 -0.02743,-0.156332 -0.02551,-0.158187 0.163466,-0.158187 0.220695,0 0.246412,0.04899 0.255432,0.486726 0.011,0.533482 0.05026,0.535599 0.269516,0.01452 l 0.200694,-0.476935 0.206559,-0.01526 0.206557,-0.01525 -0.376742,0.720997 c -0.445515,0.852612 -0.566538,1.024966 -0.783322,1.115545 -0.184527,0.0771 -0.260822,0.08309 -0.348607,0.02735 z m -23.569152,-0.09942 c 0,-0.0502 0.03286,-0.184344 0.07301,-0.298156 0.04015,-0.113812 0.07301,-0.212381 0.07301,-0.219041 0,-0.0067 -0.0899,0.03239 -0.199782,0.08674 -0.352487,0.174397 -0.576799,-0.002 -0.578264,-0.454375 -0.0018,-0.567104 0.511287,-1.076263 0.856613,-0.849997 0.09154,0.06001 0.141244,0.06819 0.179734,0.0297 0.07611,-0.07611 0.325771,-0.06725 0.325771,0.01156 0,0.03562 -0.07666,0.444529 -0.170354,0.908681 -0.0937,0.464152 -0.170355,0.85116 -0.170355,0.860011 0,0.0089 -0.08761,0.01606 -0.19469,0.01606 -0.15789,0 -0.194691,-0.01721 -0.194691,-0.09122 z m 0.110878,-0.821617 c 0.04251,-0.04698 0.09253,-0.200291 0.111159,-0.34071 0.03319,-0.250198 0.03139,-0.255299 -0.09055,-0.255299 -0.170449,0 -0.326176,0.208404 -0.326176,0.436505 0,0.09901 0.0146,0.194619 0.03245,0.212462 0.05962,0.05961 0.194992,0.0334 0.27312,-0.05296 z m -3.252946,0.422795 c -0.08179,-0.02379 -0.20225,-0.100291 -0.2677,-0.17005 l -0.118999,-0.126829 0.137412,-0.118328 0.137412,-0.118328 0.124683,0.09807 c 0.139157,0.109464 0.353521,0.128678 0.442529,0.03965 0.095,-0.095 0.0719,-0.128866 -0.211635,-0.310239 -0.296625,-0.189747 -0.385037,-0.343754 -0.344227,-0.599618 0.07001,-0.43897 0.61518,-0.622514 1.011272,-0.340475 l 0.145448,0.10357 -0.133956,0.139821 c -0.122945,0.128328 -0.140884,0.13355 -0.218248,0.06351 -0.04721,-0.04274 -0.145069,-0.06933 -0.222447,-0.06048 -0.19883,0.02278 -0.209722,0.185957 -0.01989,0.298088 0.344268,0.203363 0.441477,0.322914 0.441477,0.542931 0,0.439165 -0.420099,0.699027 -0.903126,0.558649 z m 1.456938,-0.01566 c -0.217589,-0.09794 -0.310449,-0.256213 -0.310449,-0.52916 0,-0.293478 0.146991,-0.5924 0.352875,-0.717603 0.457709,-0.278351 0.815269,-0.108194 0.815269,0.387975 0,0.32745 -0.01829,0.342397 -0.418926,0.342397 -0.273191,0 -0.359837,0.01613 -0.359837,0.06707 0,0.12234 0.138966,0.190076 0.335801,0.163671 0.163957,-0.02198 0.195781,-0.01015 0.241431,0.09007 0.04354,0.09557 0.03715,0.123658 -0.03721,0.16345 -0.163788,0.08766 -0.461295,0.103106 -0.618961,0.03212 z m 0.540701,-0.807423 c 0.04657,-0.07534 -0.0668,-0.244371 -0.163902,-0.244371 -0.08269,0 -0.189887,0.09214 -0.269,0.231199 -0.04256,0.07482 0.38673,0.08788 0.432902,0.01317 z m 2.117882,0.777759 c -0.116543,-0.116548 -0.119394,-0.198141 -0.02466,-0.705755 0.121155,-0.649196 0.09986,-0.608409 0.317624,-0.608409 0.224411,0 0.226215,0.0073 0.120754,0.486727 -0.1016,0.461901 -0.09574,0.535397 0.04272,0.535397 0.169311,0 0.216206,-0.0848 0.312552,-0.565209 l 0.08675,-0.43258 0.21093,-0.01525 c 0.198821,-0.01438 0.209363,-0.0088 0.183658,0.09735 -0.015,0.06196 -0.07699,0.369965 -0.137759,0.684512 l -0.11049,0.571902 h -0.16033 c -0.110065,0 -0.160328,-0.02292 -0.160328,-0.07301 0,-0.09403 -0.01468,-0.0923 -0.205683,0.02419 -0.202513,0.12347 -0.352387,0.12353 -0.475734,1.82e-4 z m 1.721956,0.02964 c -0.217589,-0.09794 -0.310449,-0.256213 -0.310449,-0.52916 0,-0.293478 0.146991,-0.5924 0.352875,-0.717603 0.457709,-0.278351 0.815269,-0.108194 0.815269,0.387975 0,0.327451 -0.01829,0.342397 -0.418926,0.342397 -0.273191,0 -0.359837,0.01613 -0.359837,0.06707 0,0.12234 0.138966,0.190076 0.335801,0.163671 0.163957,-0.02198 0.195781,-0.01015 0.24143,0.09007 0.04354,0.09557 0.03715,0.123658 -0.03721,0.16345 -0.163787,0.08766 -0.461294,0.103106 -0.618961,0.03212 z m 0.540701,-0.807423 c 0.04657,-0.07534 -0.0668,-0.244371 -0.163902,-0.244371 -0.08269,0 -0.189887,0.09214 -0.269,0.231199 -0.04256,0.07482 0.38673,0.08788 0.432902,0.01317 z m 2.380136,0.827403 c -0.270411,-0.109262 -0.39138,-0.51133 -0.259269,-0.861745 0.124815,-0.331059 0.529945,-0.591083 0.821255,-0.527103 0.218323,0.04798 0.272726,0.142085 0.165409,0.286186 -0.06956,0.09341 -0.119146,0.113926 -0.225161,0.09317 -0.254889,-0.04993 -0.50079,0.335629 -0.369975,0.580054 0.04184,0.07819 0.08608,0.09359 0.21068,0.07337 0.134528,-0.02184 0.169571,-0.0054 0.238352,0.110908 l 0.08064,0.136508 -0.195377,0.07818 c -0.215596,0.08626 -0.312759,0.09261 -0.466551,0.03044 z m 1.216338,-0.01996 c -0.217589,-0.09794 -0.310449,-0.256213 -0.310449,-0.52916 0,-0.293478 0.146992,-0.5924 0.352875,-0.717603 0.45771,-0.27835 0.815269,-0.108194 0.815269,0.387975 0,0.327451 -0.01829,0.342397 -0.418924,0.342397 -0.273193,0 -0.359838,0.01613 -0.359838,0.06707 0,0.12234 0.138965,0.190076 0.3358,0.163671 0.163958,-0.02198 0.195782,-0.01015 0.241432,0.09007 0.04354,0.09557 0.03715,0.123658 -0.03721,0.16345 -0.163787,0.08766 -0.461295,0.103106 -0.618962,0.03212 z m 0.540701,-0.807423 c 0.04657,-0.07534 -0.0668,-0.244371 -0.163901,-0.244371 -0.08269,0 -0.189887,0.09214 -0.269,0.231199 -0.04256,0.07482 0.386729,0.08788 0.432901,0.01317 z m 0.68202,0.807645 c -0.244136,-0.106399 -0.285157,-0.191192 -0.152696,-0.315629 0.100885,-0.09478 0.120781,-0.09843 0.175706,-0.03226 0.06787,0.08178 0.319524,0.101789 0.36452,0.02897 0.01552,-0.02513 -0.02966,-0.08534 -0.100393,-0.133853 -0.27221,-0.186702 -0.360127,-0.300104 -0.360127,-0.464542 0,-0.41313 0.505758,-0.610283 0.856935,-0.33405 l 0.110191,0.08667 -0.09896,0.09897 c -0.08251,0.08251 -0.121257,0.09055 -0.233022,0.04839 -0.144017,-0.05437 -0.29443,-0.02198 -0.29443,0.06337 0,0.02883 0.06914,0.08977 0.15364,0.135378 0.241204,0.130163 0.333087,0.241193 0.333087,0.402485 0,0.212086 -0.08028,0.335341 -0.270054,0.414636 -0.200734,0.08387 -0.294595,0.08415 -0.484392,0.0013 z m 2.817588,0.01976 c -0.194932,-0.07876 -0.31099,-0.286502 -0.310126,-0.555108 0.0011,-0.342269 0.154431,-0.60539 0.437454,-0.750681 0.283315,-0.145439 0.509367,-0.117051 0.693384,0.08708 0.110399,0.122461 0.133711,0.193114 0.13305,0.403237 -0.0011,0.348667 -0.152624,0.610835 -0.4356,0.753659 -0.228866,0.115519 -0.349597,0.129921 -0.518162,0.06183 z m 0.431838,-0.42686 c 0.108655,-0.121084 0.158935,-0.433749 0.08423,-0.523763 -0.143209,-0.172556 -0.35745,-0.02742 -0.414672,0.280931 -0.0538,0.289902 0.152301,0.441356 0.330445,0.242832 z m 2.517423,0.386289 c -0.151479,-0.122663 -0.187449,-0.51699 -0.0742,-0.813505 0.16058,-0.420476 0.531061,-0.65353 0.779807,-0.490544 0.134753,0.08829 0.139829,0.07986 0.194614,-0.323392 l 0.03141,-0.231199 h 0.209405 0.209403 l -0.139332,0.693591 c -0.272117,1.354567 -0.221021,1.204646 -0.410573,1.204646 -0.110166,0 -0.166902,-0.02305 -0.166902,-0.06776 0,-0.05356 -0.03795,-0.04839 -0.180647,0.02433 -0.225363,0.114901 -0.314881,0.115653 -0.452979,0.004 z m 0.598485,-0.386518 c 0.04251,-0.04698 0.09253,-0.200291 0.11116,-0.340709 0.03319,-0.250205 0.03138,-0.255299 -0.09055,-0.255299 -0.170449,0 -0.326176,0.208403 -0.326176,0.436504 0,0.09901 0.0146,0.194619 0.03245,0.212462 0.05962,0.05961 0.194994,0.03333 0.273121,-0.05296 z m 1.665656,0.407331 c -0.244137,-0.106399 -0.285158,-0.191192 -0.152698,-0.315629 0.100885,-0.09478 0.120782,-0.09843 0.175708,-0.03226 0.06787,0.08178 0.319522,0.101789 0.364519,0.02897 0.0155,-0.02513 -0.02966,-0.08534 -0.100392,-0.133853 -0.272211,-0.186702 -0.360129,-0.300104 -0.360129,-0.464542 0,-0.41313 0.505759,-0.610283 0.856935,-0.33405 l 0.110191,0.08667 -0.09896,0.09897 c -0.08251,0.08251 -0.121259,0.09055 -0.233024,0.04839 -0.144016,-0.05437 -0.294429,-0.02198 -0.294429,0.06337 0,0.02883 0.06914,0.08977 0.153639,0.135378 0.241204,0.130163 0.333087,0.241193 0.333087,0.402485 0,0.212086 -0.08028,0.335341 -0.270055,0.414636 -0.200733,0.08387 -0.294594,0.08415 -0.484389,0.0013 z m 1.308734,0.01976 c -0.270411,-0.109262 -0.391379,-0.51133 -0.259268,-0.861745 0.124814,-0.331059 0.529945,-0.591082 0.821254,-0.527103 0.218323,0.04798 0.272726,0.142085 0.165409,0.286186 -0.06956,0.09341 -0.119146,0.113927 -0.22516,0.09317 -0.254889,-0.04993 -0.50079,0.335629 -0.369977,0.580054 0.04184,0.07819 0.08608,0.09359 0.21068,0.07338 0.13453,-0.02184 0.169572,-0.0054 0.238353,0.110909 l 0.08064,0.136507 -0.195376,0.07818 c -0.215598,0.08626 -0.312759,0.09261 -0.466552,0.03044 z m 1.216816,0 c -0.19493,-0.07876 -0.310989,-0.286502 -0.310126,-0.555108 0.0011,-0.342269 0.15443,-0.60539 0.437454,-0.750681 0.283317,-0.145439 0.509368,-0.117051 0.693384,0.08708 0.1104,0.122461 0.13371,0.193114 0.133049,0.403237 -0.0011,0.348667 -0.152622,0.610835 -0.435598,0.753659 -0.228866,0.115519 -0.349597,0.129921 -0.518163,0.06183 z m 0.431838,-0.42686 c 0.108656,-0.121084 0.158936,-0.433749 0.08423,-0.523763 -0.143209,-0.172556 -0.35745,-0.02742 -0.414673,0.280931 -0.0538,0.289902 0.152301,0.441356 0.330445,0.242832 z m 2.439371,0.40688 c -0.217589,-0.09794 -0.310448,-0.256213 -0.310448,-0.52916 0,-0.293478 0.146991,-0.5924 0.352875,-0.717603 0.457708,-0.27835 0.815269,-0.108194 0.815269,0.387975 0,0.327451 -0.01829,0.342397 -0.418926,0.342397 -0.273191,0 -0.359838,0.01613 -0.359838,0.06707 0,0.12234 0.138967,0.190076 0.335802,0.163671 0.163957,-0.02198 0.195781,-0.01015 0.24143,0.09007 0.04354,0.09557 0.03715,0.123658 -0.03721,0.16345 -0.163788,0.08766 -0.461295,0.103106 -0.618961,0.03212 z m 0.540702,-0.807423 c 0.04656,-0.07534 -0.0668,-0.244371 -0.163902,-0.244371 -0.08269,0 -0.189887,0.09214 -0.269001,0.231199 -0.04256,0.07482 0.386731,0.08788 0.432903,0.01317 z m -18.32467,0.789923 c -1.9e-5,-0.02009 0.05785,-0.326711 0.128605,-0.681413 l 0.128642,-0.644917 h 0.16343 c 0.116646,0 0.163431,0.02204 0.163431,0.07706 0,0.04241 0.01643,0.06861 0.03651,0.05827 0.292577,-0.1506 0.436218,-0.190608 0.545894,-0.152039 0.197805,0.06956 0.226048,0.245514 0.125592,0.782423 -0.04892,0.261489 -0.09916,0.502809 -0.111642,0.53627 -0.01282,0.03434 -0.105138,0.06082 -0.212174,0.06082 -0.215663,0 -0.214112,0.006 -0.116474,-0.438057 0.09744,-0.442969 0.0938,-0.584066 -0.01503,-0.584066 -0.172933,0 -0.259591,0.122239 -0.329329,0.464549 -0.122162,0.599631 -0.0985,0.557574 -0.313646,0.557574 -0.10657,0 -0.193779,-0.0164 -0.193799,-0.03649 z m 5.90923,-0.04866 c 0.03575,-0.115492 0.174888,-0.786018 0.174888,-0.842786 0,-0.025 -0.03286,-0.0455 -0.07301,-0.0455 -0.04016,0 -0.07301,-0.03145 -0.07301,-0.06984 0,-0.137616 0.0963,-0.319541 0.169149,-0.319541 0.04082,0 0.07421,-0.02406 0.07421,-0.0535 0,-0.1547 0.175999,-0.402068 0.332629,-0.467513 0.173776,-0.0726 0.494807,-0.0504 0.494807,0.03421 0,0.133106 -0.122546,0.29212 -0.225127,0.29212 -0.06234,0 -0.135296,0.04321 -0.164255,0.09735 -0.04599,0.08593 -0.03702,0.09735 0.0765,0.09735 0.09727,0 0.121404,0.01875 0.09906,0.07699 -0.01625,0.04234 -0.02954,0.128503 -0.02954,0.191461 0,0.08841 -0.03019,0.117972 -0.132691,0.129867 -0.126884,0.01472 -0.136746,0.03616 -0.225293,0.489959 l -0.0926,0.474556 h -0.216041 c -0.183349,0 -0.212053,-0.0129 -0.189679,-0.08518 z m 2.365123,0.04866 c -2e-5,-0.02009 0.05785,-0.326711 0.128604,-0.681413 l 0.128642,-0.644917 h 0.163429 c 0.143611,0 0.163432,0.01539 0.163432,0.126722 v 0.126722 l 0.172048,-0.151057 c 0.161224,-0.141555 0.36335,-0.202557 0.36335,-0.109652 0,0.02278 -0.02405,0.110384 -0.05344,0.194693 -0.04296,0.123221 -0.08044,0.153282 -0.191159,0.153282 -0.190666,0 -0.313761,0.1748 -0.384205,0.545584 -0.09248,0.486781 -0.08605,0.476539 -0.299263,0.476539 -0.105275,0 -0.191427,-0.0164 -0.191445,-0.03649 z m 3.115049,0 c -2e-5,-0.02009 0.05785,-0.326711 0.128604,-0.681413 l 0.128642,-0.644917 h 0.205598 0.205598 l -0.114589,0.571902 c -0.06302,0.314547 -0.126224,0.621184 -0.14044,0.68142 -0.02146,0.0909 -0.05878,0.109511 -0.219615,0.109511 -0.10657,0 -0.193779,-0.0164 -0.193798,-0.03649 z m 4.915974,0.02251 c 0,-0.0077 -0.03267,-0.276019 -0.07262,-0.596238 -0.09971,-0.799405 -0.10681,-0.752577 0.114098,-0.752577 h 0.187499 l 0.0437,0.523233 0.0437,0.523232 0.219022,-0.523232 0.219021,-0.523233 h 0.197602 0.197602 l -0.343614,0.681178 -0.343615,0.681172 -0.231195,1.88e-4 c -0.127158,1.41e-4 -0.231195,-0.006 -0.231195,-0.01378 z m 2.482269,-0.02251 c -2.1e-5,-0.02009 0.05785,-0.326711 0.128606,-0.681413 l 0.128641,-0.644917 h 0.16343 c 0.143612,0 0.163431,0.01539 0.163431,0.126722 v 0.126722 l 0.172049,-0.151057 c 0.161224,-0.141555 0.363349,-0.202557 0.363349,-0.109652 0,0.02278 -0.02405,0.110384 -0.05343,0.194693 -0.04296,0.123221 -0.08044,0.153282 -0.191158,0.153282 -0.190667,0 -0.313763,0.1748 -0.384206,0.545584 -0.09248,0.486781 -0.08605,0.476539 -0.299263,0.476539 -0.105277,0 -0.191427,-0.0164 -0.191447,-0.03649 z m -6.999093,-1.579422 c -0.103318,-0.103321 -0.06869,-0.279708 0.06706,-0.341557 0.149723,-0.06822 0.280587,-0.006 0.303015,0.143335 0.02876,0.191871 -0.235089,0.333197 -0.37007,0.198222 z M 26.419552,10.170504 C 26.025256,10.105854 25.485055,9.8316564 25.214822,9.5589984 24.739677,9.079583 24.506536,8.433916 24.506536,7.597447 c 0,-0.8616236 0.235698,-1.4941921 0.74741,-2.0059056 0.625084,-0.6250819 1.609989,-0.8632503 2.431095,-0.5878906 0.208426,0.069893 0.876107,0.4780639 0.876107,0.5355781 0,0.014987 -0.15611,0.220359 -0.346913,0.4563969 L 27.867321,6.4247912 27.703271,6.2996687 C 27.338915,6.0217552 26.958365,5.9749871 26.583106,6.1619855 c -0.454378,0.2264276 -0.698953,0.717704 -0.698953,1.4039965 0,0.516162 0.101859,0.858304 0.331288,1.112776 0.42864,0.475423 1.03973,0.500463 1.557029,0.06378 0.141311,-0.119289 0.167425,-0.126453 0.219027,-0.06015 0.03223,0.0414 0.186186,0.229371 0.342136,0.417687 0.315795,0.381322 0.315976,0.394924 0.0085,0.6396654 -0.515931,0.4106436 -1.16208,0.5554036 -1.92257,0.4307176 z m 22.754466,0.0127 C 48.788948,10.08161 48.545172,9.8526694 48.386516,9.443631 48.315456,9.260417 48.300106,8.998962 48.284549,7.706929 l -0.01831,-1.5210205 h 0.685084 0.685085 V 7.493506 c 0,1.249162 0.0045,1.31333 0.100878,1.435845 0.08244,0.104806 0.141152,0.128247 0.321239,0.128247 0.185709,0 0.246383,-0.02601 0.385848,-0.165492 L 50.60986,8.72662 V 7.456269 6.1859105 h 0.681417 0.681418 v 1.9712415 1.971241 h -0.557532 -0.557529 l -0.03079,-0.1825216 c -0.06491,-0.384763 -0.0611,-0.382498 -0.282775,-0.168544 -0.111049,0.107179 -0.295901,0.2418776 -0.410786,0.2993246 -0.22808,0.114054 -0.722612,0.168987 -0.959265,0.106554 z m 4.424875,-0.0297 c -0.27665,-0.06022 -0.759391,-0.2734036 -0.958954,-0.4235466 -0.08111,-0.06102 -0.06659,-0.0937 0.208852,-0.4697174 0.162809,-0.222274 0.311557,-0.396147 0.33054,-0.386382 0.523571,0.269176 0.735925,0.347726 0.94821,0.350717 0.195276,0.0027 0.255735,-0.01781 0.332995,-0.11314 0.08304,-0.102488 0.08625,-0.128839 0.02664,-0.219029 C 54.449906,8.836026 54.246728,8.718943 54.03566,8.632242 53.824591,8.545532 53.575825,8.436023 53.482845,8.388878 52.940042,8.11366 52.685437,7.617995 52.803672,7.066677 52.877842,6.7208397 53.10038,6.4473147 53.45721,6.2634078 53.73593,6.11975 53.775874,6.1128884 54.333318,6.1128884 c 0.552955,0 0.600927,0.00806 0.900444,0.1511108 0.174003,0.083106 0.366383,0.1926234 0.427505,0.2433633 l 0.111139,0.092252 -0.272532,0.3772158 C 55.349982,7.1843 55.21236,7.353764 55.194049,7.353428 55.175729,7.353059 55.031726,7.287368 54.874027,7.207412 54.535854,7.035918 54.22227,7.013148 54.097498,7.151032 c -0.04431,0.04892 -0.08055,0.110841 -0.08055,0.137528 0,0.09666 0.225653,0.246623 0.5354,0.355825 0.885488,0.312181 1.217147,0.646386 1.216544,1.225875 -5.52e-4,0.368123 -0.07031,0.576601 -0.272693,0.8130424 -0.219188,0.256071 -0.548182,0.4261676 -0.950573,0.4914566 -0.391367,0.06351 -0.576303,0.05934 -0.946732,-0.02124 z M 19.41069,7.548757 V 4.9691074 l 0.693586,0.00134 0.693584,0.00134 0.643949,1.3247615 c 0.354172,0.7286248 0.712284,1.4890381 0.795804,1.6898131 0.179342,0.431121 0.259596,0.53824 0.218804,0.292034 -0.09357,-0.564779 -0.131875,-1.079739 -0.158381,-2.1294229 l -0.0298,-1.1803108 h 0.664153 0.664154 v 2.5796497 2.57965 H 22.900614 22.204691 L 21.610648,8.933182 C 21.283925,8.27605 20.913588,7.495637 20.787678,7.198919 20.661767,6.9022085 20.550879,6.6830592 20.541258,6.7119171 c -0.0096,0.028831 0.0168,0.3482709 0.05872,0.7098079 0.04593,0.39614 0.07621,1.064395 0.07621,1.681782 v 1.024455 h -0.632745 -0.632744 z m 9.929221,0 V 4.9691074 h 1.011235 c 1.309011,0 1.742106,0.051614 2.150605,0.2561995 0.250377,0.1254048 0.344511,0.2061383 0.46175,0.3960265 0.130812,0.211871 0.147036,0.2798288 0.145248,0.6084083 -0.0024,0.4385809 -0.149236,0.7789414 -0.439194,1.0179493 l -0.178138,0.146837 0.212967,0.106944 c 0.4776,0.239828 0.644242,0.523205 0.643194,1.09375 -8.06e-4,0.453702 -0.07217,0.654121 -0.337231,0.947519 -0.423828,0.469125 -0.912488,0.581526 -2.538796,0.583965 l -1.13164,0.0013 z m 2.425566,1.440019 c 0.36769,-0.190144 0.372483,-0.734667 0.0081,-0.916712 -0.125284,-0.06257 -0.289468,-0.08512 -0.620576,-0.08518 l -0.450222,-7.4e-5 v 0.566365 0.566371 l 0.450488,-0.02359 c 0.290151,-0.01519 0.508059,-0.05336 0.612242,-0.107206 z M 31.387778,6.964489 C 31.610695,6.902593 31.770056,6.7318583 31.804795,6.517783 31.858475,6.1869858 31.549274,5.9950815 30.958277,5.9923932 l -0.255531,-0.00134 v 0.5110617 0.5110616 l 0.255531,-1.815e-4 c 0.140543,-1.545e-4 0.333818,-0.022043 0.429501,-0.048589 z m 2.819399,0.584268 V 4.9691074 h 0.681418 0.681416 v 2.5796496 2.57965 h -0.681416 -0.681418 z m 4.938916,2.518809 c -0.05652,-0.1518906 -1.483156,-5.0119925 -1.483156,-5.0526516 0,-0.026479 0.295271,-0.045834 0.700855,-0.045834 h 0.700855 l 0.344743,1.423674 c 0.18961,0.7830206 0.390876,1.6427026 0.447259,1.9104006 0.05639,0.267705 0.119724,0.504778 0.140754,0.526842 0.02103,0.02204 0.07349,-0.109357 0.116586,-0.29204 0.04309,-0.182677 0.245275,-1.054933 0.449298,-1.9383451 0.204022,-0.8834051 0.376568,-1.612292 0.383436,-1.6197384 0.0069,-0.00746 0.317911,-0.00746 0.69121,0 l 0.678724,0.013508 -0.757167,2.5672975 -0.757168,2.567291 -0.816794,1.88e-4 c -0.609055,1.41e-4 -0.822553,-0.01532 -0.839435,-0.06062 z M 42.724892,8.157165 V 6.1859239 h 0.657081 0.657081 v 1.9712411 1.971242 h -0.657081 -0.657081 z m 2.287615,0 V 6.1859239 h 0.534473 c 0.603318,0 0.544298,-0.044557 0.612354,0.4623917 0.02833,0.2110376 0.03999,0.2308564 0.08783,0.1492089 0.126888,-0.2165552 0.439168,-0.5124461 0.640926,-0.607286 0.220084,-0.1034489 0.760087,-0.1419037 0.884268,-0.062971 0.04472,0.028428 0.03384,0.1710841 -0.04612,0.6049338 L 47.6216,7.299937 47.324862,7.272247 c -0.390035,-0.03643 -0.650952,0.08874 -0.854694,0.410012 l -0.143506,0.226287 v 1.10994 1.10994 H 45.66958 45.0125 Z M 42.967496,5.5612184 c -0.441218,-0.2323349 -0.443505,-0.9221085 -0.0038,-1.1494837 0.18784,-0.097138 0.648732,-0.097138 0.836573,0 0.440732,0.2279128 0.436229,0.9118395 -0.0076,1.1498533 -0.216412,0.1160633 -0.604414,0.1158886 -0.825193,-3.696e-4 z"
     id="path836" />
</svg>
