<?xml version="1.0" encoding="UTF-8" standalone="no"?>
<!-- Created with Inkscape (http://www.inkscape.org/) -->

<svg
   width="220"
   height="76"
   viewBox="0 0 58.208334 20.108334"
   version="1.1"
   id="svg5"
   xmlns="http://www.w3.org/2000/svg"
   xmlns:svg="http://www.w3.org/2000/svg">
  <defs
     id="defs2" />
  <g
     id="layer1">
    <g
       id="g825">
      <rect
         style="fill:#51b27e;fill-opacity:1;stroke-width:0.127716;stroke-linecap:round;stroke-linejoin:round;stroke-opacity:0.95"
         id="rect979"
         width="58.208332"
         height="20.108334"
         x="0"
         y="0" />
      <path
         style="fill:#ffffff;stroke-width:0.0547854"
         d="m 49.073477,14.397883 v -1.709757 l -0.232839,0.224252 c -0.307898,0.296544 -0.614403,0.481117 -1.036612,0.62423 -0.290031,0.09831 -0.436295,0.11363 -0.894575,0.09369 -0.480184,-0.02089 -0.595224,-0.0464 -0.931354,-0.206568 -1.184702,-0.564506 -1.857238,-2.129291 -1.673182,-3.8929852 0.101882,-0.9762634 0.394226,-1.6404388 0.962056,-2.1856978 0.42315,-0.40633 0.883941,-0.633642 1.468493,-0.724424 0.864375,-0.134238 1.594053,0.124301 2.178529,0.771894 l 0.32384,0.358812 V 7.245324 6.739318 h 0.79439 0.79439 v 4.684159 4.684159 h -0.876569 -0.876567 z m -1.006025,-2.230551 c 0.759947,-0.345081 1.108586,-1.127952 1.04605,-2.348909 -0.03544,-0.6918465 -0.14202,-1.0190925 -0.443891,-1.362893 -0.309836,-0.35287 -0.58236,-0.476886 -1.04795,-0.476886 -0.447352,0 -0.707715,0.112058 -1.023934,0.44069 -0.27598,0.2868163 -0.416696,0.6459467 -0.491454,1.254267 -0.07363,0.599118 4.14e-4,1.308996 0.180313,1.727008 0.303289,0.705017 1.131501,1.06159 1.780866,0.766723 z m -16.751225,1.475559 c -0.618115,-0.06086 -0.955002,-0.15152 -1.464774,-0.394179 -0.837209,-0.398525 -1.391016,-1.119258 -1.651288,-2.149011 -0.167825,-0.663994 -0.224678,-0.60597 0.671164,-0.684992 0.429381,-0.03787 0.832778,-0.08092 0.896437,-0.09565 0.09938,-0.023 0.12505,0.01018 0.181566,0.23462 0.191409,0.760162 0.626196,1.255057 1.276028,1.452437 0.3158,0.09592 0.477485,0.11173 0.923215,0.09027 0.468852,-0.02258 0.588182,-0.04956 0.901643,-0.203875 0.73764,-0.36314 1.011773,-1.16706 0.569663,-1.670596 C 33.394896,9.965673 32.975754,9.7979752 31.761264,9.4782884 30.143704,9.0525026 29.616275,8.8112454 29.092684,8.257626 28.503467,7.634615 28.290414,6.819073 28.50333,6.001637 c 0.240897,-0.924868 0.951206,-1.57421 2.052652,-1.876471 0.506472,-0.138986 2.118302,-0.139777 2.629703,-0.0013 1.293029,0.350152 2.040867,1.170662 2.213964,2.42911 l 0.03088,0.224555 -0.583092,0.03568 C 33.94596,6.868371 33.568596,6.858861 33.546103,6.780411 33.352789,6.106185 33.05987,5.760445 32.558477,5.614685 32.058579,5.469361 31.180384,5.520815 30.762775,5.719901 30.303095,5.93904 30.12175,6.249693 30.228282,6.635519 c 0.120086,0.434918 0.620084,0.696158 1.982879,1.03602 1.362091,0.339687 2.195729,0.677268 2.611716,1.0576156 0.651658,0.5958257 0.952295,1.4914384 0.820768,2.4451064 -0.172206,1.248618 -1.084883,2.124301 -2.485359,2.384619 -0.520061,0.09667 -1.335718,0.133867 -1.842067,0.08401 z M 18.568403,13.531354 c -0.947469,-0.248209 -1.584354,-0.822045 -1.948078,-1.755223 -0.205148,-0.52633 -0.269243,-0.935593 -0.265438,-1.694894 0.0058,-1.153093 0.311427,-1.990886 0.961175,-2.634615 1.430179,-1.416931 4.019498,-1.032193 4.878657,0.724903 0.280177,0.5730002 0.472152,1.4769799 0.472152,2.223292 v 0.234275 h -2.274245 -2.274245 l 0.03289,0.232838 c 0.0938,0.664047 0.416428,1.15795 0.895749,1.371273 0.337077,0.150016 0.83989,0.145173 1.146092,-0.01104 0.222341,-0.11343 0.556268,-0.531601 0.556268,-0.696604 0,-0.03752 0.02341,-0.08269 0.05202,-0.10037 0.04341,-0.02683 1.6991,0.22455 1.738508,0.263958 0.0071,0.0071 -0.07671,0.1929 -0.186183,0.41294 -0.368707,0.741067 -1.11017,1.312041 -1.922059,1.480108 -0.461501,0.09553 -1.402535,0.06986 -1.863264,-0.05084 z M 20.871251,9.3142404 C 20.836201,8.7416334 20.533712,8.25308 20.08132,8.038405 19.840195,7.923985 19.28462,7.914204 19.031589,8.019925 18.598622,8.20083 18.279431,8.6408588 18.200796,9.1652371 c -0.06741,0.449505 -0.14264,0.42674 1.355655,0.4102085 l 1.329892,-0.014674 z m 18.256841,4.2473836 c -1.08099,-0.23534 -1.862992,-1.018984 -2.188334,-2.192928 -0.14095,-0.508599 -0.169622,-1.5435277 -0.05919,-2.136634 0.251847,-1.352684 1.134696,-2.31615 2.358918,-2.57432 0.489001,-0.103122 0.841029,-0.103368 1.378516,-9.65e-4 0.611226,0.116456 1.071177,0.358954 1.499186,0.790411 0.623048,0.628067 0.917105,1.4048426 0.971224,2.565565 l 0.02873,0.616336 h -2.253848 -2.253847 v 0.181806 c 0,0.280645 0.14611,0.707919 0.327889,0.958858 0.601053,0.829728 1.887398,0.750446 2.226402,-0.137223 0.04967,-0.130044 0.102086,-0.236444 0.116494,-0.236444 0.07838,0 1.684984,0.28338 1.70177,0.300166 0.01098,0.01098 -0.06014,0.188314 -0.158066,0.394063 -0.121792,0.255906 -0.292075,0.486905 -0.539002,0.73119 -0.598053,0.591654 -1.233499,0.821893 -2.251063,0.815621 -0.316387,-0.002 -0.723986,-0.03593 -0.90578,-0.0755 z m 2.220631,-4.1863076 c 0,-0.5315616 -0.35676,-1.1299924 -0.791331,-1.3273804 -0.292384,-0.132805 -0.808599,-0.133192 -1.099984,-8.17e-4 -0.278065,0.126316 -0.552793,0.398846 -0.662058,0.6567678 -0.09767,0.2305353 -0.196356,0.7682643 -0.153676,0.8373221 0.01597,0.025828 0.631582,0.046963 1.368038,0.046963 l 1.339011,-3e-6 z M 7.3817204,8.8449348 V 4.157147 l 2.7529706,0.02059 c 2.9881,0.02235 3.032976,0.02659 3.662646,0.345665 1.192991,0.604535 1.608144,2.462986 0.82193,3.67941 -0.341481,0.5283378 -0.839821,0.8577196 -1.583386,1.0465501 -0.216267,0.054924 -0.406257,0.112902 -0.422202,0.1288461 -0.01594,0.015944 0.106131,0.1187041 0.271278,0.2283557 0.64474,0.4280831 1.026639,0.9168101 2.268426,2.9029681 0.335784,0.537065 0.610517,0.986991 0.610517,0.999835 0,0.01284 -0.491929,0.02335 -1.093176,0.02335 H 13.577548 L 12.591843,12.067211 C 11.397004,10.290767 11.171059,10.006143 10.782847,9.7884145 10.51173,9.6363593 10.432054,9.6198382 9.8651893,9.5981411 L 9.2444269,9.5743771 V 11.553549 13.53272 H 8.3130737 7.3817204 Z M 12.504164,7.933378 C 13.263818,7.53007 13.343872,6.403228 12.646268,5.933113 12.337226,5.724849 12.117831,5.69902 10.655154,5.698703 l -1.4107271,-3.1e-4 v 1.210468 1.210467 l 1.4929051,-0.02026 c 1.492471,-0.02026 1.492984,-0.0203 1.766832,-0.165692 z m 11.861057,2.887463 V 8.10896 H 23.872152 23.379083 V 7.424141 6.739322 h 0.493069 0.493069 V 6.359788 c 0,-0.488904 0.09683,-1.182249 0.199394,-1.427788 0.159408,-0.381618 0.596319,-0.71224 1.128388,-0.85388 0.158614,-0.04223 0.514266,-0.07706 0.790337,-0.07742 0.507446,-6.64e-4 1.312409,0.120833 1.403385,0.211809 0.03978,0.03978 -0.139202,1.138168 -0.19367,1.188512 -0.0074,0.0068 -0.224408,-0.01408 -0.482415,-0.04632 -0.423464,-0.05293 -0.490092,-0.04839 -0.684819,0.04666 -0.27649,0.134959 -0.342477,0.282211 -0.387202,0.864067 l -0.03643,0.4739 h 0.6929 0.692901 v 0.684818 0.684819 h -0.684819 -0.684819 v 2.711882 2.711881 h -0.876568 -0.876568 z"
         id="path938" />
    </g>
  </g>
</svg>
