<?xml version="1.0" encoding="UTF-8" standalone="no"?>
<!-- Created with Inkscape (http://www.inkscape.org/) -->

<svg
   width="220"
   height="76"
   viewBox="0 0 58.208334 20.108334"
   version="1.1"
   id="svg5"
   xmlns="http://www.w3.org/2000/svg"
   xmlns:svg="http://www.w3.org/2000/svg">
  <defs
     id="defs2" />
  <g
     id="layer1">
    <rect
       style="fill:#f23f6c;fill-opacity:1;stroke-width:0.127716;stroke-linecap:round;stroke-linejoin:round;stroke-opacity:0.95"
       id="rect979"
       width="58.208332"
       height="20.108334"
       x="0"
       y="0" />
    <path
       style="fill:#ffffff;stroke-width:0.052;stroke-miterlimit:4;stroke-dasharray:none"
       d="m 5.3119847,12.705347 c -0.064167,-0.2145 -1.0663182,-4.7202669 -1.0663182,-4.7942567 0,-0.069506 0.084625,-0.081735 0.5655946,-0.081735 0.4939844,0 0.5689813,0.011463 0.5923389,0.090536 0.014705,0.049797 0.1905001,0.8099119 0.3906459,1.6891485 0.2001467,0.8792372 0.3776716,1.6123822 0.3945005,1.6292102 0.016828,0.01683 0.050423,-0.0041 0.074651,-0.04657 0.024229,-0.04244 0.5531991,-0.81051 1.175492,-1.7068127 l 1.1314411,-1.6296414 0.350744,-0.015383 c 0.2845928,-0.012485 0.3426814,-0.00211 0.307998,0.054845 -0.023506,0.038632 -0.7966411,1.1572012 -1.7180703,2.4857151 L 5.8356756,12.795884 H 5.5873723 c -0.1916718,0 -0.2544794,-0.02065 -0.275385,-0.09054 z m 9.6378453,0.03955 c -0.42105,-0.07603 -0.714851,-0.360741 -0.755424,-0.732054 -0.0219,-0.200412 0.190369,-1.157061 0.609711,-2.7478462 l 0.05115,-0.1940058 h 0.515352 c 0.283443,0 0.515353,0.012361 0.515353,0.027462 0,0.015101 -0.139684,0.5847601 -0.310409,1.265907 -0.170724,0.681147 -0.310407,1.316589 -0.310407,1.412093 0,0.229927 0.177748,0.398621 0.420016,0.398621 0.206414,0 0.618818,-0.237963 0.73407,-0.423567 0.04086,-0.06581 0.194794,-0.60854 0.342069,-1.206075 0.147276,-0.597536 0.290839,-1.1737305 0.319027,-1.2804329 l 0.05125,-0.1940058 h 0.515353 c 0.283444,0 0.515352,0.011885 0.515352,0.026405 0,0.01452 -0.200789,0.8293426 -0.446197,1.8107127 l -0.446198,1.784309 h -0.51736 -0.517361 l 0.03104,-0.155204 c 0.01708,-0.08537 0.01741,-0.155203 7.41e-4,-0.155203 -0.01666,0 -0.196504,0.07959 -0.399651,0.176878 -0.400786,0.191929 -0.628747,0.238145 -0.917482,0.186008 z m 4.013262,-0.0176 c -0.114413,-0.03778 -0.267153,-0.107438 -0.339423,-0.154791 -0.153572,-0.100624 -0.378492,-0.476114 -0.342061,-0.57105 0.01381,-0.036 0.123083,-0.0948 0.242823,-0.130674 0.11974,-0.03588 0.247041,-0.07648 0.282891,-0.09024 0.04003,-0.01536 0.07694,0.03378 0.09565,0.127309 0.09412,0.470577 0.663759,0.627011 1.062241,0.291711 0.197262,-0.165985 0.247637,-0.379862 0.138966,-0.59001 -0.08201,-0.158585 -0.194365,-0.242744 -0.770986,-0.577494 -0.535265,-0.310741 -0.706973,-0.687836 -0.527359,-1.1581491 0.369633,-0.9678722 2.154609,-1.2307383 2.59354,-0.3819403 0.08645,0.167176 0.103128,0.1518827 -0.294324,0.2698855 l -0.238923,0.070934 -0.08814,-0.1997714 c -0.10046,-0.2277017 -0.22309,-0.2781781 -0.57848,-0.238121 -0.302907,0.034141 -0.485179,0.1996075 -0.485179,0.440442 0,0.2333243 0.207998,0.4307243 0.775096,0.7356023 0.724152,0.389313 0.892086,0.783327 0.591204,1.387118 -0.161984,0.325061 -0.417023,0.545445 -0.794972,0.686949 -0.358248,0.134129 -1.037578,0.176394 -1.322564,0.08228 z m 12.313931,0.01508 c -0.804628,-0.113681 -1.295913,-0.646546 -1.282971,-1.391556 0.01493,-0.859355 0.57462,-1.6789088 1.43453,-2.1005783 0.818524,-0.4013753 1.748214,-0.3600064 2.287727,0.1017985 0.797453,0.6825898 0.444784,2.1875678 -0.68916,2.9409018 -0.563423,0.37431 -1.173309,0.530929 -1.750126,0.449434 z m 0.890858,-0.462312 c 0.343218,-0.209268 0.628617,-0.721859 0.762322,-1.369159 0.189305,-0.9164963 0.01084,-1.4601289 -0.511512,-1.5581221 -0.729553,-0.1368652 -1.497801,1.4465801 -1.199572,2.4724541 0.14754,0.507518 0.547713,0.699357 0.948762,0.454827 z m 2.988157,0.447233 c -0.114415,-0.03778 -0.267154,-0.107439 -0.339423,-0.154792 -0.153572,-0.100624 -0.378493,-0.476115 -0.342061,-0.57105 0.01381,-0.036 0.123082,-0.0948 0.242823,-0.130674 0.119738,-0.03588 0.247041,-0.07648 0.282891,-0.09024 0.04003,-0.01536 0.07694,0.03378 0.09565,0.127309 0.09412,0.470577 0.663758,0.627011 1.062239,0.291711 0.197263,-0.165986 0.247638,-0.379863 0.138967,-0.59001 -0.08201,-0.158585 -0.194364,-0.242744 -0.770985,-0.577494 -0.535266,-0.310742 -0.706974,-0.687837 -0.52736,-1.1581496 0.369633,-0.9678721 2.154609,-1.2307392 2.593539,-0.3819402 0.08645,0.167176 0.10313,0.1518827 -0.294323,0.2698854 l -0.238926,0.070934 -0.08814,-0.1997714 c -0.100461,-0.2276972 -0.22309,-0.2781744 -0.57848,-0.2381165 -0.302905,0.034141 -0.485178,0.1996075 -0.485178,0.4404412 0,0.2333261 0.207998,0.4307241 0.775096,0.7356021 0.724151,0.389313 0.892085,0.783327 0.591204,1.387118 -0.161984,0.325062 -0.417025,0.545445 -0.794973,0.68695 -0.358248,0.134129 -1.037578,0.176394 -1.322563,0.08228 z m 3.561115,-0.02861 c -0.175132,-0.08226 -0.228516,-0.141517 -0.278845,-0.309502 -0.05734,-0.19137 -0.03703,-0.309025 0.257444,-1.491367 0.17583,-0.705983 0.331979,-1.3243469 0.346999,-1.3741413 0.02373,-0.078651 -0.01048,-0.090536 -0.260718,-0.090536 -0.240123,0 -0.287894,-0.015057 -0.287236,-0.090536 0.0013,-0.1429295 0.06045,-0.194256 0.307288,-0.2664459 0.274101,-0.080158 0.85373,-0.628706 1.030451,-0.9751857 0.110916,-0.2174638 0.115188,-0.2198717 0.390022,-0.2198717 h 0.277879 l -0.144852,0.5725231 c -0.102487,0.4050573 -0.127327,0.5787839 -0.08492,0.5939283 0.03296,0.011771 0.236085,0.027683 0.451387,0.035357 l 0.391457,0.013956 -0.04373,0.1681381 -0.04373,0.1681372 H 40.56836 40.110671 l -0.317557,1.2695839 c -0.336122,1.343797 -0.344289,1.472356 -0.09353,1.472356 0.06353,0 0.204382,-0.0604 0.313006,-0.134205 l 0.197499,-0.134203 0.125656,0.118047 0.125654,0.118047 -0.168226,0.173568 c -0.390659,0.403054 -1.143245,0.585639 -1.576018,0.382355 z M 8.7059715,12.601878 c 0.012758,-0.0498 0.2063458,-0.82642 0.4301999,-1.725834 L 9.5431784,9.2407451 10.081762,9.1011672 c 0.29622,-0.076766 0.546238,-0.1319234 0.555594,-0.1225666 0.01349,0.013489 -0.632578,2.6558954 -0.8605993,3.5198074 l -0.05121,0.194005 H 9.204163 c -0.4709036,0 -0.5191402,-0.0087 -0.4981932,-0.09054 z m 2.0582615,0.06594 c 0,-0.01552 0.200789,-0.831153 0.446198,-1.812523 l 0.446197,-1.7843074 h 0.529587 0.529587 l -0.02699,0.1411515 c -0.02689,0.1406555 -0.02655,0.1408326 0.09771,0.05022 0.27783,-0.2026005 0.645657,-0.3455722 0.890348,-0.34607 0.453505,-8.811e-4 0.680107,0.2113748 0.553044,0.5181323 -0.134156,0.3238842 -0.566414,0.4295699 -0.861607,0.2106603 -0.254865,-0.1890058 -0.418914,-0.1607408 -0.66876,0.115223 -0.21007,0.2320303 -0.220736,0.2626483 -0.547422,1.5714403 l -0.333177,1.3348 -0.527359,0.01474 c -0.290048,0.0081 -0.52736,0.002 -0.52736,-0.01347 z m 13.566791,-0.04007 c 0.01286,-0.03557 0.288639,-1.129756 0.612841,-2.431529 l 0.58946,-2.366861 h 0.556723 c 0.306198,0 0.556723,0.012493 0.556723,0.027762 0,0.015269 -0.116403,0.4916681 -0.258673,1.0586697 -0.14227,0.5670017 -0.258673,1.043403 -0.258673,1.058669 0,0.015269 0.464517,0.027762 1.032262,0.027762 h 1.032261 l 0.04591,-0.1681379 c 0.02525,-0.092476 0.147891,-0.5813681 0.27254,-1.0864274 l 0.226637,-0.918291 h 0.557644 c 0.306705,0 0.557645,0.011824 0.557645,0.026273 0,0.014449 -0.270633,1.1086369 -0.601406,2.4315293 l -0.601407,2.405258 h -0.56611 c -0.515008,0 -0.563658,-0.0082 -0.538952,-0.09054 0.04392,-0.146414 0.548897,-2.17937 0.548897,-2.209765 0,-0.01527 -0.464715,-0.02776 -1.032699,-0.02776 h -1.032703 l -0.05124,0.194005 c -0.02818,0.106702 -0.160018,0.630515 -0.292968,1.16403 l -0.241725,0.970024 h -0.568183 c -0.432528,0 -0.562602,-0.01544 -0.544802,-0.06467 z m 18.767367,0.012 c 0,-0.04373 0.973124,-3.9748632 1.144035,-4.6215771 l 0.05264,-0.1991943 1.27704,0.02452 c 0.992937,0.019066 1.345473,0.044185 1.584634,0.1129129 0.952967,0.2738564 1.420223,0.779246 1.466966,1.5866928 0.08099,1.3990337 -1.111807,2.7332547 -2.742402,3.0675557 -0.470617,0.09648 -2.782917,0.120655 -2.782917,0.02909 z m 2.407725,-0.441006 C 46.55798,11.926541 47.338137,10.836504 47.340018,9.6364086 47.340454,9.3108751 47.316608,9.1973745 47.198362,8.9642139 46.937142,8.4491423 46.512192,8.24323 45.710439,8.24323 h -0.38347 l -0.05121,0.1940049 C 45.10741,9.0749127 44.34003,12.181749 44.34003,12.225658 c 0,0.08233 0.816807,0.06347 1.166094,-0.02692 z m 3.541759,0.467399 c 0,-0.01445 0.270635,-1.108637 0.601407,-2.431529 l 0.601405,-2.4052575 1.22224,8.062e-4 c 1.336927,8.81e-4 1.64301,0.042493 2.044777,0.2779391 0.259216,0.1519101 0.444963,0.4411743 0.444963,0.6929347 0,0.4380871 -0.360026,0.9625559 -0.822829,1.198661 -0.116526,0.059446 -0.211863,0.1280675 -0.211863,0.1524915 0,0.02442 0.06995,0.07338 0.155441,0.108793 0.201661,0.08353 0.437971,0.355065 0.516758,0.593785 0.166207,0.503616 -0.257401,1.211831 -0.928146,1.551723 -0.504139,0.255467 -0.742543,0.285922 -2.238185,0.285922 -0.762282,0 -1.385968,-0.01182 -1.385968,-0.02627 z m 2.66369,-0.53613 c 0.141917,-0.06336 0.313775,-0.166448 0.381905,-0.22908 0.30766,-0.282835 0.420265,-0.925936 0.20912,-1.19436 -0.187849,-0.238811 -0.388811,-0.306317 -0.987582,-0.331744 l -0.552403,-0.02345 -0.05277,0.200495 c -0.1251,0.475329 -0.420329,1.672661 -0.420329,1.704679 0,0.01926 0.261907,0.02458 0.582014,0.01184 0.454426,-0.01809 0.638583,-0.04842 0.840043,-0.138374 z m 0.51584,-2.2972254 c 0.31079,-0.1760315 0.508335,-0.4918145 0.534574,-0.8545372 0.0193,-0.2667472 0.0063,-0.318516 -0.116408,-0.4643662 C 52.473879,8.3098375 52.244626,8.2438917 51.705692,8.2435216 L 51.2853,8.2432388 51.095709,9.0063246 c -0.104276,0.4196977 -0.201854,0.8038274 -0.216841,0.8536218 -0.02485,0.082528 0.02452,0.090461 0.558248,0.089685 0.510238,-7.41e-4 0.611824,-0.015762 0.790289,-0.1168424 z M 21.835449,11.215018 c 0,-0.01585 0.02604,-0.132257 0.05788,-0.258674 l 0.05788,-0.229847 h 1.00367 1.003668 l -0.03443,0.14227 c -0.09826,0.406047 -0.007,0.375076 -1.104425,0.375076 -0.541331,0 -0.984238,-0.01297 -0.984238,-0.02883 z M 10.065815,8.2869636 C 9.9139247,8.2038893 9.8330087,8.0846319 9.8330087,7.943854 c 0,-0.4369417 0.7066763,-0.8087604 1.0288063,-0.5413084 0.271033,0.2250276 0.132955,0.661097 -0.266788,0.8425601 -0.248514,0.1128117 -0.380413,0.1232442 -0.529212,0.041859 z"
       id="path915" />
  </g>
</svg>
