<?xml version="1.0" encoding="UTF-8" standalone="no"?>
<!-- Created with Inkscape (http://www.inkscape.org/) -->

<svg
   width="220"
   height="76"
   viewBox="0 0 58.208334 20.108334"
   version="1.1"
   id="svg5"
   xmlns="http://www.w3.org/2000/svg"
   xmlns:svg="http://www.w3.org/2000/svg">
  <defs
     id="defs2" />
  <path
     style="fill:#7f8994;stroke-width:0.107755;fill-opacity:1"
     d="m 34.76045,18.07734 c -0.485858,-0.253334 -0.710547,-0.485919 -0.929011,-0.961672 -0.379114,-0.825594 -0.155266,-1.742075 0.584042,-2.391197 1.339296,-1.175916 3.554586,0.127886 3.252755,1.9144 -0.0918,0.54338 -0.578088,1.203009 -1.053007,1.428374 -0.476385,0.226059 -1.43063,0.231253 -1.854779,0.01009 z m 4.838092,-0.143317 c -0.664831,-0.301929 -0.959143,-0.784491 -0.959143,-1.572643 0,-0.504409 0.05517,-0.723874 0.250948,-0.998363 0.974251,-1.365926 3.143355,-0.676998 3.143355,0.998363 0,0.711576 -0.309802,1.203724 -0.966562,1.535514 -0.580041,0.293028 -0.887979,0.300812 -1.468598,0.03713 z m 3.62225,-2.580311 c -1.167995,-0.6264 -1.126886,-2.246915 0.07167,-2.827145 1.540219,-0.745608 3.020569,1.336239 1.787001,2.513087 -0.563704,0.537775 -1.231256,0.650568 -1.858715,0.314058 z M 32.348159,13.34411 c -0.965925,-0.301226 -1.628773,-1.244001 -1.628773,-2.316619 0,-2.5432528 3.375598,-3.3108208 4.546368,-1.0337856 0.240417,0.4675846 0.29007,1.4278896 0.09938,1.9219396 -0.217878,0.564481 -0.968686,1.25463 -1.553998,1.42845 -0.650809,0.193268 -0.843274,0.19327 -1.462974,1.5e-5 z m 1.521371,-1.445737 c 0.311423,-0.278258 0.351905,-0.378496 0.351905,-0.871374 0,-0.476239 -0.04368,-0.594518 -0.301445,-0.816235 -0.551366,-0.4742661 -1.108609,-0.4742661 -1.659976,0 -0.257762,0.221717 -0.301441,0.339996 -0.301441,0.816235 0,0.492878 0.04048,0.593116 0.351905,0.871374 0.263525,0.23546 0.459296,0.314426 0.779525,0.314426 0.320227,0 0.515999,-0.07896 0.779527,-0.314426 z m -21.306921,1.29482 c -0.565976,-0.262859 -0.89543,-0.589248 -1.141327,-1.13071 -0.172612,-0.380089 -0.201215,-0.724315 -0.203248,-2.4460501 -0.0021,-1.8061028 0.01706,-2.0212993 0.19469,-2.1820462 0.264963,-0.2397881 0.618457,-0.2248619 0.880497,0.037176 0.199587,0.1995871 0.215511,0.359184 0.215511,2.1600054 0,1.9208499 0.0033,1.9477099 0.26449,2.2089839 0.342426,0.342425 0.815993,0.344249 1.211136,0.0047 l 0.302337,-0.259825 0.03403,-1.9754525 c 0.03666,-2.1279386 0.09632,-2.3538871 0.621502,-2.3538871 0.542322,0 0.583651,0.1725287 0.583651,2.4364847 0,2.3492409 -0.0807,2.6801769 -0.780232,3.1995459 -0.714455,0.530452 -1.466025,0.634116 -2.18304,0.301108 z m 3.788138,0.0078 c -0.145434,-0.1607 -0.178333,-0.439646 -0.178333,-1.512032 0,-1.487951 0.09353,-1.8142526 0.680019,-2.3725012 1.06197,-1.0108295 2.801247,-0.6618989 3.425905,0.6872992 0.159217,0.343891 0.200035,0.696623 0.201923,1.744914 0.0022,1.236946 -0.01166,1.323718 -0.23712,1.481637 -0.343346,0.240488 -0.575215,0.208042 -0.830246,-0.116178 -0.194494,-0.247259 -0.223332,-0.433555 -0.223332,-1.442759 0,-1.404632 -0.131802,-1.662716 -0.849139,-1.662716 -0.720808,0 -0.812402,0.173522 -0.874947,1.657573 -0.04455,1.056982 -0.08943,1.317674 -0.25915,1.505115 -0.252691,0.279078 -0.618382,0.291752 -0.85558,0.02965 z m 5.0179,0.02932 c -0.232669,-0.162968 -0.239441,-0.223562 -0.237838,-2.128169 8.97e-4,-1.078234 0.03728,-2.0137781 0.08082,-2.0789872 0.26056,-0.3902248 0.874839,-0.3613425 1.095798,0.051519 0.06787,0.1268162 0.1148,0.9383182 0.1148,1.9850232 0,1.62802 -0.01798,1.793366 -0.223332,2.054436 -0.255032,0.324219 -0.4869,0.356666 -0.830245,0.116177 z m 1.815686,-0.116178 c -0.211191,-0.268483 -0.223332,-0.418236 -0.223332,-2.754842 0,-2.4206351 0.04692,-2.807543 0.366334,-3.0208225 0.235139,-0.1570051 2.528496,-0.091444 2.949132,0.084314 0.819769,0.3425206 1.318013,1.0898894 1.318013,1.9770238 0,0.6807107 -0.141122,1.0511017 -0.572325,1.5021367 -0.468252,0.48979 -0.87572,0.683894 -1.474647,0.702472 -0.649472,0.02015 -0.884012,-0.165208 -0.840931,-0.664591 0.03555,-0.41214 0.163019,-0.516808 0.740858,-0.608335 0.556564,-0.08815 0.85398,-0.4074376 0.85398,-0.9167527 0,-0.6159897 -0.359821,-0.8656659 -1.247556,-0.8656659 h -0.679716 l -0.03311,2.1979406 c -0.02985,1.982942 -0.05318,2.220102 -0.238372,2.424496 -0.279408,0.308373 -0.648801,0.285298 -0.918336,-0.05736 z m 4.733412,0.06841 c -0.189027,-0.189029 -0.215511,-0.359184 -0.215511,-1.38474 0,-0.643077 0.05519,-1.334057 0.122639,-1.535514 0.301347,-0.9000528 1.053829,-1.4678883 2.086432,-1.5744633 0.479394,-0.049478 0.600046,-0.023532 0.794417,0.1708382 0.278088,0.2780897 0.296061,0.6761532 0.04061,0.8991868 -0.103715,0.09055 -0.424334,0.1896997 -0.712481,0.2203347 -0.873338,0.09285 -0.978041,0.2781736 -1.020637,1.8064486 -0.03274,1.174453 -0.0567,1.305106 -0.266424,1.452001 -0.313525,0.219601 -0.572223,0.202721 -0.82904,-0.05409 z m 9.377937,0.09562 c -0.470146,-0.187633 -0.969142,-0.635389 -1.189525,-1.067371 -0.189235,-0.370933 -0.214515,-0.635961 -0.214515,-2.2489226 0,-2.0133176 0.04599,-2.1670972 0.648117,-2.1670972 0.329957,0 0.644948,0.3274751 0.644948,0.6705083 0,0.159348 0.09556,0.1915351 0.568675,0.1915351 0.700408,0 1.047656,0.2137706 1.047656,0.6449447 0,0.4839761 -0.247565,0.6481191 -0.977493,0.6481191 h -0.638838 v 0.7962276 c 0,0.987135 0.162836,1.237286 0.863141,1.325959 0.266093,0.03369 0.568653,0.135132 0.672371,0.225423 0.268087,0.233382 0.241069,0.728307 -0.05089,0.932818 -0.266419,0.186608 -0.964979,0.210945 -1.373624,0.04786 z m 7.799902,-1.54056 c -1.415607,-0.621853 -0.974371,-2.6497662 0.576528,-2.6497662 0.415812,0 0.538821,0.057185 0.899992,0.4183438 0.352103,0.3521068 0.418337,0.4894448 0.418337,0.8673944 0,0.246977 -0.07353,0.59129 -0.163456,0.76514 -0.283791,0.548799 -1.157473,0.851004 -1.731401,0.598888 z M 21.298489,8.2720323 C 20.917633,7.8911765 21.236529,7.148298 21.780884,7.148298 c 0.211405,0 0.64134,0.4400584 0.64134,0.6564394 0,0.5307081 -0.748899,0.8421312 -1.123735,0.4672949 z M 44.770676,7.7517277 C 44.470334,7.4513809 44.404314,7.3038035 44.404314,6.9327874 c 0,-0.3710162 0.06598,-0.5185946 0.366362,-0.8189413 0.300351,-0.3003458 0.447927,-0.3663676 0.818948,-0.3663676 0.371013,0 0.518598,0.06602 0.81894,0.3663676 0.300342,0.3003467 0.366362,0.4479251 0.366362,0.8189413 0,0.3710161 -0.06598,0.5185935 -0.366362,0.8189403 -0.300342,0.3003467 -0.447927,0.3663685 -0.81894,0.3663685 -0.371021,0 -0.518597,-0.06602 -0.818948,-0.3663685 z M 34.676611,5.3019654 c -0.249393,-0.1395682 -0.237114,-0.596989 0.01971,-0.7344406 0.263638,-0.1410947 0.726563,0.1955173 0.626719,0.4557115 -0.0994,0.2590303 -0.428255,0.4008268 -0.646429,0.2787291 z M 43.574032,5.186781 C 42.884617,5.0081349 42.655411,4.0992942 43.153691,3.5200125 c 0.20614,-0.2396446 0.349047,-0.2998873 0.711438,-0.2998873 0.378767,0 0.506855,0.059738 0.777421,0.3625493 0.27052,0.3027633 0.313828,0.4248498 0.262626,0.7403511 -0.113923,0.702015 -0.639416,1.0429998 -1.331144,0.8637554 z M 36.214909,3.7001273 c -0.259444,-0.259445 -0.273197,-0.4656994 -0.04618,-0.6927131 0.200969,-0.2009693 0.597591,-0.2213484 0.778913,-0.040018 0.181326,0.1813245 0.160947,0.5779481 -0.04004,0.7789164 -0.227013,0.2270147 -0.433268,0.2132646 -0.692711,-0.046179 z M 40.86717,3.3429768 c -0.497479,-0.5295422 -0.125162,-1.3669353 0.607758,-1.3669353 0.460014,0 0.77428,0.3280184 0.77428,0.808165 0,0.7482588 -0.872583,1.1010542 -1.382038,0.5587703 z M 38.322245,2.9218632 C 38.229985,2.790145 38.154501,2.6069751 38.154501,2.5148176 c 0,-0.325285 0.324284,-0.6465318 0.652641,-0.6465318 0.353305,0 0.748185,0.3285757 0.748185,0.6225562 0,0.6208061 -0.883775,0.9297277 -1.233082,0.4310212 z"
     id="path1121" />
  <circle
     style="fill:#7f8994;fill-opacity:1;stroke:none;stroke-width:1.57083;stroke-linecap:round;stroke-linejoin:round"
     id="path845"
     cx="35.688217"
     cy="16.290798"
     r="2.0999999" />
  <circle
     style="fill:#7f8994;fill-opacity:1;stroke:none;stroke-width:1.32109;stroke-linecap:round;stroke-linejoin:round"
     id="circle1307"
     cx="40.354233"
     cy="16.367624"
     r="1.7661287" />
  <circle
     style="fill:#7f8994;fill-opacity:1;stroke:none;stroke-width:1.19427;stroke-linecap:round;stroke-linejoin:round"
     id="circle1309"
     cx="43.963863"
     cy="13.963602"
     r="1.5965903" />
  <circle
     style="fill:#7f8994;fill-opacity:1;stroke:none;stroke-width:1.04482;stroke-linecap:round;stroke-linejoin:round"
     id="circle1311"
     cx="45.637596"
     cy="10.442613"
     r="1.3968009" />
  <circle
     style="fill:#7f8994;fill-opacity:1;stroke:none;stroke-width:0.916123;stroke-linecap:round;stroke-linejoin:round"
     id="circle1313"
     cx="45.608452"
     cy="6.9438553"
     r="1.2247486" />
  <circle
     style="fill:#7f8994;fill-opacity:1;stroke:none;stroke-width:0.78813;stroke-linecap:round;stroke-linejoin:round"
     id="circle1315"
     cx="43.889015"
     cy="4.222034"
     r="1.0536374" />
  <circle
     style="fill:#7f8994;fill-opacity:1;stroke:none;stroke-width:0.639132;stroke-linecap:round;stroke-linejoin:round"
     id="circle1317"
     cx="41.455776"
     cy="2.7965941"
     r="0.85444421" />
  <circle
     style="fill:#7f8994;fill-opacity:1;stroke:none;stroke-width:0.523148;stroke-linecap:round;stroke-linejoin:round"
     id="circle1319"
     cx="38.86544"
     cy="2.5564384"
     r="0.69938743" />
  <circle
     style="fill:#7f8994;fill-opacity:1;stroke:none;stroke-width:0.434471;stroke-linecap:round;stroke-linejoin:round"
     id="circle1321"
     cx="36.552006"
     cy="3.4150603"
     r="0.58083677" />
  <circle
     style="fill:#7f8994;fill-opacity:1;stroke:none;stroke-width:0.331442;stroke-linecap:round;stroke-linejoin:round"
     id="circle1323"
     cx="34.873363"
     cy="4.9824901"
     r="0.44309914" />
</svg>
