<?xml version="1.0" encoding="UTF-8" standalone="no"?>
<!-- Created with Inkscape (http://www.inkscape.org/) -->

<svg
   width="220"
   height="76"
   viewBox="0 0 58.208334 20.108334"
   version="1.1"
   id="svg5"
   xmlns="http://www.w3.org/2000/svg"
   xmlns:svg="http://www.w3.org/2000/svg">
  <defs
     id="defs2" />
  <path
     style="fill:#818181;stroke-width:0.138448;fill-opacity:1"
     d="m 27.297891,17.967683 c -0.911363,-0.177586 -2.266187,-0.629316 -2.67526,-0.891994 -0.128169,-0.0823 0.03814,-0.206586 0.553795,-0.41384 1.33462,-0.536426 1.426659,-0.526473 2.94433,0.318434 l 1.376661,0.766404 1.278855,-0.773737 c 1.408224,-0.852005 1.513805,-0.863417 2.815527,-0.304311 0.599346,0.257427 0.615798,0.279319 0.354172,0.471295 -0.150907,0.110729 -0.773924,0.362094 -1.384488,0.558585 -1.369979,0.440882 -3.75614,0.562904 -5.263592,0.269164 z m -2.90743,-0.407706 c -0.310143,-0.0936 -0.485696,-0.209363 -0.399021,-0.263126 0.08513,-0.0528 0.39664,0.02471 0.692247,0.172249 0.610156,0.304529 0.513748,0.334408 -0.293226,0.09088 z M 21.344584,17.137706 C 20.583114,16.88787 19.52398,16.478467 18.990949,16.227921 l -0.969142,-0.455536 0.592875,-0.201845 c 0.567691,-0.193268 0.611797,-0.187711 1.038368,0.130839 0.742669,0.554603 1.465726,0.960288 2.573954,1.44416 1.339356,0.584794 0.912282,0.581001 -0.88242,-0.0078 z m 12.775972,0.256535 c 0.169373,-0.118632 0.38158,-0.170186 0.471578,-0.114567 0.112294,0.0694 0.07964,0.134016 -0.104084,0.205964 -0.484565,0.189759 -0.694396,0.137572 -0.367493,-0.0914 z m 2.529272,-0.434549 c 0.727038,-0.366655 1.577083,-0.868762 1.888985,-1.115794 0.629972,-0.498949 0.689269,-0.513183 1.245089,-0.298868 l 0.389748,0.150279 -0.623018,0.329122 c -0.745945,0.394058 -3.223302,1.37503 -3.807347,1.507618 -0.228445,0.05186 0.179503,-0.205701 0.906543,-0.572357 z M 26.051849,15.547069 22.867525,13.792062 V 9.9207524 6.0494423 l 3.253548,-1.6225161 c 1.789454,-0.8923831 3.301715,-1.6244326 3.360572,-1.6267754 0.05886,-0.00235 0.588425,0.2698963 1.176818,0.6049784 0.588388,0.335081 1.879724,1.0692786 2.869634,1.6315517 l 1.79984,1.0223128 0.0337,3.8025727 c 0.01853,2.0914126 -0.01261,3.8676546 -0.06922,3.9472016 -0.05662,0.07955 -0.321012,0.27229 -0.587525,0.428315 -0.266512,0.156025 -1.521151,0.916444 -2.788086,1.689818 -1.26693,0.773376 -2.388371,1.39917 -2.492083,1.390656 -0.103715,-0.0085 -1.621515,-0.805232 -3.372895,-1.770488 z M 24.944261,10.133688 V 8.4030759 h -0.346124 -0.346124 l -0.0394,1.5836985 c -0.02166,0.8710336 -0.0064,1.6697546 0.03401,1.7749336 0.04056,0.105673 0.21304,0.171408 0.385515,0.146916 0.304864,-0.04329 0.312132,-0.08462 0.312132,-1.774936 z m 3.034553,1.715799 c 0.120446,-0.04622 0.218994,-0.200782 0.218994,-0.343473 0,-0.227384 -0.07608,-0.249008 -0.615833,-0.175028 -0.556678,0.0763 -0.656429,0.04382 -1.03837,-0.338121 -0.525768,-0.525768 -0.556652,-1.1032896 -0.08811,-1.647539 0.291154,-0.3381969 0.425498,-0.385749 1.038366,-0.3675402 0.600919,0.017856 0.703941,-0.016693 0.703941,-0.2360128 0,-0.1828969 -0.1365,-0.2825345 -0.473744,-0.3458016 -1.013923,-0.1902128 -1.874978,0.3271855 -2.167094,1.302188 -0.221794,0.7402706 0.206551,1.7383606 0.869683,2.0264616 0.481007,0.208977 1.185321,0.265636 1.552161,0.124866 z m 2.265961,-1.404289 0.03946,-1.4191016 h 0.410502 c 0.345573,0 0.410502,-0.054744 0.410502,-0.3461226 0,-0.3435594 -0.0092,-0.3461226 -1.246042,-0.3461226 -1.236811,0 -1.246041,0.00257 -1.246041,0.3461226 0,0.3032696 0.06,0.3461226 0.484576,0.3461226 h 0.48457 V 10.48944 c 0,1.43835 0.0054,1.462587 0.31151,1.419102 0.296872,-0.04217 0.313366,-0.110909 0.350964,-1.463344 z m 3.006579,1.246041 c 0.260312,-0.637049 1.038213,-3.0174176 1.038213,-3.1769165 0,-0.099262 -0.126144,-0.1804713 -0.280321,-0.1804713 -0.310783,0 -0.442768,0.2678623 -0.80158,1.6267752 -0.125664,0.4759186 -0.262138,0.8653066 -0.303273,0.8653066 -0.04113,0 -0.151413,-0.327086 -0.245048,-0.726857 -0.387122,-1.6527677 -0.438031,-1.7652248 -0.799141,-1.7652248 -0.186793,0 -0.339619,0.036216 -0.339619,0.080477 0,0.1376585 0.959467,3.2530738 1.04397,3.3898058 0.134438,0.217529 0.581831,0.143985 0.686799,-0.112897 z m -11.029578,5.093954 c -1.10156,-0.476932 -2.69023,-1.462643 -2.520574,-1.563929 0.06625,-0.03955 0.476444,-0.150712 0.91156,-0.247029 l 0.791119,-0.175121 0.801045,0.828072 c 0.440575,0.455438 0.972376,0.939284 1.18178,1.075212 0.922334,0.598694 0.152936,0.653378 -1.16493,0.08279 z m 12.72962,0.332829 c -0.04212,-0.04211 0.422825,-0.575961 1.033196,-1.186332 l 1.109765,-1.109763 0.708955,0.166221 c 0.389921,0.09142 0.759628,0.195274 0.821574,0.230787 0.178812,0.102517 -0.87567,0.815598 -2.10043,1.420399 -1.092283,0.539384 -1.414356,0.63739 -1.57306,0.478688 z M 23.40355,16.303577 c -0.773648,-0.521003 -1.717244,-1.595728 -1.412966,-1.609324 0.101578,-0.0046 0.476711,-0.05637 0.833619,-0.115179 0.610952,-0.100672 0.728228,-0.06418 2.00419,0.623612 1.078578,0.581395 1.299409,0.749745 1.081686,0.824616 -0.150467,0.05175 -0.608188,0.242096 -1.017162,0.423007 -0.408973,0.180913 -0.752465,0.328932 -0.763317,0.328932 -0.01085,0 -0.337574,-0.214049 -0.72605,-0.475664 z m 10.820351,0.342971 c -0.0451,-0.07298 -0.454094,-0.268364 -0.908865,-0.434181 l -0.826853,-0.301487 1.172736,-0.716517 1.17273,-0.716517 0.898568,0.134288 0.898568,0.134289 -0.275418,0.386786 c -0.357014,0.501379 -1.665889,1.646032 -1.882189,1.646032 -0.092,0 -0.20417,-0.05971 -0.249277,-0.132693 z M 16.914216,14.986634 c -0.986599,-0.756317 -1.673442,-1.505856 -1.515748,-1.654104 0.115722,-0.108794 1.399627,-0.429862 1.718943,-0.429862 0.06619,0 0.264037,0.233633 0.439664,0.519184 0.175626,0.285551 0.554618,0.775466 0.842204,1.088699 l 0.522885,0.569516 -0.593256,0.226566 c -0.326292,0.124611 -0.622325,0.222989 -0.657852,0.218619 -0.03552,-0.0044 -0.376106,-0.24675 -0.75684,-0.538618 z m 22.871727,0.244876 -0.387708,-0.141381 0.664607,-0.7177 c 0.365532,-0.394734 0.78921,-0.883731 0.941502,-1.08666 0.26994,-0.359692 0.296899,-0.365316 1.07298,-0.223822 0.437848,0.07983 0.796085,0.188017 0.796085,0.240421 0,0.130782 -1.204216,1.277018 -1.812908,1.725623 -0.537782,0.396343 -0.682435,0.419441 -1.274558,0.203519 z M 18.766046,14.463153 c -0.592131,-0.625198 -1.288783,-1.550608 -1.213505,-1.611978 0.02966,-0.02418 0.645789,-0.114683 1.369185,-0.201125 1.027627,-0.122796 1.327802,-0.120172 1.372578,0.01198 0.03149,0.09304 0.255127,0.548661 0.496888,1.012491 l 0.439576,0.84333 -0.81451,0.168234 c -0.447978,0.09253 -0.891279,0.197694 -0.985107,0.2337 -0.09383,0.036 -0.393129,-0.169486 -0.665105,-0.456648 z m 19.330869,0.270103 c -0.456879,-0.114725 -0.845854,-0.220081 -0.864382,-0.234122 -0.01853,-0.01404 0.113345,-0.332264 0.293058,-0.707163 0.179707,-0.374895 0.366672,-0.810064 0.415467,-0.96704 0.08384,-0.269705 0.147714,-0.279049 1.160659,-0.169802 1.339168,0.144433 1.694956,0.221805 1.694956,0.368604 0,0.15294 -1.659368,1.961115 -1.777491,1.936894 -0.05034,-0.01029 -0.465382,-0.112645 -0.922267,-0.227371 z M 21.446392,14.251597 c -0.254436,-0.316874 -0.88277,-1.652486 -0.811113,-1.724138 0.03893,-0.03892 0.479228,-0.10357 0.978449,-0.143638 l 0.907673,-0.07286 v 0.752734 c 0,0.414004 0.07372,0.826459 0.163833,0.916566 0.213117,0.213118 0.156735,0.251093 -0.528401,0.355905 -0.383291,0.05864 -0.61788,0.03071 -0.710441,-0.08457 z m 14.47368,0.05053 c -0.415718,-0.0679 -0.489798,-0.124374 -0.382857,-0.291863 0.07294,-0.11422 0.13356,-0.541083 0.134721,-0.948583 l 0.0021,-0.740908 1.003756,0.09879 c 0.552067,0.05433 1.024838,0.118086 1.050609,0.141668 0.0258,0.02357 -0.148739,0.452712 -0.387806,0.953625 -0.456529,0.956577 -0.44001,0.94742 -1.420543,0.787268 z M 14.588164,12.319389 c -0.202954,-0.402593 -0.405319,-0.950043 -0.449701,-1.216559 -0.04438,-0.266514 -0.108929,-0.62475 -0.143435,-0.796081 -0.06147,-0.305193 -0.03672,-0.3114956 1.220548,-0.3108256 l 1.283292,6.8e-4 0.03609,0.6247526 c 0.01986,0.343616 0.149897,0.924259 0.28899,1.29032 l 0.252893,0.665565 -0.842785,0.148814 c -0.463532,0.08184 -0.940459,0.188527 -1.059838,0.237064 -0.160709,0.06534 -0.312836,-0.101756 -0.586059,-0.643733 z m 27.512032,0.410978 -0.703989,-0.135923 0.323251,-0.890554 c 0.177792,-0.489804 0.323256,-1.074626 0.323256,-1.299602 V 9.9952394 h 1.094419 1.094417 l -0.06773,0.5884076 c -0.09499,0.825173 -0.828512,2.323996 -1.126018,2.300833 -0.128489,-0.01 -0.550408,-0.07936 -0.937598,-0.154113 z M 17.174042,11.983654 C 17.05107,11.68957 16.906005,11.121867 16.851673,10.722096 l -0.09878,-0.7268566 h 1.471645 1.471645 l 0.152675,0.8653046 c 0.08397,0.47592 0.193312,0.9654 0.242987,1.087736 0.07578,0.186623 -0.06129,0.237393 -0.85141,0.315365 -0.517951,0.05111 -1.144468,0.129334 -1.392265,0.173824 -0.419614,0.07533 -0.465888,0.04418 -0.674123,-0.453815 z m 22.030467,0.335159 c -0.533031,-0.07321 -0.985003,-0.148603 -1.004378,-0.167527 -0.01937,-0.01893 0.02276,-0.215844 0.0936,-0.437595 0.07087,-0.221754 0.168415,-0.699122 0.21678,-1.06082 l 0.08794,-0.6576316 h 1.602499 1.602499 l -0.08711,0.6355666 c -0.04793,0.349561 -0.208633,0.91028 -0.357159,1.246041 -0.304958,0.68941 -0.324298,0.693377 -2.154671,0.441966 z m -2.595921,-0.211057 -0.934532,-0.04843 V 11.02728 9.9952384 h 1.302095 1.302088 l -0.06972,0.5884086 c -0.115036,0.970803 -0.319636,1.628442 -0.497674,1.599659 -0.09225,-0.01491 -0.588262,-0.04891 -1.102257,-0.07555 z M 20.396943,11.968137 c -0.0634,-0.102752 -0.367624,-1.641898 -0.367624,-1.859877 0,-0.06216 0.560717,-0.1130206 1.246041,-0.1130206 h 1.246041 v 0.9510276 0.951029 l -0.519185,0.08581 c -0.713345,0.117909 -1.527974,0.110316 -1.605273,-0.01497 z M 14.108328,9.1121214 c 0.03829,-0.3396491 0.263592,-1.032079 0.500684,-1.5387344 0.337048,-0.720256 0.484479,-0.9059611 0.675895,-0.8513683 0.134649,0.038398 0.603054,0.1408337 1.040899,0.2276228 0.437846,0.086787 0.796083,0.1767009 0.796083,0.1998023 0,0.023104 -0.09862,0.3146177 -0.219175,0.6478169 -0.120546,0.333198 -0.261345,0.8861736 -0.312888,1.2288357 l -0.09371,0.6230207 -1.228695,0.040278 -1.228695,0.040278 z M 16.892307,8.9916211 C 16.935237,8.6299973 17.08894,8.0660594 17.233868,7.738423 l 0.263508,-0.5957034 1.266221,0.1573934 c 0.696418,0.086563 1.283911,0.1832392 1.305532,0.2148302 0.02162,0.031584 -0.05637,0.5247042 -0.173307,1.0958059 l -0.212626,1.038368 h -1.434471 -1.434471 z m 3.197429,0.5740208 c -0.07822,-0.1265633 0.21732,-1.8394353 0.33851,-1.9618868 0.05828,-0.058895 0.553083,-0.065518 1.099562,-0.014735 l 0.993593,0.092347 v 0.9838735 0.9838747 h -1.19004 c -0.654519,0 -1.213253,-0.03757 -1.241625,-0.083475 z m 15.58432,-0.869472 c 0,-1.1692016 -0.03098,-1.1432125 1.453717,-1.2186546 l 0.692247,-0.035176 0.162853,0.6555972 c 0.08957,0.3605789 0.183025,0.8571045 0.207676,1.1033881 l 0.04479,0.447791 -1.280655,0.039808 -1.280656,0.039808 z m 2.831822,0.5029879 C 38.457366,8.9136058 38.361466,8.4619169 38.292702,8.1954017 38.22395,7.9288876 38.167337,7.6411036 38.166913,7.555882 c -5.24e-4,-0.1312689 1.911104,-0.4680729 2.656866,-0.4680729 0.229904,0 0.72246,1.1772156 0.883404,2.1113487 l 0.08945,0.5191836 H 40.195337 38.594036 Z M 41.920562,8.8587221 C 41.822911,8.3859334 41.654688,7.8283079 41.546742,7.6195574 41.438787,7.4108057 41.350468,7.1850312 41.350468,7.1178349 c 0,-0.140742 1.533202,-0.4495207 1.709246,-0.344233 0.246681,0.1475354 1.059736,2.0585896 1.059736,2.4908748 V 9.7183414 H 43.108782 42.098113 Z M 21.448422,7.2622007 c -0.475921,-0.027031 -0.865308,-0.1008728 -0.865308,-0.1640895 0,-0.1934227 0.389151,-1.0284417 0.651714,-1.3984109 0.239591,-0.3376017 0.275937,-0.3448102 1.047197,-0.2076731 0.721043,0.1282067 0.771696,0.1590671 0.519187,0.3163027 -0.220142,0.1370767 -0.279811,0.3216115 -0.279811,0.8653066 0,0.3800888 -0.04673,0.6790666 -0.103837,0.6643944 -0.0571,-0.014668 -0.493225,-0.048792 -0.969141,-0.075834 z M 35.674056,6.6678712 c 0,-0.3486937 -0.09063,-0.6967631 -0.218074,-0.8375979 -0.203819,-0.2252184 -0.16988,-0.2491746 0.519186,-0.3664616 0.405493,-0.06902 0.803557,-0.076494 0.884591,-0.016615 0.188063,0.1389697 0.820176,1.4807236 0.736845,1.5640555 -0.03448,0.034482 -0.481164,0.1055719 -0.992621,0.1579707 l -0.929927,0.095279 z M 18.589537,6.9348742 C 18.140318,6.8693332 17.748816,6.7917436 17.719531,6.7624596 17.654441,6.6973666 18.635878,5.4523192 19.022874,5.1090383 19.286781,4.8749409 19.352766,4.873473 20.187394,5.0831263 L 21.072158,5.305372 20.654576,6.1936983 C 20.186981,7.1884167 20.227518,7.1738665 18.589537,6.9348742 Z M 37.657539,6.3003948 C 37.451658,5.8577829 37.279387,5.4415091 37.274713,5.3753421 37.270013,5.3091751 37.689558,5.14847 38.206969,5.0182226 l 0.940748,-0.236815 0.839241,0.8971504 c 0.960601,1.0268832 0.950078,1.0517221 -0.505549,1.1934061 -0.533032,0.05188 -1.077235,0.1255719 -1.209345,0.1637561 C 38.08827,7.0888412 37.943962,6.9161675 37.657539,6.3003948 Z M 17.052664,6.7021037 C 16.90037,6.6779652 16.441754,6.5932672 16.033515,6.5138813 l -0.742249,-0.144339 0.534576,-0.5514216 c 0.603172,-0.6221791 1.747069,-1.4992915 1.955321,-1.4992915 0.07568,0 0.37167,0.097796 0.65775,0.2173308 l 0.520148,0.2173319 -0.489748,0.5095263 c -0.269362,0.2802398 -0.635999,0.7285509 -0.814749,0.9962476 -0.223053,0.3340439 -0.411862,0.4729566 -0.6019,0.4428379 z M 40.763116,6.1593552 C 40.5677,5.8704625 40.214952,5.4277678 39.979223,5.1755913 39.743499,4.9234138 39.550632,4.695876 39.550632,4.6699507 c 0,-0.025923 0.194798,-0.1150438 0.432888,-0.1980423 0.392196,-0.1367209 0.493062,-0.1064557 1.072979,0.3219416 0.352052,0.2600663 0.880154,0.7204809 1.173567,1.0231418 L 42.763542,6.3672857 42.3339,6.4506487 C 41.043605,6.7010084 41.141818,6.7192205 40.763116,6.1593552 Z M 22.590625,5.1972976 c -0.152293,-0.0322 -0.425985,-0.090703 -0.608198,-0.1299935 l -0.3313,-0.071437 0.469751,-0.4857313 c 0.258361,-0.2671518 0.795369,-0.7022016 1.193348,-0.9667779 0.719871,-0.4785685 0.725935,-0.4798373 1.176819,-0.2461225 0.249265,0.129208 0.750324,0.3397778 1.113454,0.4679308 l 0.660244,0.2330077 -1.25241,0.6449001 c -1.195048,0.6153611 -1.645308,0.7184066 -2.421708,0.5542236 z m 10.82142,-0.558525 -1.085197,-0.6487288 0.562857,-0.1661906 c 0.309568,-0.091408 0.78944,-0.2998796 1.066376,-0.4632776 l 0.503529,-0.2970881 0.751356,0.5796673 c 0.413248,0.3188178 0.872922,0.7503914 1.021505,0.9590536 l 0.270145,0.3793851 -0.310443,0.076225 c -0.170743,0.041922 -0.62195,0.1107519 -1.002687,0.1529538 -0.641004,0.071045 -0.77257,0.028709 -1.777441,-0.5719997 z M 21.067684,4.938378 c -0.07615,-0.027959 -0.405111,-0.1194027 -0.731031,-0.2032057 -0.325926,-0.0838 -0.556819,-0.2102441 -0.5131,-0.2809838 0.259312,-0.4195754 3.541159,-1.8908583 3.82561,-1.7150559 0.07688,0.047516 -0.167134,0.2930939 -0.542262,0.5457223 -0.375134,0.2526296 -0.932973,0.7443767 -1.239641,1.0927728 -0.306674,0.348396 -0.580879,0.6285284 -0.609355,0.6225159 -0.02846,-0.00601 -0.114074,-0.033809 -0.190221,-0.061766 z M 36.431141,4.373657 C 36.161107,4.0441153 35.660252,3.5734691 35.318126,3.3277762 34.799778,2.9555258 34.733627,2.8600547 34.921266,2.7550456 c 0.152242,-0.085198 0.478778,-0.029626 1.008168,0.1716035 0.847015,0.3219549 2.790504,1.3867012 2.790504,1.5287891 0,0.047975 -0.40451,0.1840124 -0.898913,0.3023052 L 36.922111,4.972822 Z M 18.67944,4.2846672 c -0.247478,-0.079389 -0.449429,-0.1820567 -0.448783,-0.2281521 0.002,-0.1404242 2.072998,-0.9752317 3.314492,-1.3360332 1.229553,-0.3573321 1.944542,-0.4476835 1.110708,-0.1403582 -0.698223,0.2573431 -1.885234,0.8703871 -2.733066,1.4115189 -0.401249,0.2561001 -0.743909,0.4592756 -0.761464,0.451502 -0.01759,-0.00772 -0.234411,-0.079089 -0.481887,-0.1584774 z M 38.870185,4.1253718 C 38.781877,4.018972 38.085942,3.6140073 37.323655,3.2254534 36.561368,2.8368996 35.992053,2.5189925 36.058514,2.5189925 c 0.244902,0 2.06727,0.6683819 3.007547,1.1030658 0.814845,0.3766955 0.925056,0.4662794 0.692242,0.562668 -0.420308,0.1740168 -0.710535,0.1546209 -0.888118,-0.059355 z M 25.913402,3.4993182 c -1.154233,-0.4263913 -1.453718,-0.555097 -1.453718,-0.6247536 0,-0.036641 0.513995,-0.233632 1.142209,-0.4377472 0.962481,-0.3127259 1.464136,-0.3817403 3.188233,-0.4386144 1.299625,-0.042873 2.352071,-0.00727 2.884935,0.09755 0.956064,0.1880938 2.337606,0.6867597 2.337606,0.8437559 0,0.057854 -0.459616,0.2728197 -1.021368,0.4777025 -1.152313,0.4202712 -1.054357,0.4406215 -2.733956,-0.5679735 L 29.478668,2.3816461 28.180609,3.0706837 C 27.466672,3.4496538 26.820242,3.7586685 26.744096,3.757383 26.66795,3.7560404 26.294135,3.6399684 25.913402,3.4993193 Z M 24.113566,2.5189925 c 0.380608,-0.1635525 0.599199,-0.1635525 0.346118,0 -0.114219,0.073809 -0.301121,0.1307833 -0.415346,0.1265978 -0.13693,-0.00503 -0.113351,-0.048143 0.06923,-0.1265978 z m 9.760654,-0.075252 -0.346123,-0.2038937 0.415346,0.08823 c 0.458335,0.09736 0.804422,0.3324529 0.477654,0.3244668 -0.110417,-0.00269 -0.35651,-0.096655 -0.546877,-0.2087987 z"
     id="path915" />
</svg>
